<svg width="1007" height="1288" viewBox="0 0 1007 1288" fill="none" xmlns="http://www.w3.org/2000/svg">
<path opacity="0.5" d="M-39.7854 355.789C26.3322 289.672 124.841 268.316 230.795 287.403C336.744 306.49 450.035 366.011 545.51 461.486C640.986 556.961 700.507 670.253 719.594 776.202C738.682 882.156 717.325 980.665 651.208 1046.78C585.09 1112.9 486.58 1134.26 380.627 1115.17C274.678 1096.08 161.386 1036.56 65.9104 941.086C-29.5647 845.611 -89.0856 732.32 -108.172 626.37C-127.26 520.417 -105.903 421.907 -39.7854 355.789Z" stroke="url(#paint0_linear_4801_27079)" stroke-width="2"/>
<path opacity="0.5" d="M17.4958 298.5C83.6135 232.383 182.123 211.026 288.076 230.114C394.025 249.201 507.316 308.722 602.792 404.197C698.267 499.672 757.788 612.964 776.875 718.913C795.963 824.867 774.606 923.376 708.489 989.494C642.371 1055.61 543.862 1076.97 437.908 1057.88C331.959 1038.79 218.667 979.272 123.192 883.797C27.7165 788.322 -31.8044 675.03 -50.8912 569.081C-69.9789 463.128 -48.6219 364.618 17.4958 298.5Z" stroke="url(#paint1_linear_4801_27079)" stroke-width="2"/>
<path opacity="0.5" d="M74.7927 241.217C140.91 175.1 239.419 153.743 345.373 172.831C451.322 191.918 564.613 251.439 660.089 346.914C755.564 442.389 815.085 555.681 834.172 661.63C853.26 767.584 831.903 866.093 765.786 932.21C699.668 998.328 601.159 1019.69 495.205 1000.6C389.256 981.511 275.964 921.989 180.489 826.514C85.0134 731.039 25.4925 617.747 6.40565 511.798C-12.682 405.844 8.675 307.335 74.7927 241.217Z" stroke="url(#paint2_linear_4801_27079)" stroke-width="2"/>
<defs>
<linearGradient id="paint0_linear_4801_27079" x1="-40.4929" y1="355.083" x2="651.914" y2="1047.49" gradientUnits="userSpaceOnUse">
<stop stop-color="#F3B373"/>
<stop offset="1" stop-color="#2D2B70"/>
</linearGradient>
<linearGradient id="paint1_linear_4801_27079" x1="16.7884" y1="297.794" x2="709.196" y2="990.201" gradientUnits="userSpaceOnUse">
<stop stop-color="#F3B373"/>
<stop offset="1" stop-color="#2D2B70"/>
</linearGradient>
<linearGradient id="paint2_linear_4801_27079" x1="74.0852" y1="240.51" x2="766.493" y2="932.918" gradientUnits="userSpaceOnUse">
<stop stop-color="#F3B373"/>
<stop offset="1" stop-color="#2D2B70"/>
</linearGradient>
</defs>
</svg>
