<svg width="61" height="61" viewBox="0 0 61 61" fill="none" xmlns="http://www.w3.org/2000/svg">
<rect width="61" height="61" rx="30.5" fill="#706BBF"/>
<mask id="mask0_4552_1127" style="mask-type:luminance" maskUnits="userSpaceOnUse" x="11" y="13" width="32" height="33">
<path d="M11 13.5H43V45.5H11V13.5Z" fill="white"/>
</mask>
<g mask="url(#mask0_4552_1127)">
</g>
<path d="M34.3181 30.999C34.3181 33.1085 32.6104 34.8221 30.5068 34.8221C28.3913 34.8221 26.6836 33.1085 26.6836 30.999C26.6836 28.8894 28.3913 27.1758 30.5068 27.1758C32.6163 27.1758 34.3181 28.8894 34.3181 30.999Z" fill="white"/>
<path d="M33.0221 31.5739C32.7031 31.5739 32.449 31.3198 32.449 31.0007C32.449 29.9253 31.5744 29.0448 30.499 29.0448C30.1799 29.0448 29.9258 28.7907 29.9258 28.4716C29.9258 28.1525 30.1799 27.8984 30.499 27.8984C32.2067 27.8984 33.5894 29.2871 33.5894 30.9948C33.5953 31.3139 33.3412 31.5739 33.0221 31.5739Z" fill="white"/>
<path d="M30.4994 49.318C26.0381 49.318 22.6758 41.4412 22.6758 30.9998C22.6758 20.5585 26.0381 12.6816 30.4994 12.6816C34.9608 12.6816 38.3231 20.5585 38.3231 30.9998C38.3231 41.4412 34.9608 49.318 30.4994 49.318ZM30.4994 13.828C26.8181 13.828 23.8162 21.5335 23.8162 30.9998C23.8162 40.4662 26.8181 48.1716 30.4994 48.1716C34.1808 48.1716 37.1826 40.4721 37.1826 30.9998C37.1826 21.5275 34.1867 13.828 30.4994 13.828Z" fill="white"/>
<path d="M27.3321 18.0421C27.3321 19.0052 26.5521 19.7912 25.5889 19.7912C24.6198 19.7912 23.8398 19.0052 23.8398 18.0421C23.8398 17.0789 24.6198 16.293 25.5889 16.293C26.5521 16.2989 27.3321 17.0789 27.3321 18.0421Z" fill="white"/>
<path d="M33.6719 43.9581C33.6719 42.9949 34.4519 42.209 35.4151 42.209C36.3841 42.209 37.1641 42.9949 37.1641 43.9581C37.1641 44.9213 36.3841 45.7072 35.4151 45.7072C34.4519 45.7013 33.6719 44.9213 33.6719 43.9581Z" fill="white"/>
<path d="M20.088 42.4929C17.488 42.4929 15.544 41.7307 14.634 40.1588C13.5349 38.2561 14.2026 35.5497 16.5071 32.542C18.7349 29.6407 22.3099 26.6861 26.5821 24.222C30.8544 21.7579 35.2035 20.1329 38.8258 19.6543C42.584 19.1579 45.2608 19.932 46.3599 21.8407C47.459 23.7434 46.7912 26.4497 44.4867 29.4575C42.259 32.3588 38.684 35.3134 34.4117 37.7775C29.0521 40.8738 23.8758 42.4929 20.088 42.4929ZM40.9058 20.6529C40.309 20.6529 39.6649 20.7002 38.9794 20.7888C35.499 21.2497 31.3035 22.8216 27.1553 25.2147C23.013 27.6079 19.5503 30.4561 17.4171 33.2393C15.4376 35.8157 14.7817 38.132 15.6267 39.5857C17.4703 42.7766 25.6367 41.5179 33.8385 36.7847C37.9808 34.3916 41.4435 31.5434 43.5767 28.7602C45.5562 26.1838 46.2062 23.8675 45.3671 22.4138C44.7112 21.2675 43.1276 20.6529 40.9058 20.6529Z" fill="white"/>
<path d="M20.8694 40.2247C21.7026 39.7401 22.7721 40.0238 23.2566 40.8628C23.7412 41.7019 23.4516 42.7715 22.6185 43.2501C21.7853 43.7347 20.7157 43.451 20.2312 42.6119C19.7407 41.7728 20.0303 40.7033 20.8694 40.2247Z" fill="white"/>
<path d="M40.138 21.7755C39.3048 22.2601 38.2353 21.9764 37.7507 21.1373C37.2662 20.2982 37.5557 19.2287 38.3889 18.7501C39.2221 18.2655 40.2916 18.5491 40.7762 19.3882C41.2607 20.2273 40.9712 21.291 40.138 21.7755Z" fill="white"/>
<path d="M40.9235 42.4866C40.2676 42.4866 39.5703 42.4393 38.8258 42.3389C35.2035 41.8602 30.8544 40.2411 26.5821 37.7711C22.3099 35.3071 18.729 32.3525 16.5071 29.4511C14.2026 26.4493 13.5349 23.743 14.634 21.8402C16.8676 17.9757 25.3649 18.998 34.4117 24.2216C38.684 26.6857 42.259 29.6402 44.4867 32.5416C46.7971 35.5493 47.4649 38.2557 46.3658 40.1584C45.4794 41.6889 43.5826 42.4866 40.9235 42.4866ZM20.0171 20.6466C17.8899 20.6466 16.3121 21.2198 15.6267 22.4134C14.7876 23.8671 15.4376 26.1834 17.4171 28.7598C19.5562 31.543 23.013 34.3911 27.1612 36.7843C31.3035 39.1775 35.5049 40.7493 38.9794 41.2043C42.1999 41.6357 44.534 41.0448 45.373 39.5852C46.2121 38.1316 45.5621 35.8152 43.5826 33.2389C41.4435 30.4557 37.9867 27.6016 33.8444 25.2143C28.7094 22.248 23.5862 20.6466 20.0171 20.6466Z" fill="white"/>
<path d="M43.3047 34.7345C42.4716 34.2499 42.182 33.1863 42.6607 32.3472C43.1452 31.5081 44.2147 31.2245 45.0479 31.709C45.8811 32.1936 46.1707 33.2572 45.6861 34.0963C45.2075 34.9295 44.1379 35.2131 43.3047 34.7345Z" fill="white"/>
<path d="M17.6946 27.2657C18.5278 27.7502 18.8173 28.8138 18.3387 29.6529C17.8541 30.492 16.7846 30.7757 15.9514 30.2911C15.1182 29.8066 14.8287 28.7429 15.3132 27.9038C15.7918 27.0707 16.8614 26.787 17.6946 27.2657Z" fill="white"/>
<path d="M20.4256 15.955C20.4256 16.5932 19.9115 17.1073 19.2734 17.1073C18.6352 17.1073 18.1211 16.5873 18.1211 15.955C18.1211 15.3168 18.6352 14.8027 19.2734 14.8027C19.9115 14.8027 20.4256 15.3168 20.4256 15.955Z" fill="white"/>
<path d="M21.578 47.2676C21.578 47.9057 21.0639 48.4198 20.4257 48.4198C19.7875 48.4198 19.2734 47.8998 19.2734 47.2676C19.2734 46.6294 19.7875 46.1153 20.4257 46.1153C21.0639 46.1094 21.578 46.6294 21.578 47.2676Z" fill="white"/>
<path d="M45.9295 45.1113C45.9295 45.7494 45.4155 46.2635 44.7773 46.2635C44.1391 46.2635 43.625 45.7435 43.625 45.1113C43.625 44.4731 44.1391 43.959 44.7773 43.959C45.4155 43.959 45.9295 44.4731 45.9295 45.1113Z" fill="white"/>
</svg>
