<svg width="1416" height="184" viewBox="0 0 1416 184" fill="none" xmlns="http://www.w3.org/2000/svg">
<g filter="url(#filter0_d_4552_1080)">
<path d="M869.818 146.07C869.696 141.369 869.977 136.632 869.84 131.923C869.076 106.138 866.264 80.1738 864.512 54.4033C864.224 50.1406 864.613 45.7988 863.978 41.5289L862.839 40.7094L861.39 41.2126C859.631 46.4889 858.283 52.1174 856.494 57.4009C847.424 84.2209 834.648 110.804 826.314 137.458C825.708 139.406 824.958 144.438 824.389 145.596C824.23 145.912 823.97 146.142 823.668 146.329L813.091 146.084C813.141 141.211 810.819 136.768 809.399 132.29C801.021 105.822 789.925 80.4398 781.987 53.7851C780.826 49.889 780.177 45.3316 778.865 41.572C778.238 39.7749 775.779 40.8029 775.599 42.9594C775.527 43.8436 776.017 44.6199 775.981 45.31C774.359 76.4718 770.004 107.404 769.369 138.688C769.319 141.024 768.62 143.173 769.377 145.768C769.269 146.207 768.483 146.379 768.086 146.401C765.411 146.523 761.943 145.984 758.994 146.07C757.451 146.113 755.231 147.493 754.906 145.358C754.841 144.92 755.332 140.988 755.447 140.147C759.521 110.035 763.717 79.4981 765.988 49.1486C766.507 42.219 767.423 35.39 766.997 28.3669L789.802 28.295C792.73 46.7333 800.055 63.9927 806.032 81.5468C809.017 90.3238 812.701 99.3094 815.362 108.158C816.948 113.435 817.539 120.587 819.183 125.418C819.68 126.884 821.187 128.681 821.966 126.46C822.939 123.671 823.019 120.149 823.797 117.252C827.806 102.285 835.521 85.5579 841.13 70.8361C845.629 59.0255 852.479 44.6055 854.887 32.3564C855.182 30.8541 854.281 28.9204 855.636 27.8349H876.783L885.673 146.092H869.811L869.818 146.07Z" fill="white"/>
<path d="M1367.3 146.07C1367.26 144.596 1367.45 143.101 1367.19 141.635C1366.14 135.618 1362.45 125.806 1360.33 119.746C1359.63 117.748 1356.5 108.108 1355.29 107.526L1302.05 107.641L1300.73 109.193C1297.79 119.329 1293.82 129.141 1291.1 139.342C1290.68 140.923 1290.32 146.451 1288.72 146.559C1287.95 146.609 1286.86 146.07 1285.85 146.041C1282.67 145.955 1279.39 145.969 1276.2 146.041C1274.99 146.07 1273.81 147.033 1273.12 145.783C1275.98 138.307 1278.7 130.716 1281.74 123.312C1293.57 94.4644 1307.79 65.5454 1318.26 36.1663C1318.91 34.3189 1319.52 29.9483 1320.2 28.6472C1321.01 27.1233 1324.27 28.3022 1325.71 28.3165C1329.08 28.3525 1332.48 28.3525 1335.85 28.3165C1336.85 28.3022 1337.76 27.8349 1338.69 27.8493C1341.34 27.8996 1340.56 30.3868 1341.11 32.1264C1343.41 39.2861 1346.32 46.417 1349.04 53.4329C1360.89 84.0771 1374.77 113.902 1385.51 144.956L1384.86 146.07H1367.3ZM1328.2 38.4163L1305.36 95.938L1306.26 97.0019L1350.65 97.1744C1351.89 96.7719 1351.52 94.4285 1351.21 93.3933C1344.77 77.3703 1337.3 61.4983 1331.98 45.044C1331.21 42.6431 1331.46 37.3524 1328.2 38.4163Z" fill="white"/>
<path d="M934.809 73.6827C935.883 75.5373 939.654 74.2578 941.182 74.2362C965.905 73.9343 999.23 76.9103 999.165 108.963C999.085 146.192 952.711 148.428 925.349 146.545C924.491 146.487 920.266 145.955 920.021 145.624C922.177 112.924 920.915 80.0157 921.283 47.1861L919.776 28.6041C920.05 27.152 925.883 28.3094 927.231 28.295C928.832 28.2806 935.479 26.7782 936.092 28.6041L934.816 73.6827H934.809ZM978.746 95.0395C970.282 86.9453 949.092 84.2425 937.808 85.7233C935.566 86.018 934.874 87.7576 934.686 89.7919C934.261 94.3925 935.148 99.2591 935.213 103.68C935.328 112.205 934.239 123.383 935.184 131.478C935.602 135.072 938.58 134.892 941.658 135.079C953.432 135.812 974.564 134.612 981.522 123.513C986.865 114.987 986.173 102.134 978.754 95.0395H978.746Z" fill="white"/>
<path d="M1169.55 140.6C1167.49 142.67 1161.89 147.112 1159.18 147.788C1155.71 148.644 1157.33 145.179 1157.26 143.914C1157.06 140.348 1156.32 136.66 1156.88 133.002C1161.1 129.63 1164.58 126.173 1167.66 121.723C1181.71 101.38 1196.41 64.4887 1202.38 40.4506C1203.36 36.5401 1203.88 32.3636 1204.43 28.374L1252.45 28.0146C1253.5 28.7766 1252.44 31.1272 1252.4 32.3421C1251.35 65.991 1251.38 99.295 1252.44 132.879C1252.58 137.271 1252.56 141.699 1252.69 146.092C1252 147.112 1250.28 146.099 1249.29 146.07C1246.91 145.991 1244.46 146.013 1242.07 146.048C1240.3 146.07 1238.45 147.378 1237.09 145.279C1238.62 134.051 1237.83 122.665 1237.98 111.343C1238.21 94.5075 1238.82 77.5141 1238.5 60.5925C1238.4 55.2156 1238.71 45.31 1237.97 40.5369C1237.81 39.5521 1237.43 38.4666 1236.31 38.3516C1229.88 38.9913 1221.84 37.5034 1215.62 38.33C1214.97 38.4163 1214.35 38.4235 1213.93 39.0345C1208.92 59.0398 1202.65 78.7793 1194.49 97.7135C1188.75 111.041 1179.7 130.399 1169.54 140.607L1169.55 140.6Z" fill="white"/>
<path d="M727.992 28.3237C728.431 28.7694 727.141 36.7126 726.91 37.9634C725.922 43.441 724.891 40.7669 720.904 39.9259C715.389 38.7613 707.89 37.8484 702.31 38.3516C645.784 43.4697 648.113 136.509 711.416 136.466C719.311 136.466 726.607 136.265 733.99 133.16L734.762 134.324C733.781 137.451 734.545 141.743 733.687 144.769C733.529 145.33 733.046 145.811 732.483 145.969C728.287 146.264 724.25 147.515 720.075 147.975C707.97 149.305 692.814 148.579 681.387 144.388C647.298 131.873 638.055 87.8726 654.847 58.1125C661.018 47.1718 668.834 39.2214 680.103 33.4778C694.927 25.93 711.877 25.1177 727.977 28.3165L727.992 28.3237Z" fill="white"/>
<path d="M1142.3 28.3453C1142.68 28.791 1141.19 38.6104 1140.89 40.0121C1140.78 40.5584 1140.77 40.9969 1140.11 41.1766C1135.51 40.6016 1130.85 38.7541 1126.23 38.3588C1094.84 35.7063 1074.53 59.1189 1075.99 89.3606C1077.69 124.354 1107.33 142.469 1140.55 135.431C1143.4 134.827 1146.19 133.498 1149.03 133.188C1150.11 133.95 1148.08 142.447 1148.5 144.295C1147.49 146.717 1145.5 145.754 1143.66 146.178C1099.7 156.414 1060.18 135.014 1061.21 86.9381C1061.68 64.9919 1076.39 41.2845 1096.59 32.2558C1110.45 26.0522 1127.53 25.0602 1142.3 28.3381V28.3453Z" fill="white"/>
<path d="M1017.44 28.3597L1032.79 28.029C1033.85 28.7551 1032.78 31.1272 1032.74 32.3493C1031.64 68.3129 1031.64 104.147 1032.74 140.111C1032.8 142.037 1033.82 144.093 1033.03 146.106C1032.3 147.156 1029.92 146.099 1028.7 146.056C1026.84 145.998 1017.74 146.494 1017.1 145.624L1018.36 125.267C1018.42 94.9101 1018.63 64.5821 1017.36 34.2973C1017.28 32.3349 1017.39 30.315 1017.44 28.3597Z" fill="white"/>
</g>
<g filter="url(#filter1_d_4552_1080)">
<path d="M209.158 42.3829C254.119 76.9161 221.768 164.694 161.399 147.643C128.341 138.305 117.966 102.327 126.445 71.8554C136.373 36.1578 178.537 18.8624 209.165 42.3757L209.158 42.3829ZM200.023 51.4763C173.533 30.0548 142.631 49.442 138.269 79.813C135.479 99.2577 139.747 120.061 156.525 131.908C180.758 149.016 207.917 132.03 214.024 105.957C218.314 87.6412 215.437 63.9482 200.023 51.4835V51.4763Z" fill="white"/>
<path d="M423.538 38.5587C457.043 58.6216 457.843 112.923 428.765 136.968C407.957 154.17 379.255 153.998 359.708 135.056C340.523 116.46 338.713 83.1988 350.898 60.3684C364.683 34.5404 397.431 22.9311 423.531 38.5587H423.538ZM421.512 53.489C403.739 36.2656 379.377 39.8167 365.664 59.743C353.155 77.9297 354.272 113.354 371.735 128.342C385.145 139.858 401.029 142.812 416.198 132.569C440.33 116.28 441.822 73.1565 421.512 53.4818V53.489Z" fill="white"/>
<path d="M102.169 34.0444V44.3382C102.169 44.4748 101.427 45.6465 101.21 45.7759C91.9166 45.8406 82.4284 45.5027 73.1131 44.561C64.3026 45.3733 53.7832 43.5546 45.189 44.5538C41.6633 44.9636 43.5091 49.3126 43.5523 51.505C43.7542 61.4754 43.3649 71.4816 43.5307 81.452C47.2943 81.4232 51.0795 81.4735 54.8503 81.4664C78.3259 81.416 110.749 82.1349 108.925 114.267C107.072 146.946 64.49 147.514 40.3872 146.579C37.5104 146.471 34.3813 145.724 31.3387 146.011L30.7619 145.63C29.8102 144.272 31.007 137.759 31.0503 135.804C31.7497 107.625 31.7929 79.2236 31.0143 51.0593C30.8556 45.3661 31.1873 39.7088 30.5528 34.0444H102.176H102.169ZM90.4674 99.804C82.2409 91.4511 58.2678 89.7905 47.1357 91.0198C45.5567 91.1923 43.473 91.6452 43.5091 93.6292C43.8551 107.388 42.579 121.434 45.0881 134.948C45.5062 135.365 50.9569 136.005 51.9447 136.019C62.5433 136.177 82.4716 135.681 90.3881 127.875C97.4755 120.888 97.4467 106.892 90.4674 99.804Z" fill="white"/>
<path d="M477.331 146.076C476.791 146.076 476.012 147.118 475.284 145.3C476.791 130.894 476.005 116.273 476.113 101.766C476.199 90.1356 476.279 78.5766 476.113 66.8595C475.961 55.9187 476.827 44.8629 475.176 34.0444C478.939 34.0084 482.717 34.0731 486.488 34.0659C487.836 34.0659 489.466 33.0236 490.576 34.3678C490.042 40.2623 490.244 46.1137 490.093 52.0226C489.884 60.3396 488.514 72.222 489.574 80.2731C489.833 82.2355 490.446 82.2571 492.213 82.4296C507.671 83.9392 525.573 81.222 541.298 82.4296C542.581 82.559 543.468 81.9624 544.139 80.956C544.521 71.5248 544.211 61.9426 543.93 52.4611C543.785 47.7024 543.533 42.9221 543.454 38.0986C543.439 37.0204 542.769 35.7911 543.021 34.871C543.605 32.6929 546.756 34.1378 548.479 34.0731C550.289 34.0084 557.268 32.7864 558.119 34.0084C558.905 35.7049 557.91 37.4948 557.852 39.0691C556.691 73.2356 556.987 106.425 557.83 140.584C557.881 142.582 558.818 143.668 557.665 145.76C556.98 146.227 556.013 146.069 555.689 146.069H543.432C542.675 144.581 543.432 143.431 543.454 142.014C543.519 137.694 543.324 133.367 543.411 129.047C543.627 118.523 544.997 105.066 544.124 94.7577C544.067 94.0389 543.8 92.8384 543.237 92.3856L541.298 91.9327C525.573 92.9822 508.233 90.6316 492.703 91.9327C491.751 92.0118 490.865 92.0333 490.071 92.6587L490.612 144.854L490.489 145.494C490.136 145.558 489.538 146.047 489.365 146.047C485.356 146.047 481.355 146.061 477.346 146.047L477.331 146.076Z" fill="white"/>
<path d="M314.43 73.1206C312.166 75.9888 307.818 79.0079 304.639 80.8338C303.182 81.6676 300.803 81.6676 300.219 84.0182C300.443 85.3337 309.505 87.3968 311.366 88.2666C328.086 96.066 328.446 122.412 316.852 134.891C304.242 148.455 285.107 149.332 267.76 147.981C264.717 147.744 246.685 144.631 245.359 142.999C244.313 141.712 245.676 140.879 245.863 139.585C246.145 137.673 245.957 133.554 246.44 132.023C246.613 131.469 247.01 131.21 247.579 131.196C251.292 132.511 255.013 133.884 258.848 134.84C275.395 138.945 309.253 141.669 311.741 118.07C313.168 104.512 304.314 97.935 292.418 94.7002C282.447 91.9902 271.552 93.2266 261.271 92.9319C261.783 90.8832 261.588 82.4584 263.196 81.682C268.885 81.3442 274.573 82.2786 280.284 81.9408C294.523 81.1069 307.833 75.2196 306.448 58.7078C304.79 38.8318 273.578 41.4484 259.952 44.4532C257.745 44.942 256.995 45.1936 255.034 45.783C254.335 45.9915 250.427 47.1776 250.218 46.9691L252.093 35.6761C252.922 34.5979 262.425 32.8798 264.4 32.6139C280.305 30.522 307.364 28.7465 316.449 44.9061C321.005 53.0074 320.227 65.7597 314.43 73.1206Z" fill="white"/>
</g>
<defs>
<filter id="filter0_d_4552_1080" x="616.684" y="0.500977" width="798.824" height="182.183" filterUnits="userSpaceOnUse" color-interpolation-filters="sRGB">
<feFlood flood-opacity="0" result="BackgroundImageFix"/>
<feColorMatrix in="SourceAlpha" type="matrix" values="0 0 0 0 0 0 0 0 0 0 0 0 0 0 0 0 0 0 127 0" result="hardAlpha"/>
<feOffset dy="4"/>
<feGaussianBlur stdDeviation="15"/>
<feComposite in2="hardAlpha" operator="out"/>
<feColorMatrix type="matrix" values="0 0 0 0 1 0 0 0 0 0.496875 0 0 0 0 0.225962 0 0 0 0.3 0"/>
<feBlend mode="normal" in2="BackgroundImageFix" result="effect1_dropShadow_4552_1080"/>
<feBlend mode="normal" in="SourceGraphic" in2="effect1_dropShadow_4552_1080" result="shape"/>
</filter>
<filter id="filter1_d_4552_1080" x="0.394531" y="5.2793" width="588.023" height="178.538" filterUnits="userSpaceOnUse" color-interpolation-filters="sRGB">
<feFlood flood-opacity="0" result="BackgroundImageFix"/>
<feColorMatrix in="SourceAlpha" type="matrix" values="0 0 0 0 0 0 0 0 0 0 0 0 0 0 0 0 0 0 127 0" result="hardAlpha"/>
<feOffset dy="4"/>
<feGaussianBlur stdDeviation="15"/>
<feComposite in2="hardAlpha" operator="out"/>
<feColorMatrix type="matrix" values="0 0 0 0 1 0 0 0 0 0.496875 0 0 0 0 0.225962 0 0 0 0.3 0"/>
<feBlend mode="normal" in2="BackgroundImageFix" result="effect1_dropShadow_4552_1080"/>
<feBlend mode="normal" in="SourceGraphic" in2="effect1_dropShadow_4552_1080" result="shape"/>
</filter>
</defs>
</svg>
