<svg width="745" height="279" viewBox="0 0 745 279" fill="none" xmlns="http://www.w3.org/2000/svg">
<g filter="url(#filter0_d_4552_982)">
<path d="M111.218 276.025C104.273 277.928 87.5519 282.509 74.0553 274.141C66.525 269.475 62.8534 262.84 60.6553 257.788C52.8955 239.955 56.4403 215.752 60.758 197.328C61.0599 196.034 62.95 194.288 61.229 193.06C59.9609 192.151 52.7204 190.724 53.0465 188.869L55.6915 184.986C57.8111 184.456 62.3099 188.189 63.9223 186.75C66.3015 180.579 68.3728 174.275 70.9333 168.17C73.5662 161.89 76.5674 155.593 79.5083 149.446C80.8549 146.634 82.7752 144.081 83.6388 141.089C75.5771 125.814 68.4393 109.956 63.5116 93.3445L62.793 92.8388C60.9814 92.9592 58.6565 94.0369 56.8328 94.7714C40.0572 101.551 14.9601 115.802 9.97817 134.316C8.03369 141.546 10.57 149.644 14.5918 155.701C15.256 156.707 16.6812 157.339 16.7778 158.766C16.8805 160.379 15.3889 161.084 14.5918 162.173C13.535 163.63 13.5471 165.659 11.204 164.889C9.44072 161.589 6.45758 159 4.62784 155.605C-1.53772 144.135 -1.41091 134.442 4.16285 123.129C6.45758 118.463 7.94311 116.813 11.6207 113.207C24.3927 100.678 40.4014 94.5667 57.1045 88.6423C58.3968 88.1848 60.5164 88.3654 61.2592 86.7579C62.0925 84.9637 58.6927 78.1302 58.6927 75.6918C55.5224 56.8108 53.0586 30.3498 66.7061 14.7982C86.791 -8.07446 121.773 9.21102 141.701 23.4801C147.758 27.8211 153.151 32.8965 158.767 37.7613C159.721 38.0503 160.276 37.8395 161.128 37.4662C163.163 36.5752 168.127 30.7893 170.748 28.9951C172.137 28.0438 174.739 32.2162 174.401 33.0169C174.244 33.3902 171.376 35.7202 170.754 36.232C169.002 37.6589 163.471 40.3743 164.19 42.7705C164.51 43.8422 170.289 48.6527 171.599 50.0435C178.109 56.9553 184.341 64.3427 190.271 71.7422C191.624 73.428 193.755 77.4017 195.633 78.0218C211.25 79.3464 226.733 81.6041 241.92 85.2587C243.617 85.6681 250.381 88.0583 251.268 87.974C252.983 87.8055 253.231 84.3917 253.491 82.9528C256.045 68.6054 258.968 51.3139 255.815 36.9364C251.449 17.0319 239.994 8.25373 219.456 11.3544C218.562 11.4868 217.608 11.4086 216.709 11.3243L216.231 10.9992C216.413 8.83171 213.496 6.73048 215.507 5.0206C224.945 3.32276 235.121 2.97355 243.78 7.61553C266.637 19.8737 265.019 52.1448 261.015 74.006C260.097 79.0152 258.708 83.9221 257.579 88.8772C257.869 89.5334 258.406 89.9488 259.022 90.28C262.271 92.032 268.213 93.3867 271.975 95.0183C276.389 96.9329 280.46 99.6542 285.019 101.274C286.788 102.472 285.743 106.897 285.695 108.818C284.294 109.215 283.618 107.59 282.99 107.222C274.904 102.43 266.184 99.0582 257.597 95.2892C255.918 94.7835 255.357 95.7348 254.783 97.0774C251.449 104.82 249.112 113.345 245.634 121.245C243.007 127.199 239.849 132.943 237.162 138.873C235.555 140.746 232.911 140.637 231.588 138.464C228.683 133.677 226.461 128.078 223.617 123.147C216.159 110.209 207.59 97.3965 198.411 85.7223C197.584 84.6747 194.667 80.105 193.906 79.7618C171.726 77.4378 149.214 77.2271 126.979 78.8587C125.904 79.0935 123.513 82.3146 122.667 83.3742C111.031 97.9142 97.0025 119.312 89.0253 136.08C88.4758 137.236 86.8816 140.445 86.8816 141.51C86.8816 142.365 90.0398 148.38 90.6981 149.68C97.3649 162.836 106.193 175.877 114.678 187.948C116.55 190.615 120.246 194.571 121.616 197.075C121.918 197.629 123.102 203.602 122.999 203.969C122.842 204.535 122.232 205.005 121.641 205.059C115.819 204.186 109.787 204.228 103.965 203.427C97.1173 202.482 89.8647 200.899 83.1194 199.327C80.6194 198.749 69.7859 195.173 68.3004 195.6C66.4525 196.124 67.3583 197.804 67.0081 199.159C62.1529 217.853 58.4089 248.721 72.7449 264.2C81.6339 273.797 95.9578 273.268 107.564 269.228C121.484 264.387 134.159 256.819 146.098 248.354C147.269 247.523 149.31 245.199 150.53 244.663C152.613 243.748 154.594 245.873 156.702 246.349L156.339 248.252C149.159 255.145 139.763 262.617 127.83 268.969C122.679 271.714 117.987 274.177 111.206 276.031L111.218 276.025ZM147.45 34.7991C130.946 22.0893 98.7779 2.19688 78.0288 14.0336C58.9947 24.889 61.6879 57.6898 64.8039 76.0169C65.0213 77.2933 66.3378 84.5844 66.6639 84.9938C66.8511 85.2286 67.0987 85.4032 67.3885 85.4875C68.8499 85.921 76.5191 83.308 78.6749 82.8564C87.8538 80.9238 97.1354 79.9183 106.357 78.3469L125.469 76.9381C133.078 67.2327 140.928 57.2503 149.606 48.4601C150.971 47.0753 155.554 44.0288 155.627 42.054C155.609 41.5663 155.452 41.1449 155.138 40.7716C154.147 39.5735 149.111 36.0935 147.444 34.8111L147.45 34.7991ZM163.441 48.5444C162.42 47.6774 161.484 45.4136 159.516 45.4377C156.75 47.9062 153.537 50.2663 150.826 52.8612C145.089 58.3401 139.624 64.5234 134.334 70.4056C133.404 71.4351 129.714 74.4214 129.557 75.4208C129.104 78.3108 134.141 76.3902 135.729 76.3179C152.644 75.5051 172.33 75.9266 188.997 77.8532C193.2 78.3409 188.345 73.2534 187.324 72.0673C180.126 63.7106 171.786 55.5946 163.447 48.5383L163.441 48.5444ZM86.7246 136.375C94.4361 121.853 103.12 107.909 112.256 94.2416L122.057 81.5198L122.214 80.6227C121.677 79.4728 120.837 79.4909 119.702 79.5751C113.47 80.0327 106.308 82.6277 99.9434 82.7782C90.7766 85.2828 80.4866 86.6615 71.5432 89.7742C70.6494 90.0873 69.5444 90.4486 68.8982 91.165C68.5238 91.8695 69.0733 93.9105 69.3088 94.7895C72.3886 106.409 76.809 117.759 81.3984 128.861C81.9177 130.119 83.7535 136.019 84.2064 136.495C84.8828 137.199 86.006 136.862 86.7367 136.375H86.7246ZM241.304 89.702C231.099 86.6314 220.398 84.6145 209.915 82.6517C207.216 82.146 200.911 80.0628 198.604 80.8094L197.91 81.7607C197.807 83.0491 199.601 83.9944 200.344 84.9697C210.404 98.1671 219.957 113.442 228.218 127.783C229.009 129.156 232.826 137.049 233.641 137.254C234.173 137.386 234.396 137.187 234.801 136.916C236.443 135.809 239.481 125.14 241.298 122.936C242.621 117.945 244.783 113.237 246.365 108.336C247.379 105.187 249.94 98.1972 250.248 95.3494C250.707 91.0868 245.296 90.9302 242.035 89.9428C241.715 89.8465 241.401 89.7321 241.31 89.708L241.304 89.702ZM112.764 189.249C102.981 175.311 94.2428 160.746 86.2234 145.713L84.7982 145.496C79.0614 158.826 73.8077 172.336 70.2871 186.377C69.804 188.297 68.4876 189.206 71.5975 190.356C80.4141 193.62 92.401 196.064 101.719 198.051C106.187 199.002 115.173 201.453 119.255 201.471C119.859 201.471 120.342 201.422 120.62 200.808C121.025 199.472 117.788 196.612 117.033 195.534C115.584 193.463 114.213 191.326 112.758 189.255L112.764 189.249Z" fill="white"/>
<path d="M313.081 243.146C312.978 239.208 313.214 235.241 313.099 231.297C312.459 209.701 310.104 187.954 308.636 166.37C308.395 162.8 308.721 159.163 308.19 155.587L307.235 154.9L306.022 155.322C304.548 159.741 303.419 164.455 301.921 168.88C294.325 191.344 283.624 213.608 276.643 235.933C276.136 237.565 275.508 241.779 275.031 242.749C274.898 243.014 274.681 243.206 274.427 243.363L265.568 243.158C265.61 239.076 263.666 235.355 262.476 231.604C255.459 209.436 246.166 188.177 239.517 165.852C238.545 162.589 238.001 158.772 236.902 155.623C236.377 154.118 234.318 154.979 234.167 156.785C234.106 157.525 234.517 158.176 234.487 158.754C233.128 184.853 229.481 210.761 228.949 236.963C228.907 238.919 228.321 240.72 228.955 242.893C228.865 243.26 228.206 243.405 227.874 243.423C225.634 243.525 222.729 243.074 220.259 243.146C218.967 243.182 217.107 244.338 216.835 242.55C216.781 242.183 217.192 238.889 217.288 238.185C220.7 212.964 224.215 187.388 226.117 161.969C226.552 156.165 227.319 150.445 226.962 144.563L246.063 144.503C248.515 159.946 254.65 174.401 259.656 189.104C262.156 196.455 262.772 200.354 265 207.766C266.329 212.185 269.294 221.803 270.671 225.848C271.087 227.077 272.35 228.582 273.002 226.721C273.817 224.385 273.883 221.435 274.536 219.009C277.893 206.474 284.355 192.464 289.053 180.133C292.821 170.241 298.558 158.164 300.575 147.904C300.822 146.646 300.067 145.026 301.203 144.117H318.914L326.36 243.164H313.075L313.081 243.146Z" fill="white"/>
<path d="M439.725 36.0032C477.383 64.9267 450.287 138.446 399.725 124.165C372.037 116.344 363.347 86.21 370.449 60.6882C378.764 30.7893 414.079 16.3034 439.732 35.9972L439.725 36.0032ZM432.074 43.6194C409.888 25.6777 384.006 41.9156 380.353 67.3531C378.016 83.6391 381.59 101.063 395.643 110.985C415.939 125.315 438.687 111.088 443.802 89.2504C447.395 73.9097 444.985 54.0654 432.074 43.6254V43.6194Z" fill="white"/>
<path d="M619.282 32.8002C647.344 49.604 648.014 95.0845 623.66 115.224C606.232 129.631 582.192 129.487 565.821 113.622C549.751 98.0467 548.236 70.1888 558.441 51.067C569.987 29.4346 597.415 19.7111 619.276 32.8002H619.282ZM617.585 45.3052C602.699 30.8796 582.294 33.8538 570.809 50.5432C560.331 65.7757 561.267 95.4457 575.893 107.999C587.125 117.644 600.429 120.119 613.134 111.539C633.346 97.8962 634.596 61.7779 617.585 45.2992V45.3052Z" fill="white"/>
<path d="M729.754 243.146C729.718 241.912 729.875 240.659 729.658 239.431C728.776 234.392 725.684 226.174 723.909 221.098C723.323 219.424 720.708 211.351 719.694 210.863L675.104 210.959L673.993 212.26C671.529 220.749 668.207 228.967 665.931 237.511C665.581 238.835 665.279 243.465 663.938 243.555C663.292 243.598 662.38 243.146 661.535 243.122C658.865 243.05 656.118 243.062 653.449 243.122C652.434 243.146 651.444 243.953 650.87 242.905C653.262 236.644 655.544 230.286 658.087 224.084C667.996 199.923 679.905 175.702 688.673 151.095C689.222 149.548 689.73 145.887 690.303 144.798C690.98 143.521 693.709 144.509 694.917 144.521C697.737 144.551 700.587 144.551 703.407 144.521C704.247 144.509 705.008 144.117 705.787 144.129C708.009 144.171 707.351 146.255 707.816 147.712C709.742 153.708 712.182 159.681 714.458 165.557C724.386 191.223 736.01 216.203 745.002 242.213L744.459 243.146H729.754ZM697.006 152.98L677.87 201.158L678.624 202.049L715.805 202.193C716.843 201.856 716.536 199.893 716.276 199.026C710.877 185.606 704.621 172.312 700.17 158.531C699.524 156.52 699.73 152.089 697.006 152.98Z" fill="white"/>
<path d="M350.117 29.0192V37.6408C350.117 37.7552 349.495 38.7366 349.313 38.845C341.529 38.8992 333.582 38.6162 325.78 37.8275C318.401 38.5078 309.591 36.9846 302.392 37.8215C299.439 38.1646 300.985 41.8072 301.022 43.6435C301.191 51.9942 300.865 60.3751 301.003 68.7258C304.156 68.7017 307.326 68.7439 310.484 68.7378C330.146 68.6957 357.303 69.2978 355.775 96.2104C354.223 123.581 318.558 124.056 298.371 123.274C295.961 123.183 293.34 122.557 290.792 122.798L290.309 122.479C289.512 121.341 290.514 115.886 290.55 114.248C291.136 90.6472 291.172 66.8594 290.52 43.2702C290.387 38.5018 290.665 33.7635 290.134 29.0192H350.123H350.117ZM340.316 84.0967C333.425 77.1006 313.347 75.7098 304.023 76.7394C302.7 76.8839 300.955 77.2632 300.985 78.9249C301.275 90.4486 300.206 102.213 302.308 113.532C302.658 113.881 307.223 114.417 308.051 114.429C316.928 114.562 333.619 114.146 340.249 107.608C346.185 101.755 346.161 90.0331 340.316 84.0967Z" fill="white"/>
<path d="M664.337 122.852C663.884 122.852 663.232 123.725 662.622 122.202C663.884 110.136 663.225 97.8902 663.316 85.7404C663.388 75.9988 663.455 66.3175 663.316 56.5038C663.189 47.3402 663.914 38.0804 662.531 29.0192C665.683 28.9891 668.848 29.0433 672.006 29.0372C673.135 29.0372 674.5 28.1642 675.43 29.2901C674.983 34.2271 675.152 39.128 675.025 44.077C674.85 51.043 673.703 60.9952 674.59 67.7384C674.808 69.3821 675.321 69.4001 676.801 69.5446C689.748 70.809 704.742 68.5331 717.912 69.5446C718.987 69.653 719.73 69.1533 720.292 68.3104C720.612 60.4112 720.352 52.3856 720.117 44.4443C719.996 40.4585 719.784 36.4548 719.718 32.4149C719.706 31.5118 719.144 30.4822 719.356 29.7116C719.845 27.8873 722.484 29.0974 723.927 29.0433C725.443 28.9891 731.288 27.9656 732.001 28.9891C732.659 30.41 731.826 31.9091 731.777 33.2277C730.805 61.8441 731.053 89.6418 731.759 118.252C731.802 119.926 732.586 120.835 731.62 122.587C731.047 122.978 730.237 122.846 729.966 122.846H719.7C719.066 121.6 719.7 120.636 719.718 119.45C719.772 115.832 719.609 112.207 719.682 108.589C719.863 99.7747 721.01 88.5039 720.28 79.8702C720.231 79.2681 720.008 78.2626 719.537 77.8833L717.912 77.504C704.742 78.383 690.219 76.4143 677.211 77.504C676.414 77.5702 675.671 77.5883 675.007 78.1121L675.46 121.829L675.357 122.364C675.061 122.419 674.56 122.828 674.415 122.828C671.058 122.828 667.706 122.84 664.349 122.828L664.337 122.852Z" fill="white"/>
<path d="M367.514 182.517C368.414 184.071 371.572 182.999 372.852 182.981C393.559 182.728 421.47 185.221 421.416 212.067C421.35 243.248 382.508 245.121 359.591 243.543C358.873 243.495 355.334 243.05 355.129 242.773C356.934 215.384 355.878 187.822 356.185 160.325L354.923 144.761C355.153 143.545 360.038 144.515 361.167 144.503C362.508 144.491 368.076 143.232 368.589 144.761L367.52 182.517H367.514ZM404.314 200.405C397.225 193.626 379.477 191.362 370.026 192.602C368.148 192.849 367.569 194.306 367.411 196.01C367.055 199.863 367.798 203.939 367.852 207.642C367.949 214.782 367.037 224.145 367.828 230.924C368.178 233.934 370.672 233.784 373.251 233.94C383.112 234.554 400.812 233.549 406.639 224.253C411.114 217.112 410.534 206.347 404.32 200.405H404.314Z" fill="white"/>
<path d="M564.124 238.564C562.397 240.298 557.704 244.019 555.434 244.585C552.535 245.301 553.888 242.399 553.828 241.34C553.659 238.353 553.042 235.265 553.507 232.2C557.046 229.377 559.963 226.481 562.542 222.754C574.311 205.715 586.618 174.817 591.624 154.684C592.439 151.408 592.874 147.91 593.339 144.569L633.557 144.268C634.439 144.906 633.551 146.875 633.515 147.892C632.639 176.075 632.657 203.969 633.551 232.098C633.666 235.777 633.648 239.485 633.756 243.164C633.177 244.019 631.74 243.17 630.912 243.146C628.913 243.08 626.866 243.098 624.861 243.128C623.382 243.146 621.83 244.242 620.695 242.484C621.975 233.079 621.31 223.543 621.437 214.06C621.631 199.959 622.144 185.726 621.872 171.554C621.788 167.05 622.047 158.754 621.425 154.756C621.298 153.931 620.978 153.022 620.042 152.926C614.656 153.461 607.923 152.215 602.711 152.907C602.162 152.98 601.648 152.986 601.292 153.497C597.095 170.253 591.848 186.786 585.012 202.645C580.205 213.807 572.626 230.021 564.118 238.57L564.124 238.564Z" fill="white"/>
<path d="M527.897 61.7478C526.001 64.1501 522.36 66.6788 519.697 68.208C518.477 68.9064 516.484 68.9064 515.995 70.8752C516.182 71.977 523.773 73.7049 525.331 74.4334C539.335 80.9659 539.637 103.032 529.926 113.484C519.364 124.845 503.338 125.579 488.808 124.448C486.26 124.249 471.157 121.642 470.046 120.275C469.17 119.197 470.312 118.499 470.469 117.415C470.704 115.814 470.547 112.364 470.952 111.082C471.097 110.618 471.429 110.401 471.906 110.389C475.016 111.491 478.132 112.641 481.344 113.442C495.203 116.88 523.561 119.161 525.645 99.3953C526.84 88.0403 519.425 82.5313 509.461 79.822C501.109 77.5522 491.985 78.5877 483.374 78.3409C483.802 76.625 483.639 69.5687 484.986 68.9185C489.75 68.6355 494.515 69.4182 499.298 69.1352C511.224 68.4368 522.372 63.5058 521.212 49.6763C519.823 33.029 493.682 35.2205 482.268 37.7372C480.421 38.1466 479.793 38.3573 478.15 38.851C477.564 39.0256 474.291 40.019 474.116 39.8444L475.686 30.3859C476.381 29.4828 484.34 28.0438 485.994 27.8211C499.316 26.069 521.979 24.5819 529.588 38.1165C533.405 44.9018 532.752 55.5826 527.897 61.7478Z" fill="white"/>
<path d="M194.293 144.527C194.661 144.9 193.58 151.553 193.387 152.6C192.56 157.188 191.696 154.949 188.357 154.244C183.737 153.269 177.457 152.504 172.783 152.926C125.439 157.212 127.389 235.138 180.41 235.102C187.022 235.102 193.133 234.934 199.317 232.333L199.963 233.308C199.142 235.927 199.782 239.522 199.063 242.056C198.93 242.526 198.526 242.929 198.055 243.062C194.54 243.309 191.159 244.356 187.662 244.741C177.523 245.855 164.83 245.247 155.258 241.737C126.707 231.255 118.965 194.402 133.03 169.476C138.199 160.313 144.745 153.654 154.183 148.843C166.599 142.522 180.796 141.841 194.281 144.521L194.293 144.527Z" fill="white"/>
<path d="M541.297 144.545C541.617 144.918 540.367 153.142 540.12 154.316C540.023 154.774 540.017 155.141 539.467 155.292C535.615 154.81 531.714 153.263 527.843 152.932C501.55 150.71 484.539 170.319 485.765 195.649C487.184 224.957 512.009 240.13 539.836 234.235C542.221 233.73 544.558 232.616 546.937 232.357C547.843 232.995 546.14 240.112 546.49 241.659C545.645 243.688 543.978 242.881 542.439 243.236C505.62 251.81 472.522 233.886 473.385 193.62C473.778 175.238 486.097 155.382 503.012 147.82C514.624 142.624 528.93 141.793 541.297 144.539V144.545Z" fill="white"/>
<path d="M436.724 144.557L449.581 144.28C450.468 144.888 449.575 146.875 449.538 147.898C448.615 178.02 448.615 208.033 449.538 238.155C449.587 239.768 450.438 241.49 449.78 243.176C449.17 244.055 447.171 243.17 446.151 243.134C444.599 243.086 436.972 243.501 436.44 242.773L437.497 225.722C437.545 200.297 437.721 174.895 436.658 149.53C436.591 147.886 436.682 146.194 436.724 144.557Z" fill="white"/>
<path d="M47.2372 186.87C35.7515 199.99 12.9492 189.453 16.0713 172.065C18.5955 157.989 35.7334 152.432 46.1804 162.336C52.9016 168.706 53.3303 179.916 47.2433 186.87H47.2372Z" fill="white"/>
<path d="M204.613 4.32822C209.981 9.24112 211.89 16.3335 209.221 23.2092C208.448 25.2081 205.99 29.0493 204.293 30.3197C198.085 34.9857 189.419 36.0393 182.855 31.012C177.173 26.653 174.359 19.2596 176.478 12.2515C180.029 0.505061 195.374 -4.13089 204.613 4.32822Z" fill="white"/>
<path d="M270.61 253.171C271.365 253.393 271.178 254.23 271.039 254.784C270.049 258.698 264.886 266.121 261.915 268.969C239.915 290.071 202.21 273.31 180.506 259.51C176.69 257.084 170.802 253.309 167.559 250.353C167.07 249.907 166.406 249.552 166.545 248.763C167.396 248.751 168.254 248.715 169.111 248.811C171.261 249.046 175.663 249.492 177.481 250.1C179.921 250.919 183.58 254.146 186.056 255.597C204.148 266.199 235.024 280.848 254.276 266.175C256.329 264.61 261.087 259.408 262.132 257.162C262.676 255.988 262.452 254.182 263.769 253.177H270.61V253.171Z" fill="white"/>
<path d="M221.292 164.154C221.37 165.148 221.346 165.96 221.062 166.93C220.67 168.29 216.37 174.678 215.265 176.394C211.908 181.614 207.946 187.292 204.317 192.355C202.046 195.522 199.402 198.484 197.131 201.663C196.624 204.884 200.428 202.958 201.859 202.741C205.392 202.211 208.997 201.91 212.524 201.332C213.387 201.188 216.358 200.182 216.624 200.26C217.469 200.507 217.5 202.904 217.089 203.482C216.944 203.686 212.777 204.565 212.198 204.625C208.007 205.053 203.176 204.746 198.949 205.065C197.801 205.149 195.072 205.45 194.166 205.914C193.496 206.257 188.695 212.651 187.686 213.909C186.817 214.999 185.772 216.703 184.915 217.739C181.309 222.098 177.499 226.282 173.519 230.286L169.739 229.738C169.117 229.359 169.431 228.672 169.739 228.209C170.023 227.781 173.924 225.018 174.83 224.151C178.87 220.249 183.966 214.451 187.475 210.086C188.133 209.267 191.141 207.166 189.498 206.046C188.212 205.167 178.302 206.612 176.007 206.685C168.018 206.943 157.662 207.238 149.805 206.685C148.73 206.606 145.011 206.299 144.793 205.258L145.753 204.282L154.636 205.083C162.704 205.264 170.778 204.969 178.791 204.65C183.779 204.451 188.719 204.987 193.628 203.488C202.161 193.132 209.541 181.969 216.678 170.608C217.826 168.784 218.979 166.701 220.241 164.919C220.579 164.443 220.253 163.937 221.28 164.166L221.292 164.154Z" fill="white"/>
<path d="M284.898 177.388C285.303 177.833 282.67 184.402 282.163 185.281C280.284 188.526 270.592 190.308 267.289 192.524L265.616 192.578L264.409 187.045L271.184 184.775C272.054 184.071 273.159 183.408 274.167 182.933C276.758 181.723 279.373 180.826 281.77 179.369C282.12 179.158 284.451 176.894 284.898 177.388Z" fill="white"/>
<path d="M313.685 128.06C314.615 128.271 315.708 130.408 316.07 131.305C316.505 132.389 318.147 137.464 318.25 138.392C318.504 140.691 313.993 140.288 312.507 140.065C309.735 139.644 311.034 137.832 310.575 135.977C310.219 134.544 308.129 131.594 307.634 130.083C307.417 129.415 307.405 128.752 307.447 128.06C309.252 128.331 312.036 127.693 313.685 128.06Z" fill="white"/>
<path d="M243.345 194.294C243.563 194.276 243.768 194.192 243.992 194.258C244.324 194.354 246.353 198.304 245.465 198.852C242.071 198.551 233.744 203.927 236.383 197.027C236.938 195.57 241.763 194.438 243.345 194.3V194.294Z" fill="white"/>
</g>
<defs>
<filter id="filter0_d_4552_982" x="-30.0078" y="-25.998" width="805.012" height="338.996" filterUnits="userSpaceOnUse" color-interpolation-filters="sRGB">
<feFlood flood-opacity="0" result="BackgroundImageFix"/>
<feColorMatrix in="SourceAlpha" type="matrix" values="0 0 0 0 0 0 0 0 0 0 0 0 0 0 0 0 0 0 127 0" result="hardAlpha"/>
<feOffset dy="4"/>
<feGaussianBlur stdDeviation="15"/>
<feComposite in2="hardAlpha" operator="out"/>
<feColorMatrix type="matrix" values="0 0 0 0 1 0 0 0 0 0.496875 0 0 0 0 0.225962 0 0 0 0.3 0"/>
<feBlend mode="normal" in2="BackgroundImageFix" result="effect1_dropShadow_4552_982"/>
<feBlend mode="normal" in="SourceGraphic" in2="effect1_dropShadow_4552_982" result="shape"/>
</filter>
</defs>
</svg>
