<svg width="29" height="36" viewBox="0 0 29 36" fill="none" xmlns="http://www.w3.org/2000/svg">
<path d="M11.5293 6.39763C11.5391 6.4226 11.5488 6.44632 11.5586 6.46629C11.7347 6.84831 12.0576 7.21784 12.0576 7.21784C12.0576 7.21784 12.0612 7.21535 12.0637 7.2141C12.0637 7.2141 12.1101 7.17914 12.2043 7.12546C12.2361 7.10673 12.2728 7.08676 12.3156 7.06429C12.4171 7.01185 12.5504 6.95193 12.7143 6.89325C13.1031 6.75343 13.6192 6.70849 13.6192 6.70849C13.6192 6.70849 13.1374 6.02435 13.0469 5.03685C12.9955 4.47755 13.0163 4.18292 13.0224 4.16669C12.9894 4.1642 12.9576 4.1617 12.9246 4.1617C12.559 4.1617 12.2239 4.29279 11.9597 4.50876C11.9536 4.51376 11.9463 4.51875 11.9402 4.52499C11.6002 4.81338 11.3837 5.24783 11.3837 5.73472C11.3837 5.87079 11.4021 6.00063 11.4339 6.12672C11.4583 6.20662 11.4938 6.30899 11.528 6.39638L11.5293 6.39763Z" fill="white"/>
<path d="M20.8013 11.1891C20.9591 11.445 20.9517 11.7634 20.9517 11.7634C20.9542 11.7634 21.2697 11.8195 21.4262 11.9793C21.4262 11.9793 21.4507 11.9544 21.4543 11.9506C21.6683 11.6822 22.0609 11.2428 22.1746 10.6048C22.2676 10.0855 22.2076 9.3564 22.1 9.12419C22.0963 9.11545 22.0927 9.10296 22.089 9.09547C22.1905 8.97438 22.3593 8.69473 22.8264 8.69473C22.9976 8.69473 23.1505 8.74217 23.274 8.80209C23.4782 8.90322 23.6042 9.03555 23.6042 9.03555C23.6042 9.03555 23.2019 9.76588 22.9915 10.1142C22.8839 10.2927 22.8056 10.4313 22.5892 10.9182C22.4094 11.3239 22.3605 11.5936 22.3911 11.8845C22.4167 12.1291 22.5439 12.5961 22.599 13.0642C22.7041 13.9643 22.5305 14.4025 22.5305 14.4025C22.5305 14.4025 22.5354 14.4 22.5415 14.395C22.5403 14.3988 22.5378 14.4063 22.5378 14.4063C22.5378 14.4063 23.5822 13.7022 24.2425 12.1291C24.2401 12.1291 24.2376 12.1279 24.2352 12.1266C24.2352 12.1266 24.2352 12.1266 24.2352 12.1254C24.1129 12.1029 24.0151 12.068 23.927 12.023C23.8402 11.9781 23.7632 11.9232 23.6812 11.8595C23.0967 11.4038 23.2288 10.9182 23.4183 10.6897C23.4721 10.6248 23.5284 10.5624 23.5871 10.4987C23.7338 10.3389 23.8928 10.1766 24.0591 9.97811C24.2694 9.72718 24.3465 9.47624 24.3734 9.25527C24.3832 9.17912 24.393 9.10296 24.393 9.02431C24.393 8.36265 24.0787 7.91197 23.6788 7.68725C23.5455 7.6111 23.4036 7.55991 23.2593 7.53494C22.8117 7.45629 22.2627 7.62733 21.8628 7.90697C21.7099 8.01309 21.458 8.24904 21.3883 8.42632C21.3002 8.87201 21.4311 8.98561 21.5632 9.44628C21.5656 9.45502 21.5717 9.46251 21.5742 9.4725C21.8493 10.4975 21.7075 10.9931 20.8025 11.1878L20.8013 11.1891Z" fill="white"/>
<path d="M16.3169 10.2727C16.4343 10.5287 16.6508 10.7759 16.6508 10.7759C16.6508 10.7759 16.652 10.7746 16.6532 10.7746C16.6544 10.7759 16.685 10.8071 16.685 10.8071C16.685 10.8071 16.8036 10.7009 17.1143 10.5786C17.3711 10.4762 17.6988 10.4413 17.6988 10.4413C17.6988 10.4413 17.3772 9.9831 17.316 9.32269C17.2806 8.93942 17.2965 8.74217 17.3001 8.73843C17.2977 8.73843 17.2952 8.73843 17.2928 8.73843V8.73593C17.1289 8.70721 16.9589 8.74092 16.8036 8.81583C16.696 8.877 16.6006 8.94442 16.5211 9.01682C16.3817 9.14291 16.2888 9.28524 16.2533 9.43629C16.1959 9.59734 16.1763 9.77587 16.2105 9.96063C16.213 9.97686 16.2692 10.1666 16.3181 10.274L16.3169 10.2727Z" fill="white"/>
<path d="M17.7465 9.59609C17.8859 9.99184 18.117 10.3252 18.2944 10.3951C18.3213 10.4063 18.3482 10.4138 18.3726 10.4138C18.5573 10.3913 18.8006 10.0118 18.9193 9.5474C19.0293 9.11295 18.9547 8.74966 18.7688 8.5961C18.726 8.56365 18.6796 8.53618 18.6306 8.51371C18.6233 8.50996 18.6135 8.50871 18.6062 8.50497C18.6991 8.42132 18.7615 8.30023 18.7615 8.16415C18.7615 7.95317 18.6258 7.78213 18.4387 7.7272V7.54243H18.748V7.28776H18.4387V6.88576H18.188V7.28776H17.8786V7.54243H18.188V7.7272C18.0021 7.78213 17.8676 7.95317 17.8676 8.16415C17.8676 8.29898 17.925 8.41758 18.018 8.50247C17.9434 8.53618 17.8749 8.57987 17.8162 8.63481C17.6425 8.80459 17.5997 9.17288 17.7477 9.59734L17.7465 9.59609Z" fill="white"/>
<path d="M19.0061 10.4051C19.0061 10.4051 19.5552 10.4088 20.1042 10.6285C20.114 10.6323 20.1214 10.6373 20.1299 10.6423C20.2033 10.5461 20.3097 10.3963 20.3818 10.2415C20.4308 10.1354 20.487 9.9444 20.4895 9.92817C20.5237 9.74341 20.5029 9.56488 20.4467 9.40384C20.4112 9.25278 20.317 9.11046 20.1788 8.98436C20.0994 8.91196 20.004 8.84454 19.8964 8.78337C19.8951 8.78337 19.8939 8.78337 19.8927 8.78212C19.8927 8.78212 19.8915 8.78212 19.8902 8.78087C19.7337 8.70597 19.5649 8.67226 19.4011 8.70097C19.4047 8.70347 19.4206 8.90197 19.3852 9.28524C19.324 9.94565 19.0024 10.4038 19.0024 10.4038C19.0024 10.4038 19.0073 10.4038 19.011 10.4038V10.4063L19.0061 10.4051Z" fill="white"/>
<path d="M15.4266 6.70973C15.4266 6.70973 15.9427 6.75343 16.3316 6.8945C16.4955 6.95318 16.6275 7.0131 16.7303 7.06554C16.7731 7.08801 16.8097 7.10798 16.8415 7.12671C16.9357 7.18039 16.9822 7.2166 16.9822 7.2166L16.9883 7.22034C16.9883 7.22034 17.3111 6.85081 17.4872 6.46879C17.497 6.44757 17.5068 6.42385 17.5166 6.40013C17.5521 6.31274 17.5863 6.21036 17.6107 6.13047C17.6425 6.00437 17.6609 5.87454 17.6609 5.73846C17.6609 5.25157 17.4444 4.81712 17.1045 4.52874C17.0984 4.52374 17.091 4.51875 17.0849 4.51251C16.8208 4.29528 16.4857 4.16545 16.12 4.16545C16.087 4.16545 16.0552 4.16794 16.0222 4.17044C16.0283 4.18667 16.0491 4.4813 15.9977 5.04059C15.9072 6.0281 15.4254 6.71223 15.4254 6.71223L15.4266 6.70973Z" fill="white"/>
<path d="M15.7678 8.22907C15.7678 8.22907 15.8278 8.53743 15.8644 8.67476C15.8669 8.67476 15.9011 8.676 15.9011 8.6785C16.131 8.58487 16.5811 8.44629 16.5811 8.29274V7.80086C16.5811 7.71222 16.493 7.62858 16.3377 7.55492C16.0198 7.40386 15.4242 7.29899 14.7467 7.28526H14.3542C13.6559 7.2915 13.0285 7.39887 12.7008 7.55492C12.5443 7.62858 12.4538 7.71222 12.4538 7.80086V8.29274C12.4538 8.44629 12.9087 8.58362 13.1386 8.6785C13.1386 8.67725 13.1753 8.67476 13.1777 8.67476C13.2144 8.53618 13.2756 8.22907 13.2756 8.22907C13.2756 8.22907 13.2267 8.20909 13.2169 8.18787C13.1887 8.1267 13.2401 8.09049 13.3245 8.0418C13.4089 7.99436 13.5495 7.96565 13.6681 7.96191C13.7403 8.23156 13.7513 8.65478 13.7354 9.01932C13.7036 9.7484 13.5691 10.6635 13.1459 11.2865C13.3074 11.4463 13.4847 11.6522 13.6657 11.9182C14.1047 11.0592 14.1732 10.1192 14.2099 9.1504C14.2258 8.72344 14.2099 8.22532 14.2099 7.88325C14.2514 7.88325 14.386 7.86578 14.5217 7.86578C14.6574 7.86578 14.7907 7.88201 14.8311 7.88325C14.8311 8.22407 14.8152 8.72344 14.8311 9.1504C14.869 10.1354 14.9375 11.093 15.3973 11.9644C15.5636 11.7159 15.7275 11.5149 15.8791 11.3564C15.8901 11.3414 15.8999 11.3264 15.9109 11.3114C15.4743 10.6885 15.3374 9.75714 15.3056 9.01932C15.2897 8.65603 15.3007 8.23281 15.3728 7.96191C15.4915 7.9669 15.6309 7.99436 15.7165 8.0418C15.8021 8.09049 15.8522 8.12545 15.8241 8.18787C15.8143 8.20785 15.7654 8.22907 15.7654 8.22907H15.7678Z" fill="white"/>
<path d="M21.6842 15.1116C21.6842 15.1116 21.6806 15.1091 21.6781 15.1079C21.672 15.1079 21.6647 15.1054 21.6586 15.1054H21.6475C21.6219 15.1091 21.5986 15.1116 21.5754 15.1141C21.3247 15.1304 21.0801 15.1104 20.8783 15.0305C20.7646 14.9918 20.6656 14.9256 20.5702 14.857C20.5482 14.8382 20.2926 14.6073 20.2461 14.5636C20.0614 14.3863 19.7117 14.1279 19.3509 14.0917C18.9437 14.0505 18.6832 14.2028 18.3922 14.3201C18.3653 14.3314 18.3445 14.3588 18.342 14.39C18.3396 14.425 18.3604 14.455 18.3897 14.4687C18.3995 14.4749 18.4105 14.4787 18.4228 14.4799C18.7114 14.5012 18.9877 14.5511 19.2482 14.6297C19.4414 14.6897 19.6347 14.7533 19.7863 14.8632C19.9868 15.008 20.1593 15.1928 20.2742 15.2677C20.4234 15.3638 20.5555 15.4574 20.7267 15.4924C20.9065 15.5236 21.0936 15.5111 21.2697 15.4637C21.277 15.4612 21.2856 15.4587 21.2929 15.4562C21.3394 15.445 21.3846 15.4262 21.4286 15.4088C21.4898 15.3838 21.5485 15.3563 21.6035 15.3226C21.606 15.3214 21.6084 15.3201 21.6109 15.3189C21.6463 15.2976 21.6842 15.2802 21.7172 15.254C21.7172 15.254 21.7197 15.254 21.7209 15.2515C21.7417 15.2352 21.7539 15.209 21.7515 15.1803C21.749 15.1428 21.7209 15.1154 21.6867 15.1091L21.6842 15.1116Z" fill="white"/>
<path d="M20.5653 12.3651C20.5836 12.4238 20.6448 12.4862 20.7145 12.5274C20.9321 12.656 21.0092 12.8457 20.6839 12.8844C20.4467 12.9132 20.1984 12.7521 19.3216 12.998C18.8067 13.1429 18.2002 13.6722 17.9899 13.9169C17.925 13.993 17.8578 14.0804 17.7954 14.1728C17.5924 14.4724 17.5936 14.8769 17.8138 15.1641C17.9446 15.3351 18.0914 15.4462 18.1342 15.4762C18.9046 16.0092 19.6273 15.5673 19.7068 15.4874C19.7704 15.4225 19.7741 15.3975 19.7618 15.3813C19.7606 15.3788 19.7582 15.38 19.7569 15.3788C19.7569 15.3788 19.7569 15.3788 19.7557 15.3788C19.7545 15.3763 19.5111 15.5111 19.1687 15.5111C18.9755 15.5111 18.7762 15.4762 18.6123 15.4013C18.4912 15.3451 18.2124 15.1928 18.0485 14.9244C17.9422 14.7496 17.9642 14.5249 18.0926 14.3676C18.2222 14.209 18.3787 14.0605 18.5255 13.9493C18.8557 13.7009 19.236 13.5511 19.6762 13.5449C19.6872 13.5449 19.697 13.5436 19.708 13.5436C19.9294 13.5436 20.1422 13.5836 20.3415 13.6497C20.4418 13.6834 20.5396 13.7246 20.6325 13.7733C20.915 13.9206 21.1596 14.1329 21.3467 14.3925C21.3467 14.3925 21.3467 14.39 21.3479 14.39C21.3492 14.3925 21.3516 14.3938 21.3528 14.3963C21.425 14.2714 21.5057 14.0842 21.5742 13.8208C21.5864 13.7746 21.5986 13.7271 21.6096 13.6759C21.7075 13.2352 21.6793 12.2128 20.7255 12.2128C20.7084 12.2128 20.69 12.2203 20.6729 12.2253C20.5714 12.2527 20.5469 12.3089 20.5653 12.3676V12.3651Z" fill="white"/>
<path d="M4.90359 9.98061C5.07113 10.1791 5.22888 10.3402 5.37563 10.5012C5.43311 10.5649 5.48936 10.6273 5.54439 10.6922C5.73517 10.9207 5.86602 11.4051 5.28147 11.862C5.19954 11.9257 5.12249 11.9806 5.03567 12.0255C4.94884 12.0705 4.85101 12.1042 4.7275 12.1279V12.1291C4.72505 12.1291 4.7226 12.1304 4.72016 12.1316C5.38052 13.7047 6.42488 14.4088 6.42488 14.4088C6.42488 14.4088 6.42244 14.4013 6.42121 14.3975C6.42733 14.4013 6.43222 14.405 6.43222 14.405C6.43222 14.405 6.25857 13.9656 6.36374 13.0667C6.41877 12.5973 6.54595 12.1304 6.57163 11.887C6.60343 11.5961 6.55451 11.3264 6.37352 10.9207C6.15707 10.4338 6.0788 10.2952 5.97119 10.1167C5.76085 9.76837 5.35851 9.03805 5.35851 9.03805C5.35851 9.03805 5.48447 8.90571 5.6887 8.80459C5.81221 8.74467 5.96507 8.69723 6.13628 8.69723C6.6022 8.69723 6.77096 8.97687 6.87369 9.09797C6.87002 9.10546 6.86635 9.11795 6.86268 9.12668C6.75506 9.35889 6.69514 10.088 6.78808 10.6073C6.90181 11.2453 7.29436 11.6847 7.50837 11.9531C7.51204 11.9581 7.5365 11.9818 7.5365 11.9818C7.69303 11.822 8.00854 11.7671 8.01098 11.7659C8.01098 11.7659 8.00365 11.4463 8.1614 11.1916C7.25523 10.9968 7.1146 10.5012 7.38975 9.47624C7.3922 9.46626 7.39831 9.46001 7.40076 9.45003C7.53283 8.98936 7.66368 8.87575 7.57563 8.43006C7.5047 8.25279 7.25401 8.01684 7.10115 7.91072C6.70003 7.63232 6.15217 7.46004 5.70459 7.53869C5.56029 7.56366 5.41843 7.61484 5.28514 7.691C4.88525 7.91696 4.57096 8.36639 4.57096 9.02806C4.57096 9.10671 4.58197 9.18411 4.59053 9.25902C4.61743 9.47999 4.69448 9.73092 4.90482 9.98186L4.90359 9.98061Z" fill="white"/>
<path d="M11.2639 10.4413C11.2639 10.4413 11.5916 10.4775 11.8484 10.5786C12.1591 10.7022 12.2777 10.8071 12.2777 10.8071C12.2777 10.8071 12.3083 10.7759 12.3095 10.7746L12.3119 10.7759C12.3119 10.7759 12.5272 10.5287 12.6458 10.2727C12.6947 10.1666 12.7509 9.97561 12.7534 9.95938C12.7876 9.77462 12.7668 9.59609 12.7106 9.43505C12.6751 9.28399 12.581 9.14167 12.4428 9.01557C12.3633 8.94317 12.2679 8.87575 12.1603 8.81458C12.0038 8.73967 11.835 8.70597 11.6711 8.73468V8.73718C11.6711 8.73718 11.6662 8.73718 11.665 8.73718C11.6687 8.73967 11.6846 8.93817 11.6491 9.32144C11.588 9.98186 11.2663 10.44 11.2663 10.44L11.2639 10.4413Z" fill="white"/>
<path d="M10.5889 10.4138C10.6133 10.4138 10.6402 10.4063 10.6671 10.3951C10.8457 10.3252 11.0756 9.99309 11.215 9.59609C11.363 9.17288 11.3202 8.80334 11.1465 8.63356C11.0866 8.57863 11.0144 8.53743 10.9386 8.50497C11.0315 8.42132 11.0951 8.30023 11.0951 8.1629C11.0951 7.95192 10.9594 7.78088 10.7723 7.72595V7.54119H11.0817V7.28651H10.7723V6.88451H10.5216V7.28651H10.2122V7.54119H10.5216V7.72595C10.3357 7.78088 10.2012 7.95192 10.2012 8.1629C10.2012 8.29898 10.2611 8.42008 10.3553 8.50372C10.3479 8.50747 10.3394 8.50872 10.332 8.51121C10.2831 8.53368 10.2367 8.56115 10.1939 8.59361C10.008 8.74716 9.93216 9.11045 10.0434 9.54491C10.1608 10.0093 10.4054 10.3888 10.5901 10.4113L10.5889 10.4138Z" fill="white"/>
<path d="M8.58208 10.2415C8.65301 10.3963 8.7594 10.5474 8.834 10.6423C8.84256 10.6373 8.84989 10.6323 8.85968 10.6285C9.40876 10.4101 9.95784 10.4051 9.95784 10.4051V10.4026H9.96395C9.96395 10.4026 9.64233 9.94565 9.58119 9.28399C9.54572 8.90072 9.56162 8.70347 9.56529 8.69972C9.40142 8.67101 9.23144 8.70472 9.07613 8.77962C9.07613 8.77962 9.07491 8.77962 9.07368 8.78087C9.07246 8.78087 9.07124 8.78087 9.07001 8.78212C8.9624 8.84329 8.86701 8.91071 8.78752 8.98312C8.64811 9.10921 8.55517 9.25153 8.51971 9.40259C8.46223 9.56363 8.44267 9.74216 8.47569 9.92693C8.47813 9.94316 8.53438 10.1329 8.5833 10.2403L8.58208 10.2415Z" fill="white"/>
<path d="M10.5412 14.4799C10.5534 14.4799 10.5644 14.4749 10.5742 14.4687C10.6035 14.455 10.6243 14.425 10.6219 14.39C10.6194 14.3576 10.5986 14.3314 10.5717 14.3201C10.2795 14.2028 10.0202 14.0505 9.61176 14.0917C9.251 14.1279 8.90125 14.3875 8.7166 14.5636C8.67135 14.6073 8.41576 14.8382 8.39253 14.857C8.29714 14.9256 8.19809 14.9918 8.08436 15.0305C7.88258 15.1104 7.63922 15.1304 7.3873 15.1141C7.36407 15.1116 7.34083 15.1091 7.31515 15.1066H7.30415C7.29681 15.1054 7.29069 15.1066 7.28458 15.1079C7.28213 15.1079 7.28091 15.1104 7.27847 15.1116C7.24422 15.1179 7.2161 15.1453 7.21365 15.1828C7.21121 15.2115 7.22343 15.2377 7.24422 15.254C7.24422 15.254 7.24667 15.254 7.24789 15.2564C7.28091 15.2814 7.31882 15.3001 7.35429 15.3214C7.35673 15.3226 7.35918 15.3239 7.36162 15.3251C7.41665 15.3576 7.47535 15.3863 7.5365 15.4113C7.58175 15.4287 7.62577 15.4462 7.67224 15.4587C7.67958 15.4612 7.68814 15.4637 7.69547 15.4662C7.87035 15.5124 8.05745 15.5261 8.23844 15.4949C8.40965 15.4599 8.54172 15.3663 8.69092 15.2702C8.80587 15.1953 8.9783 15.0118 9.17885 14.8657C9.33049 14.7558 9.52371 14.6922 9.71693 14.6322C9.97863 14.5536 10.2538 14.5036 10.5424 14.4824L10.5412 14.4799Z" fill="white"/>
<path d="M7.35306 13.6734C7.36407 13.7246 7.3763 13.7721 7.38853 13.8183C7.45701 14.0804 7.53894 14.2689 7.60987 14.3938C7.61109 14.3913 7.61354 14.39 7.61476 14.3875C7.61476 14.3875 7.61476 14.39 7.61599 14.39C7.80309 14.1304 8.04767 13.9194 8.33016 13.7708C8.4231 13.7221 8.52093 13.6809 8.62121 13.6472C8.82054 13.5798 9.03333 13.5411 9.25467 13.5411C9.26568 13.5411 9.27546 13.5411 9.28647 13.5424C9.72671 13.5499 10.1058 13.6997 10.4372 13.9469C10.584 14.0567 10.7405 14.2065 10.8701 14.3651C10.9985 14.5224 11.0205 14.7471 10.9141 14.9219C10.7503 15.1903 10.4715 15.3426 10.3504 15.3988C10.1853 15.4737 9.98719 15.5086 9.79397 15.5086C9.45156 15.5086 9.20942 15.375 9.20698 15.3763C9.20698 15.3763 9.20698 15.3763 9.20576 15.3763C9.20453 15.3775 9.20209 15.3763 9.20087 15.3788C9.18864 15.395 9.1923 15.4212 9.2559 15.4849C9.33416 15.5648 10.0581 16.0068 10.8285 15.4737C10.8713 15.4437 11.0181 15.3326 11.1489 15.1616C11.3691 14.8744 11.3715 14.4699 11.1673 14.1703C11.1049 14.0779 11.0377 13.9905 10.9728 13.9144C10.7625 13.6697 10.156 13.1404 9.64111 12.9956C8.76429 12.7496 8.51604 12.9107 8.2788 12.8819C7.95351 12.842 8.03055 12.6535 8.24823 12.5249C8.31793 12.4837 8.37908 12.4213 8.39742 12.3626C8.41576 12.3039 8.3913 12.2477 8.2898 12.2203C8.27268 12.2165 8.25434 12.2078 8.23722 12.2078C7.28458 12.2078 7.25645 13.2303 7.35306 13.671V13.6734Z" fill="white"/>
<path d="M18.9462 28.6795V28.6911C18.9462 28.6911 18.9512 28.6911 18.9537 28.6911C18.9512 28.6872 18.9499 28.6834 18.9462 28.6795Z" fill="white"/>
<path d="M15.0219 18.762C15.0537 18.8269 15.1784 18.9293 15.2053 19.1266C15.2078 19.1478 15.6859 18.6097 15.6859 18.6097V18.0916L15.176 18.3113L15.0219 18.762Z" fill="white"/>
<path d="M11.9096 32.3374C12.1407 32.275 12.3511 32.2013 12.5748 32.1139C12.6849 32.0702 12.7962 32.0203 12.9063 31.9641C13.0175 31.9067 13.1276 31.8418 13.234 31.7644C13.3392 31.6895 13.437 31.5946 13.5201 31.4872C13.563 31.4335 13.596 31.3761 13.6265 31.3124C13.6412 31.28 13.6571 31.245 13.6669 31.2151L13.6877 31.1302V31.1277C13.7036 31.0665 13.6669 31.0041 13.607 30.9878C13.5837 30.9816 13.5605 30.9853 13.5397 30.9928C13.5189 30.9991 13.5018 31.0116 13.4871 31.0278C13.4174 31.1114 13.3428 31.1689 13.2621 31.2138C13.1826 31.2563 13.097 31.2875 13.0065 31.3162C12.8207 31.3711 12.6152 31.3998 12.4061 31.4273C12.1994 31.4548 11.9744 31.4785 11.769 31.4985C11.5635 31.5172 11.3532 31.5284 11.1404 31.5359L10.4812 31.5584C10.2526 31.5709 10.0141 31.5833 9.74016 31.647C9.63622 31.672 9.52371 31.7044 9.40876 31.7594C9.36963 31.7781 9.33172 31.7981 9.29258 31.823C9.14339 31.9179 8.99297 32.0727 8.9196 32.2537C8.84256 32.4335 8.834 32.612 8.86335 32.7631C8.89759 32.9154 8.95873 33.0465 9.06512 33.1614C9.10793 33.2063 9.17274 33.2175 9.22655 33.1938C9.24489 33.1876 9.29136 33.1451 9.29136 33.1451C9.48091 32.8318 9.88813 32.6645 9.9664 32.6445C10.2941 32.5659 10.7637 32.5459 11.2162 32.4772C11.4461 32.4435 11.6772 32.3986 11.9084 32.3374H11.9096Z" fill="white"/>
<path d="M9.84289 31.0415C9.83922 31.104 9.88447 31.1564 9.94561 31.1614C9.97129 31.1626 9.99575 31.1564 10.0153 31.1427L10.019 31.1402H10.0214L10.0569 31.1152C10.1095 31.079 10.1621 31.049 10.2146 31.024C10.3773 30.9491 10.5412 30.9217 10.7014 30.9179C10.9227 30.9117 11.1477 30.9392 11.407 30.9853C11.6858 31.0365 12.0013 31.0603 12.307 31.034C12.4623 31.0228 12.6189 30.9916 12.7778 30.9479C12.8573 30.9204 12.938 30.893 13.02 30.8493H13.0212C13.0237 30.8493 13.0249 30.848 13.0261 30.8468C13.1019 30.8031 13.2071 30.7481 13.2597 30.6283C13.2805 30.5821 13.2597 30.5272 13.2144 30.506C13.2071 30.5022 13.201 30.4997 13.1936 30.4985C13.1936 30.4985 12.883 30.4385 12.7571 30.4023L12.3621 30.2987C12.0918 30.2313 11.8338 30.1726 11.5452 30.1227C11.237 30.069 10.8713 30.0715 10.5314 30.2063C10.4886 30.2238 10.4458 30.2425 10.4042 30.265C10.1144 30.4173 9.8649 30.692 9.84166 31.0403L9.84289 31.0415Z" fill="white"/>
<path d="M10.2868 29.9279C10.3003 29.9242 10.4825 29.858 10.5681 29.8293H10.5656C10.5693 29.8293 9.49925 29.4336 10.1058 28.7307L10.1083 28.7032C10.1083 28.7032 10.1046 28.6982 10.1034 28.7007C10.0019 28.687 9.89792 28.697 9.80375 28.7369C9.70837 28.7756 9.62399 28.8406 9.55551 28.9279C9.26446 29.2962 9.66312 29.6945 9.67413 29.702C9.61421 29.697 9.47113 29.6757 9.41243 29.6695C9.1544 29.4897 8.72516 29.044 9.34028 28.104C9.32438 28.1015 9.3097 28.1015 9.29381 28.1002C9.20453 28.0965 9.11771 28.1127 9.03577 28.1502C8.98808 28.1664 8.94161 28.1851 8.89881 28.2076C8.59675 28.3587 8.39008 28.6508 8.39008 28.9891C8.39008 29.1277 8.42677 29.2563 8.48791 29.3736C8.53194 29.4585 8.59186 29.5347 8.66157 29.6021C8.61632 29.5983 8.42065 29.5859 8.37296 29.5721C8.09169 29.2413 7.77985 28.6233 8.3803 27.8992C8.3644 27.8967 8.34973 27.8967 8.33383 27.8955C8.24578 27.8918 8.15773 27.908 8.0758 27.9454C8.02199 27.9654 7.97063 27.9904 7.92416 28.0178C7.59153 28.2113 7.43011 28.5821 7.43011 28.888C7.43011 29.0266 7.47902 29.2513 7.52794 29.3736C7.92171 30.3586 9.78419 30.0603 10.288 29.9304L10.2868 29.9279Z" fill="white"/>
<path d="M19.7569 31.823C19.7178 31.7981 19.6787 31.7781 19.6408 31.7594C19.5258 31.7044 19.4133 31.672 19.3094 31.647C19.0354 31.5821 18.797 31.5709 18.5683 31.5584L17.9091 31.5359C17.6964 31.5284 17.4872 31.5172 17.2806 31.4985C17.0751 31.4772 16.8501 31.4548 16.6434 31.4273C16.4343 31.3998 16.2289 31.3711 16.043 31.3162C15.9513 31.2875 15.8669 31.2563 15.7874 31.2138C15.7067 31.1689 15.6321 31.1114 15.5624 31.0278C15.5489 31.0116 15.5306 30.9991 15.5098 30.9928C15.489 30.9841 15.4658 30.9816 15.4425 30.9878C15.3826 31.0028 15.3459 31.0652 15.3606 31.1277V31.1302L15.3826 31.2151C15.3936 31.2463 15.4095 31.28 15.423 31.3124C15.4536 31.3749 15.4866 31.4335 15.5294 31.4872C15.6125 31.5946 15.7104 31.6895 15.8155 31.7644C15.9219 31.8418 16.032 31.9067 16.1433 31.9641C16.2533 32.0215 16.3634 32.0702 16.4747 32.1139C16.6985 32.2013 16.9076 32.2737 17.1399 32.3374C17.3711 32.3998 17.6034 32.4435 17.8321 32.4772C18.2846 32.5446 18.7529 32.5659 19.0819 32.6445C19.1614 32.6645 19.5674 32.8318 19.7569 33.1451C19.7569 33.1451 19.8034 33.1863 19.8218 33.1938C19.8756 33.2175 19.9404 33.2063 19.9832 33.1614C20.0896 33.0477 20.1507 32.9154 20.185 32.7631C20.2155 32.612 20.2057 32.4323 20.1287 32.2537C20.0553 32.074 19.9061 31.9192 19.7557 31.823H19.7569Z" fill="white"/>
<path d="M16.0222 30.8468C16.0222 30.8468 16.0246 30.8468 16.0271 30.8493H16.0283C16.1115 30.8942 16.1922 30.9204 16.2717 30.9479C16.4307 30.9916 16.5872 31.0228 16.7425 31.034C17.0482 31.059 17.3637 31.0365 17.6425 30.9854C17.9018 30.9379 18.1268 30.9104 18.3482 30.9179C18.5096 30.9217 18.6735 30.9491 18.8349 31.0241C18.8875 31.049 18.94 31.079 18.9926 31.1152L19.0281 31.1389H19.0305L19.0354 31.1414C19.055 31.1551 19.0795 31.1626 19.1051 31.1601C19.1663 31.1564 19.2115 31.1027 19.2079 31.0403C19.1846 30.692 18.9352 30.4173 18.6453 30.265C18.6037 30.2425 18.5609 30.2226 18.5181 30.2063C18.177 30.0703 17.8125 30.069 17.5044 30.1227C17.2145 30.1726 16.9577 30.2313 16.6875 30.2987L16.2925 30.4023C16.1665 30.4398 15.8559 30.4985 15.8559 30.4985C15.8486 30.4985 15.8412 30.5022 15.8351 30.506C15.7899 30.5272 15.7691 30.5821 15.7899 30.6283C15.8424 30.7469 15.9488 30.8031 16.0234 30.8468H16.0222Z" fill="white"/>
<path d="M21.1241 28.0141C21.0764 27.9866 21.0263 27.9617 20.9725 27.9417C20.8906 27.9055 20.8037 27.888 20.7145 27.8918C20.6986 27.8918 20.6839 27.893 20.668 27.8955C21.2684 28.6196 20.9566 29.2376 20.6753 29.5684C20.6289 29.5821 20.4332 29.5946 20.3867 29.5983C20.4564 29.5309 20.5164 29.4548 20.5604 29.3699C20.6215 29.2525 20.6582 29.1239 20.6582 28.9854C20.6582 28.647 20.4515 28.3549 20.1495 28.2039C20.1055 28.1814 20.0602 28.1627 20.0125 28.1464C19.9306 28.1102 19.8438 28.0927 19.7545 28.0965C19.7386 28.0965 19.7239 28.0977 19.708 28.1002C20.3231 29.0403 19.8939 29.486 19.6359 29.6658C19.576 29.672 19.4341 29.6945 19.3742 29.6982C19.3852 29.6907 19.7826 29.2912 19.4928 28.9242C19.4231 28.8368 19.3399 28.7719 19.2445 28.7332C19.1492 28.6932 19.0464 28.6845 18.9449 28.697C18.9437 28.6945 18.9425 28.702 18.94 28.6995L18.9425 28.7269C19.549 29.4298 18.4802 29.8243 18.4827 29.8256H18.4802C18.5658 29.8555 18.7468 29.9217 18.7615 29.9254C19.2653 30.0553 21.1266 30.3536 21.5216 29.3686C21.5705 29.2463 21.6194 29.0203 21.6194 28.883C21.6194 28.5771 21.4568 28.2064 21.1254 28.0128L21.1241 28.0141Z" fill="white"/>
<path d="M17.6536 21.8831C17.4603 21.5235 17.1901 21.2863 16.8636 21.2352C16.6875 21.2077 16.5077 21.2376 16.3316 21.3126C16.3304 21.3113 16.2974 21.3275 16.2974 21.3275C16.1653 21.3887 16.0357 21.4761 15.9097 21.5872C15.3985 22.0416 14.9632 22.8856 14.7822 23.893C14.6098 24.8556 14.71 25.747 15.0023 26.3362C15.1967 26.7282 15.4768 26.9891 15.8216 27.0428C16.1604 27.0965 16.5089 26.9429 16.8256 26.6421C17.3148 26.1777 17.7281 25.3587 17.9018 24.3849C18.0803 23.3899 17.9691 22.4711 17.6536 21.8831ZM15.3288 23.5959C15.5245 22.8344 15.829 22.4199 15.829 22.4199C16.0039 22.1615 16.1983 21.9692 16.3989 21.8669C16.5603 21.7732 16.7633 21.7645 16.9663 21.8569C17.0702 21.9043 17.1619 21.9792 17.2317 22.0704C17.2317 22.0704 17.2317 22.0704 17.2317 22.0716C17.2451 22.0928 17.2537 22.1078 17.2647 22.1253C17.2781 22.1515 17.2916 22.1765 17.305 22.2039C17.3735 22.3463 17.4212 22.4948 17.4579 22.6658C17.4616 22.6858 17.4652 22.707 17.4689 22.7283C17.541 23.2514 17.5374 23.3275 17.5337 23.8781C17.5337 23.9093 17.519 24.1165 17.5154 24.1477C17.4897 24.3537 17.4102 24.7857 17.173 25.3674C17.102 25.5934 16.9406 25.8006 16.9455 25.8044C16.6667 26.2863 16.235 26.5722 15.939 26.536C15.7165 26.5097 15.593 26.3812 15.5184 26.2963C15.3117 26.0578 15.2958 25.9267 15.2628 25.8206C15.1931 25.5934 15.2041 25.4785 15.1931 25.3612C15.1393 24.7694 15.2029 24.3337 15.2652 23.9355C15.2738 23.8818 15.3007 23.7482 15.3178 23.6621C15.3178 23.6621 15.3227 23.6334 15.3288 23.6047" fill="white"/>
<path d="M15.368 23.5822C15.3728 23.5585 15.3777 23.5385 15.3802 23.5248L15.368 23.5822Z" fill="white"/>
<path d="M28.4897 19.0766C28.464 18.988 28.4041 18.9193 28.3307 18.8806C28.2585 18.8394 28.1705 18.8282 28.0849 18.8532L28.0714 18.8569C27.7021 18.9693 27.3157 19.0879 26.9354 19.1765C26.7458 19.2239 26.5563 19.2701 26.3667 19.3126C26.1784 19.3538 25.9925 19.3862 25.7883 19.4137C25.3908 19.4674 24.991 19.5136 24.5923 19.5485C24.3367 19.5698 24.075 19.5885 23.8194 19.5997C23.8561 19.5897 23.8916 19.581 23.9295 19.5698C24.0408 19.5385 24.1496 19.5061 24.2572 19.4711C24.4724 19.4025 24.684 19.3276 24.8931 19.2502C25.3114 19.0941 25.7174 18.9243 26.1221 18.7433C26.5269 18.566 26.9525 18.365 27.3267 18.1178C27.7046 17.8632 28.0592 17.5972 28.3918 17.2664C28.4946 17.164 28.5202 17.0017 28.4456 16.8694C28.4114 16.8095 28.3625 16.7658 28.305 16.7383C28.2121 16.6909 28.0983 16.6896 28.0017 16.7471L27.9883 16.7546C27.6385 16.9605 27.2668 17.1728 26.8975 17.3538C26.5232 17.5411 26.1686 17.7196 25.7699 17.8582C25.3737 17.9992 24.9702 18.1316 24.5691 18.2464C24.3685 18.3039 24.1667 18.3563 23.9662 18.4037L23.8329 18.4324C23.9344 18.3887 24.0334 18.3426 24.1288 18.2951C24.3477 18.1865 24.5568 18.0704 24.761 17.9506C25.1707 17.7096 25.5608 17.4524 25.9436 17.1853C26.3361 16.9156 26.7262 16.6222 27.0662 16.2876C27.4062 15.9456 27.718 15.5973 27.9932 15.1828C28.0739 15.0604 28.0665 14.8932 27.965 14.7795C27.9345 14.7458 27.8978 14.7196 27.8587 14.7021C27.7449 14.6472 27.6055 14.6622 27.5065 14.7546L27.4942 14.7658C27.1812 15.0567 26.8424 15.3576 26.4988 15.6235C26.1539 15.8944 25.8164 16.1591 25.4385 16.38C25.3676 16.4225 25.2955 16.4612 25.2245 16.5024C24.9102 16.6846 24.5935 16.8594 24.2731 17.0167C24.2107 17.0467 24.1496 17.0754 24.0872 17.1041C23.9711 17.159 23.8537 17.2102 23.7375 17.2589C23.7583 17.2439 23.7803 17.2302 23.8011 17.2152C23.938 17.1166 24.0677 17.013 24.1936 16.9094C24.2633 16.8519 24.333 16.7945 24.4015 16.7358C24.7769 16.41 25.1267 16.0654 25.4618 15.7171C25.4654 15.7121 25.4703 15.7084 25.4752 15.7034C25.8311 15.3339 26.1637 14.9531 26.4462 14.5336C26.725 14.1079 26.9745 13.6809 27.1689 13.194C27.224 13.0567 27.1812 12.8932 27.0577 12.8033C27.0552 12.802 27.054 12.802 27.0515 12.8008C26.9072 12.6972 26.7079 12.7321 26.6064 12.8794L26.5966 12.8932C26.3398 13.2652 26.0573 13.6497 25.7602 14.0005C25.6721 14.1066 25.5816 14.2128 25.4923 14.3176C25.282 14.5623 25.0655 14.7995 24.8308 15.0118C24.7134 15.1179 24.5935 15.2202 24.4749 15.3226C24.2597 15.5086 24.042 15.6897 23.8194 15.8582C23.8537 15.8132 23.8891 15.7671 23.9221 15.7221C24.1056 15.4649 24.2756 15.2028 24.437 14.9393C24.5495 14.7558 24.6583 14.5723 24.7647 14.3863C24.9518 14.0667 25.123 13.7384 25.271 13.4C25.337 13.249 25.4006 13.0967 25.4557 12.9406C25.633 12.435 25.7761 11.9331 25.8519 11.3851C25.8727 11.2353 25.7883 11.0855 25.6428 11.033C25.6428 11.033 25.6428 11.033 25.6415 11.033C25.6391 11.033 25.6379 11.0305 25.6366 11.0305C25.4703 10.9706 25.2881 11.0592 25.2294 11.229L25.2245 11.2453C25.09 11.6335 24.9274 12.0318 24.7513 12.4175C24.7231 12.4787 24.6987 12.5424 24.6693 12.6023C24.4712 13.0193 24.2633 13.43 24.0224 13.8145C24.0077 13.837 23.9943 13.8607 23.9808 13.8832C23.7998 14.1553 23.6103 14.4188 23.4159 14.6759C22.8179 15.3551 21.8114 16.0355 21.2672 16.3064C21.0019 16.4375 20.7316 16.6185 20.4601 16.7533C20.4564 16.7558 20.4515 16.7583 20.4479 16.7596C20.2644 16.8507 20.1079 16.9955 20.015 17.1803C19.9917 17.2277 19.9722 17.2764 19.9563 17.3276C19.9269 17.4175 19.9098 17.5124 19.9098 17.611C19.9098 17.9668 20.0994 18.3076 20.3843 18.4612C20.4797 18.5136 20.5848 18.5448 20.6974 18.5473C20.7157 18.5473 20.7304 18.5448 20.7475 18.5436C20.8453 18.5336 20.8991 18.4899 20.8991 18.4899C20.8991 18.4899 20.8233 18.2814 20.9395 18.1865C20.9591 18.174 20.9786 18.1628 21.0006 18.1528C21.0544 18.1278 21.1144 18.1128 21.1767 18.1128C21.2354 18.1128 21.2917 18.1253 21.343 18.1466C21.4947 18.214 21.6011 18.3688 21.6011 18.5485C21.6011 18.7708 21.4384 18.953 21.2281 18.9817C21.1327 19.0204 20.9493 19.0254 20.8331 19.0254C20.591 19.0254 20.3549 18.9992 20.1263 18.9568C19.812 18.8981 19.5111 18.7957 19.2311 18.6646C18.8911 18.5048 18.2662 18.0367 18.276 18.0105C17.6328 17.4012 17.2255 16.5635 17.1913 15.6372C17.1901 15.5948 17.184 15.5523 17.184 15.5099C17.184 15.3763 17.1937 15.2315 17.2084 15.1016C17.2353 14.8732 17.2855 14.6485 17.3552 14.4325C17.4811 14.0442 17.6707 13.6809 17.9153 13.3688C17.9385 13.3389 18.0485 13.2153 18.1916 13.0705C18.2002 13.0617 18.2087 13.053 18.2173 13.0455C18.2185 13.0442 18.2198 13.043 18.2222 13.0405C18.3787 12.8832 18.5695 12.7072 18.7309 12.5986C18.7309 12.5986 18.7309 12.5986 18.7322 12.5986C18.7211 12.5911 18.7028 12.5748 18.6857 12.5574C18.6649 12.5361 18.6441 12.5137 18.6319 12.5012C18.3359 12.4712 18.2308 12.3276 18.1806 12.2065C18.1794 12.2028 18.1782 12.1991 18.1757 12.1953C18.1721 12.1853 18.1672 12.1753 18.1647 12.1666C18.1488 12.1217 18.1501 11.9831 18.1549 11.9644C18.177 11.8532 18.243 11.7421 18.2992 11.6885C18.3261 11.6585 18.3531 11.631 18.3824 11.6086C18.4717 11.5386 18.5732 11.4999 18.6808 11.4787C18.7077 11.4725 18.7346 11.4675 18.7615 11.465C18.7652 11.465 18.7688 11.4637 18.7725 11.4637C19.0477 11.4338 19.3191 11.5561 19.428 11.8433V11.8458C19.4133 11.857 19.2543 11.887 19.2543 11.887C19.1981 11.7634 19.1039 11.7122 18.9939 11.7197C18.9572 11.7222 18.9193 11.7321 18.8789 11.7484C18.8532 11.7584 18.8312 11.7721 18.8129 11.7883C18.6368 11.9419 18.7908 12.3301 19.0354 12.3564C19.0733 12.3601 19.1137 12.3564 19.1565 12.3401C19.1577 12.3401 19.1602 12.3401 19.1614 12.3389C19.269 12.2952 19.9514 12.1279 20.3611 12.0617C20.4393 12.0492 20.509 12.0393 20.5628 12.0355C20.5641 12.0355 20.5665 12.033 20.5677 12.033C20.6387 11.9157 20.6411 11.1416 20.0443 10.8895C19.5723 10.6897 19.1626 10.6585 18.7921 10.6573C18.4558 10.6573 18.1513 10.6922 17.8382 10.7621C16.6239 11.0343 15.884 11.7534 15.2078 13.3064C14.7492 14.2252 14.5841 15.1066 14.518 15.3488C14.518 15.3488 14.4924 15.3488 14.4508 15.3488C14.3823 15.0892 14.2184 14.2128 13.766 13.3077C13.0885 11.7534 12.3462 11.0355 11.1318 10.7621C10.8188 10.6922 10.5094 10.656 10.1743 10.6573C9.80375 10.6573 9.39408 10.6897 8.92204 10.8895C8.32527 11.1416 8.32771 11.9157 8.39864 12.033C8.39987 12.033 8.40231 12.0355 8.40353 12.0355C8.45612 12.0393 8.52582 12.048 8.60531 12.0617C9.01621 12.1279 9.69736 12.2952 9.80498 12.3389C9.8062 12.3389 9.80865 12.3389 9.80987 12.3401C9.85145 12.3564 9.8918 12.3601 9.93094 12.3564C10.2 12.3264 10.3614 11.8582 10.0899 11.7484C10.0508 11.7321 10.0116 11.7234 9.97496 11.7197C9.8649 11.7109 9.77074 11.7634 9.71448 11.887C9.71448 11.887 9.54695 11.8545 9.53961 11.8445V11.842C9.64967 11.5549 9.92115 11.4338 10.1963 11.4625C10.2 11.4625 10.2036 11.4637 10.2073 11.4637C10.2342 11.4662 10.2611 11.4712 10.288 11.4775C10.4311 11.5062 10.5644 11.5649 10.6708 11.6885C10.727 11.7421 10.7919 11.8532 10.8151 11.9656C10.82 11.9856 10.8212 12.1229 10.8053 12.1678C10.8029 12.1766 10.798 12.1866 10.7943 12.1966C10.7931 12.2003 10.7919 12.2041 10.7894 12.2078C10.7393 12.3301 10.6341 12.4737 10.3382 12.5024C10.3272 12.5149 10.3051 12.5386 10.2844 12.5586C10.266 12.5761 10.2489 12.5923 10.2379 12.5998C10.4115 12.7159 10.6158 12.9082 10.7784 13.073C10.9203 13.2165 11.0303 13.3414 11.0548 13.3713C11.2981 13.6834 11.4889 14.0467 11.6149 14.435C11.6846 14.6522 11.7359 14.8769 11.7616 15.1054C11.7763 15.2352 11.7861 15.3813 11.7861 15.5149C11.7861 15.5586 11.7812 15.6023 11.7787 15.6447C11.7763 15.7221 11.7702 15.7983 11.7616 15.8744C11.6809 16.2627 11.5109 16.8931 11.1966 17.4262C11.1807 17.4499 11.1648 17.4749 11.1477 17.4986H11.1526C11.0328 17.6909 10.8934 17.8669 10.7307 18.0117C10.7405 18.0379 10.1156 18.5061 9.77563 18.6659C9.49558 18.797 9.19597 18.8981 8.88047 18.958C8.65178 19.0005 8.41576 19.0267 8.17363 19.0267C8.05745 19.0267 7.87402 19.0204 7.77863 18.983C7.56829 18.9543 7.40565 18.772 7.40565 18.5498C7.40565 18.37 7.51204 18.2165 7.66368 18.1478C7.71504 18.1253 7.77129 18.1141 7.82999 18.1141C7.89358 18.1141 7.95228 18.1291 8.00609 18.154C8.02688 18.164 8.04767 18.1753 8.06724 18.1877C8.18341 18.2814 8.10759 18.4911 8.10759 18.4911C8.10759 18.4911 8.1614 18.5336 8.25923 18.5448C8.27513 18.546 8.2898 18.5498 8.30937 18.5485C8.42188 18.5448 8.52827 18.5136 8.62243 18.4624C8.90737 18.3101 9.09692 17.968 9.09692 17.6122C9.09692 17.5124 9.07858 17.4175 9.05045 17.3288C9.03455 17.2776 9.01498 17.229 8.99175 17.1815C8.89881 16.9968 8.74228 16.8519 8.55884 16.7608C8.55517 16.7583 8.55028 16.7558 8.54661 16.7546C8.27513 16.6185 8.00365 16.4387 7.7395 16.3076C7.19531 16.0367 6.18764 15.3576 5.59086 14.6772C5.39764 14.42 5.2081 14.1566 5.02588 13.8844C5.01121 13.862 4.99776 13.8382 4.9843 13.8158C4.74217 13.43 4.5355 13.0205 4.33739 12.6035C4.30804 12.5436 4.28358 12.48 4.25546 12.4188C4.07936 12.0343 3.91671 11.6348 3.78219 11.2465L3.7773 11.2303C3.7186 11.0605 3.53639 10.9719 3.37008 11.0318C3.36763 11.0318 3.36641 11.0343 3.36518 11.0343C3.36518 11.0343 3.36518 11.0343 3.36396 11.0343C3.21844 11.0867 3.13406 11.2365 3.15485 11.3863C3.23067 11.9331 3.37374 12.435 3.55107 12.9419C3.6061 13.0967 3.66969 13.2502 3.73572 13.4013C3.88369 13.7384 4.0549 14.0667 4.242 14.3875C4.3484 14.5736 4.45723 14.7571 4.56974 14.9406C4.73116 15.204 4.90115 15.4662 5.08458 15.7234C5.1176 15.7696 5.15307 15.8145 5.18731 15.8594C4.96474 15.6897 4.74829 15.5099 4.53183 15.3239C4.41321 15.2215 4.29337 15.1191 4.17597 15.013C3.94117 14.8008 3.72472 14.5636 3.51438 14.3189C3.42388 14.214 3.33461 14.1091 3.24656 14.0018C2.9494 13.651 2.66569 13.2665 2.4101 12.8944L2.40032 12.8807C2.29882 12.7334 2.09948 12.6984 1.95518 12.802C1.95274 12.8033 1.95151 12.8033 1.94907 12.8045C1.82555 12.8932 1.78275 13.0567 1.83778 13.1953C2.03345 13.6822 2.2817 14.1091 2.56052 14.5349C2.84301 14.9543 3.17564 15.3363 3.5315 15.7046C3.53517 15.7096 3.54006 15.7134 3.54495 15.7184C3.88003 16.0679 4.22978 16.4112 4.60521 16.7371C4.67247 16.7958 4.74339 16.8532 4.8131 16.9106C4.93906 17.0155 5.06869 17.1178 5.20565 17.2165C5.22644 17.2315 5.24845 17.2464 5.26924 17.2602C5.15306 17.2115 5.03567 17.1603 4.91949 17.1054C4.85712 17.0767 4.79476 17.0479 4.73361 17.018C4.41321 16.8607 4.09648 16.6859 3.78219 16.5036C3.71127 16.4624 3.63911 16.4237 3.56819 16.3813C3.19031 16.1603 2.85401 15.8956 2.50793 15.6247C2.16307 15.3588 1.82555 15.0579 1.51249 14.7671L1.50026 14.7558C1.40121 14.6634 1.2618 14.6472 1.14807 14.7034C1.10893 14.7209 1.07347 14.7471 1.04167 14.7808C0.940174 14.8944 0.932836 15.0617 1.01355 15.184C1.28748 15.5973 1.60054 15.9468 1.94051 16.2889C2.28047 16.6235 2.67058 16.9169 3.06313 17.1865C3.4459 17.4537 3.836 17.7121 4.24567 17.9518C4.4499 18.0716 4.66024 18.1877 4.87791 18.2964C4.9733 18.3438 5.07235 18.3887 5.17385 18.4337L5.04056 18.405C4.84 18.3588 4.63945 18.3051 4.43767 18.2477C4.03656 18.1328 3.63178 18.0005 3.23678 17.8594C2.83811 17.7208 2.48225 17.5423 2.10927 17.355C1.73995 17.174 1.36819 16.9618 1.01844 16.7558L1.00499 16.7483C0.908378 16.6909 0.794649 16.6921 0.701708 16.7396C0.645455 16.767 0.595316 16.812 0.561075 16.8707C0.486478 17.003 0.512159 17.1665 0.614882 17.2677C0.947511 17.5985 1.30215 17.8644 1.68003 18.1191C2.05546 18.3663 2.47981 18.5673 2.88459 18.7445C3.28937 18.9268 3.69537 19.0954 4.1136 19.2514C4.32272 19.3288 4.53305 19.4037 4.74951 19.4724C4.85712 19.5073 4.96596 19.5398 5.07724 19.571C5.11515 19.5822 5.15184 19.591 5.18731 19.601C4.93294 19.5897 4.67124 19.571 4.41443 19.5498C4.01577 19.5148 3.61588 19.4686 3.21844 19.415C3.01421 19.3875 2.82833 19.3538 2.64001 19.3138C2.45168 19.2714 2.26213 19.2252 2.07136 19.1777C1.69226 19.0879 1.3046 18.9705 0.935282 18.8582L0.92183 18.8544C0.836227 18.8282 0.748178 18.8407 0.676027 18.8819C0.60143 18.9218 0.542731 18.9892 0.51705 19.0779C0.475472 19.2227 0.535394 19.3738 0.656461 19.4499C1.03067 19.6846 1.41099 19.8581 1.8121 20.0167C2.2071 20.1702 2.64612 20.2689 3.04968 20.355C3.4569 20.4449 3.86535 20.5273 4.27747 20.5985C4.64801 20.6609 5.00876 20.7158 5.39764 20.757C5.16163 20.7857 4.92438 20.8132 4.68836 20.8369C4.30804 20.8744 3.9265 20.9068 3.54495 20.9318C3.44956 20.9393 3.35662 20.9418 3.25757 20.9455L2.98364 20.9505L2.42967 20.9393C2.05913 20.9355 1.67758 20.9081 1.30949 20.8881H1.29726C1.23122 20.8843 1.16763 20.9018 1.11505 20.9343C1.02333 20.988 0.95974 21.0853 0.953626 21.2002C0.946288 21.35 1.03801 21.4811 1.17008 21.5273C1.56141 21.6646 1.94784 21.7458 2.34895 21.8132C2.54951 21.8431 2.75129 21.8619 2.95551 21.8706C3.05701 21.8756 3.15974 21.8781 3.26246 21.8793L3.55718 21.8831C3.95095 21.8918 4.34351 21.8931 4.73728 21.8881C5.00999 21.8843 5.06869 21.8843 5.34261 21.8743L5.37808 21.9954C4.92805 22.1403 4.6211 22.2339 4.16741 22.3625C3.81399 22.4636 3.48014 22.531 3.13161 22.6047C2.78675 22.6833 2.42844 22.747 2.08236 22.8194L2.07258 22.8219C2.04934 22.8269 2.02611 22.8344 2.00532 22.8444C1.86713 22.9043 1.78397 23.0566 1.81577 23.2114C1.84512 23.3562 1.96496 23.4598 2.10193 23.4723C2.48837 23.5073 2.86135 23.496 3.2429 23.4723C3.62199 23.4461 4.00598 23.3587 4.36796 23.2901C4.73239 23.2214 5.26924 23.0916 5.63 23.0142L5.65812 23.1065C5.50771 23.1939 5.18241 23.3712 5.032 23.4561C4.88158 23.541 4.73116 23.6184 4.58075 23.6933C4.43155 23.767 4.28236 23.8394 4.13317 23.9168C4.13317 23.9168 4.1295 23.9193 4.12705 23.9205C3.82622 24.0791 3.5156 24.2314 3.21477 24.3962L3.20988 24.3987C3.05335 24.4848 2.99587 24.6846 3.08025 24.8443C3.14873 24.9729 3.28937 25.0366 3.42388 25.0104C3.77853 24.9417 4.11482 24.8381 4.45601 24.727C4.79476 24.6121 5.12249 24.4511 5.44412 24.3075C5.52972 24.2688 5.86602 24.1215 5.95162 24.0828L6.01032 24.3562C5.95773 24.3937 5.76941 24.5285 5.76818 24.5285L5.39642 24.8568C5.15184 25.079 4.92316 25.3225 4.70671 25.5822C4.59053 25.722 4.60643 25.9305 4.74217 26.0491C4.84489 26.139 4.98797 26.1502 5.1017 26.089C5.10293 26.089 5.10415 26.0878 5.1066 26.0865C5.1066 26.0865 5.10782 26.0865 5.10904 26.0865C5.40621 25.9292 5.6887 25.7532 5.95529 25.556L6.23778 25.3874C6.23778 25.3937 6.39309 26.3425 6.43344 26.7345C6.5594 27.9592 6.52394 29.3686 6.65356 29.5334C6.76118 29.6708 6.97641 29.6395 7.16963 29.6458C7.15618 29.5983 7.15006 29.5559 7.14028 29.5097C7.14028 29.5047 7.14028 29.501 7.14028 29.496C7.00209 28.8393 7.19286 28.3549 7.31148 28.1577C7.31393 28.1539 7.31148 28.1502 7.31393 28.1477C7.31638 28.1439 7.32738 28.104 7.32738 28.0952C7.2858 27.3162 7.18308 26.0603 7.01065 25.084C6.7355 23.5285 6.27446 21.0379 6.14361 20.3325C6.13628 20.2901 6.15095 20.2526 6.17663 20.2264C6.20476 20.2002 6.24634 20.1877 6.28914 20.199C6.75629 20.3201 7.52427 20.39 8.01954 20.4237C8.39008 20.4486 9.27302 20.4461 10.1841 20.1603C9.79764 21.0903 9.57752 22.1565 9.57752 23.2901C9.57752 25.511 10.4225 27.476 11.709 28.6545C11.5562 28.6795 11.4437 28.7007 11.4119 28.712C11.0805 28.8306 10.8212 29.0016 10.6745 29.0877C10.6708 29.0902 10.6683 29.0927 10.6647 29.0952C10.6549 29.1002 10.6439 29.104 10.6353 29.109C10.5852 29.1377 10.5815 29.1951 10.5937 29.2525C10.628 29.4136 10.7148 29.6133 10.8004 29.7319C10.82 29.7581 10.8383 29.7831 10.8701 29.7856C12.0735 29.8468 12.9576 29.9404 13.6669 30.3986C13.6706 30.4011 13.673 30.4023 13.6767 30.4048C13.6962 30.4173 13.7134 30.4323 13.7329 30.446C14.068 30.7157 14.2025 31.2725 13.9298 31.6695C13.8357 31.7681 13.7378 31.8642 13.6412 31.9554C13.311 32.245 12.9539 32.4922 12.5785 32.6782C12.2031 32.8655 11.8093 32.9816 11.4119 33.0403C11.0108 33.1152 10.6109 33.1688 10.0887 33.2949H10.085C10.0679 33.2999 10.052 33.3074 10.0386 33.3174C9.99575 33.3461 9.97129 33.3998 9.98352 33.4547C9.98841 33.4772 9.99942 33.4972 10.0141 33.5134C10.3981 33.9366 10.9655 34.1039 11.5121 34.0727C11.9255 34.0402 12.3278 33.9191 12.6947 33.7394C12.817 33.6794 12.9368 33.6133 13.0506 33.5421C13.5067 33.255 13.898 32.8805 14.194 32.4385C14.2001 32.4298 14.2062 32.4198 14.2123 32.411C14.2123 32.416 14.2099 32.421 14.2086 32.426C14.1414 32.6645 13.9188 33.2899 13.7403 33.4997C13.5605 33.7119 13.3954 33.9142 13.2046 34.0739C13.0628 34.1926 12.9136 34.2937 12.7473 34.3786C12.6922 34.406 12.636 34.4322 12.5785 34.456C12.3388 34.5571 12.0625 34.6233 11.7384 34.6944H11.7347C11.7188 34.6982 11.7041 34.7057 11.6907 34.7156C11.6491 34.7419 11.6259 34.7918 11.6357 34.8442C11.6418 34.8754 11.6589 34.9017 11.6821 34.9179C11.9707 35.1264 12.3339 35.225 12.7118 35.2013C12.9026 35.19 13.0934 35.1426 13.2731 35.0664C13.4517 34.9928 13.6192 34.8904 13.766 34.7656C13.8149 34.7244 13.8552 34.6782 13.8992 34.632C13.9824 34.8005 14.0705 34.9703 14.134 35.1389C14.2184 35.3399 14.2845 35.5408 14.3933 35.7418C14.4178 35.7868 14.4716 35.808 14.4924 35.8043C14.4924 35.808 14.5767 35.7868 14.6012 35.7418C14.7088 35.5408 14.7858 35.3399 14.8702 35.1389C14.9338 34.9703 15.0219 34.8018 15.105 34.632C15.1491 34.6782 15.1882 34.7244 15.2383 34.7656C15.3851 34.8904 15.5526 34.9928 15.7312 35.0664C15.9109 35.1426 16.1017 35.1888 16.2925 35.2013C16.6691 35.2237 17.0335 35.1264 17.3221 34.9179C17.3454 34.9017 17.3625 34.8754 17.3686 34.8442C17.3796 34.793 17.3552 34.7419 17.3136 34.7156C17.3001 34.7057 17.2855 34.6994 17.2696 34.6957H17.2659C16.9418 34.6233 16.6654 34.5583 16.4258 34.456C16.3671 34.4322 16.3108 34.406 16.257 34.3786C16.0907 34.2937 15.9415 34.1926 15.7996 34.0739C15.6089 33.9142 15.4438 33.7119 15.264 33.4997C15.0855 33.2899 14.8629 32.6645 14.7956 32.426C14.7944 32.421 14.7932 32.416 14.792 32.411C14.7981 32.421 14.8042 32.4298 14.8103 32.4385C15.1063 32.8792 15.4976 33.2537 15.9537 33.5421C16.0687 33.6133 16.1873 33.6794 16.3096 33.7394C16.6765 33.9191 17.0788 34.0402 17.4921 34.0727C18.0388 34.1039 18.6062 33.9366 18.9902 33.5134C19.0049 33.4972 19.0159 33.4772 19.0208 33.4547C19.033 33.3998 19.0097 33.3474 18.9657 33.3174C18.9523 33.3074 18.9364 33.2999 18.9193 33.2962H18.9156C18.3922 33.1688 17.9923 33.1152 17.5924 33.0403C17.1937 32.9816 16.8012 32.8655 16.4258 32.6782C16.0503 32.4934 15.692 32.2463 15.3631 31.9554C15.2664 31.8642 15.1686 31.7694 15.0745 31.6695C14.8017 31.2725 14.9363 30.7157 15.2713 30.446C15.2909 30.4335 15.308 30.4173 15.3276 30.4048C15.3313 30.4023 15.3337 30.4011 15.3374 30.3986C16.0467 29.9392 16.9308 29.8468 18.1342 29.7856C18.1659 29.7844 18.1843 29.7581 18.2039 29.7319C18.2895 29.6133 18.3763 29.4136 18.4105 29.2525C18.4228 29.1951 18.4191 29.1377 18.3689 29.109C18.3604 29.104 18.3494 29.1002 18.3396 29.0952C18.3359 29.0927 18.3323 29.089 18.3286 29.0877C18.1831 29.0016 17.9201 28.8306 17.5887 28.712C17.5582 28.7007 17.4481 28.6808 17.3062 28.657C18.5952 27.4785 19.4427 25.5135 19.4427 23.2888C19.4427 22.1565 19.2201 21.0916 18.8349 20.1628C19.741 20.4449 20.6191 20.4474 20.9884 20.4224C21.4837 20.3887 22.2517 20.3188 22.7188 20.1977C22.7616 20.1865 22.802 20.199 22.8313 20.2252C22.857 20.2514 22.8717 20.2901 22.8643 20.3313C22.7335 21.0367 22.2724 23.5273 21.9973 25.0828C21.8249 26.0578 21.7221 27.315 21.6806 28.094C21.6806 28.1027 21.6916 28.1414 21.694 28.1464C21.6952 28.1502 21.694 28.1539 21.6965 28.1564C21.8151 28.3549 22.0059 28.8381 21.8677 29.4947C21.8677 29.4997 21.8677 29.5035 21.8677 29.5085C21.8579 29.5534 21.8518 29.5971 21.8383 29.6445C22.0315 29.6383 22.2468 29.6695 22.3544 29.5322C22.484 29.3674 22.4485 27.9579 22.5745 26.7332C22.6149 26.34 22.7689 25.3924 22.7702 25.3862L23.0527 25.5547C23.3205 25.7507 23.6017 25.9267 23.8989 26.0853C23.8989 26.0853 23.9001 26.0853 23.9014 26.0853C23.9026 26.0853 23.9038 26.0865 23.9062 26.0878C24.02 26.1477 24.1631 26.1377 24.2658 26.0478C24.4027 25.9292 24.4174 25.7207 24.3012 25.5809C24.0848 25.3212 23.8561 25.0778 23.6115 24.8556L23.2398 24.5272C23.2398 24.5272 23.0502 24.3924 22.9976 24.355L23.0563 24.0816C23.1407 24.1203 23.4782 24.2676 23.5638 24.3063C23.8855 24.4498 24.2132 24.6109 24.5519 24.7257C24.8919 24.8369 25.2282 24.9392 25.5841 25.0091C25.7186 25.0354 25.8592 24.9717 25.9277 24.8431C26.0121 24.6833 25.9546 24.4836 25.7981 24.3974L25.7932 24.3949C25.4936 24.2289 25.1817 24.0778 24.8809 23.9193C24.8784 23.9193 24.8772 23.918 24.8748 23.9168C24.7256 23.8394 24.5764 23.767 24.4272 23.6933C24.2768 23.6184 24.1264 23.541 23.9759 23.4561C23.8255 23.3712 23.5002 23.1939 23.3498 23.1065L23.3779 23.0142C23.7387 23.0916 24.2756 23.2214 24.64 23.2901C25.002 23.3587 25.386 23.4461 25.765 23.4723C26.1466 23.496 26.5196 23.5073 26.906 23.4723C27.0442 23.4598 27.1628 23.3575 27.1922 23.2114C27.224 23.0554 27.1408 22.903 27.0026 22.8444C26.9818 22.8344 26.9598 22.8269 26.9354 22.8219L26.9256 22.8194C26.5795 22.747 26.2212 22.6833 25.8763 22.6047C25.5278 22.531 25.194 22.4636 24.8405 22.3625C24.3868 22.2326 24.0799 22.139 23.6299 21.9954L23.6653 21.8743C23.938 21.8843 23.998 21.8843 24.2707 21.8881C24.6632 21.8931 25.057 21.8918 25.4508 21.8831L25.7455 21.8793C25.8482 21.8781 25.9509 21.8756 26.0524 21.8706C26.2567 21.8619 26.4584 21.8431 26.659 21.8132C27.0601 21.7458 27.4465 21.6646 27.8379 21.5273C27.9699 21.4811 28.0617 21.3488 28.0543 21.2002C28.0482 21.0853 27.9846 20.9867 27.8929 20.9343C27.8403 20.9018 27.7767 20.8843 27.7107 20.8881H27.6985C27.3304 20.9093 26.9488 20.9355 26.5783 20.9393L26.0243 20.9505L25.7504 20.9455C25.6525 20.9418 25.5584 20.9393 25.463 20.9318C25.0814 20.9068 24.6999 20.8744 24.3196 20.8369C24.0836 20.8132 23.8463 20.7857 23.6103 20.757C23.998 20.7158 24.3587 20.6609 24.7305 20.5985C25.1426 20.5273 25.551 20.4461 25.9583 20.355C26.3618 20.2701 26.8008 20.1702 27.1958 20.0167C27.597 19.8581 27.9773 19.6846 28.3515 19.4499C28.4713 19.3738 28.5325 19.2227 28.4909 19.0779L28.4897 19.0766ZM14.507 29.0915C14.507 29.0915 14.496 29.0915 14.4911 29.0915C13.0603 29.084 11.7946 28.1027 11.0303 26.6096C11.3862 25.9954 12.1236 24.6558 12.1236 24.6558C12.1933 24.9305 12.6042 26.7469 12.6042 26.7469C12.6042 26.7469 12.0845 26.9754 12.3474 27.139C12.6103 27.3025 13.168 27.1814 13.168 27.1814C13.168 27.1814 13.3098 27.3125 13.4627 27.4223C13.6449 27.5622 13.8503 27.6658 14.0729 27.7257C14.1573 27.7594 14.2148 27.7794 14.2148 27.7794C14.2148 27.7794 14.1622 28.0303 14.2417 28.1614C14.2722 28.2126 14.3016 28.2563 14.4019 28.2563C14.43 28.2563 14.4606 28.25 14.4887 28.2388C14.5755 28.2064 14.6587 28.1352 14.7051 28.0853C14.825 27.9592 14.8678 27.8693 14.9583 27.7469C14.9546 27.7407 14.9583 27.7332 14.9668 27.7232C15.1796 27.6645 15.4046 27.5859 15.6186 27.3125C15.0989 27.1052 14.6587 26.6209 14.4887 25.8206C14.4263 25.5285 14.3921 25.2101 14.3884 24.8743C14.3847 24.5235 14.4129 24.1552 14.4813 23.7769C14.4838 23.7632 14.4862 23.7507 14.4887 23.7382C14.7333 22.4262 15.5306 21.4262 15.7617 21.34C15.6896 21.1715 15.7201 20.7445 15.1613 20.5086C15.0414 20.4574 14.666 20.4349 14.6318 20.2589C14.8079 20.1365 14.9424 19.9068 14.9754 19.6309C15.0194 19.2601 14.8666 18.9281 14.622 18.8095C14.6807 18.6734 14.8238 18.4861 14.8238 18.4861L14.5449 18.1803L14.4887 18.2115L14.1842 18.3775C14.1842 18.3775 14.2759 18.6447 14.2747 18.7882C14.0338 18.8706 13.8552 19.0641 13.8136 19.4075C13.7941 19.576 13.8834 19.8369 14.0717 20.0292C14.1732 20.1328 14.1927 20.2202 14.1304 20.2851C13.9922 20.4262 13.7085 20.3912 13.5617 20.6097C13.47 20.747 13.3587 21.0641 13.3587 21.0641C13.2902 21.2064 12.8842 22.1989 12.6861 22.5485C12.636 22.6359 12.4342 22.9617 12.4342 22.9617C12.4342 22.9617 12.3462 23.0241 12.2471 23.104C12.1676 23.1702 12.0796 23.2476 12.027 23.3175C11.8741 23.5173 11.9353 23.8768 12.0294 24.0279L10.8506 26.2264C10.8041 26.1265 10.7821 26.0703 10.7821 26.0703C10.4507 25.2451 10.2611 24.2975 10.2611 23.2913C10.2611 20.2102 12.0294 17.6834 14.2514 17.5036H14.7663C15.0109 17.5248 15.2506 17.5735 15.4829 17.6497C15.604 17.6884 15.7238 17.7358 15.8412 17.7883C17.53 18.5548 18.7505 20.732 18.7505 23.2926C18.7505 26.491 16.8464 29.0915 14.5058 29.0915H14.507ZM14.0717 22.8094C14.0717 22.8094 13.245 23.129 12.8512 23.2913L13.6559 21.8669C13.6583 21.8743 13.6938 22.0666 14.0215 22.2064C14.0118 22.2576 14.0717 22.8094 14.0717 22.8094Z" fill="white"/>
<path d="M13.2927 2.54874C13.311 2.54874 13.322 2.54249 13.3355 2.54C13.3942 2.63987 13.4969 2.71103 13.6216 2.71103H13.6253C13.7488 2.71103 13.8528 2.64237 13.9115 2.54H14.3603V2.83962C14.0729 2.90953 13.8589 3.17545 13.8589 3.4888C13.8589 3.65609 13.9249 3.80964 14.0228 3.92575C13.9164 3.9657 13.8173 4.02437 13.7317 4.10302C13.4725 4.35646 13.4089 4.89078 13.6302 5.52373C13.7843 5.96068 14.0118 6.32148 14.227 6.53496C14.3248 6.64232 14.4239 6.69101 14.5119 6.69101H14.5352C14.6244 6.69101 14.7223 6.64357 14.8201 6.53496C15.0365 6.32148 15.264 5.96068 15.4169 5.52373C15.6382 4.89078 15.5734 4.35646 15.3154 4.10302C15.2285 4.02313 15.127 3.9632 15.017 3.92325C15.1136 3.80715 15.176 3.65359 15.176 3.49005C15.176 3.17669 14.9632 2.91078 14.677 2.84087V2.54125H15.1283C15.1808 2.64362 15.2885 2.71228 15.412 2.71228H15.4156C15.5416 2.71228 15.6504 2.63987 15.7055 2.53001C15.7177 2.53376 15.7299 2.53875 15.7422 2.53875C15.829 2.53875 15.8999 2.46759 15.8999 2.37895C15.8999 2.29031 15.829 2.21915 15.7422 2.21915C15.7312 2.21915 15.7189 2.2229 15.7067 2.22539C15.6504 2.11803 15.5404 2.04312 15.4156 2.04312H15.412C15.2897 2.04312 15.1808 2.11179 15.1283 2.21541H14.677V1.60867C14.7797 1.54875 14.8445 1.44388 14.8445 1.31529C14.8445 1.18671 14.7712 1.0706 14.6648 1.01567C14.6721 0.999442 14.6746 0.983212 14.6746 0.964486C14.6746 0.877096 14.6036 0.804688 14.518 0.804688C14.4324 0.804688 14.3603 0.878345 14.3603 0.964486C14.3603 0.983212 14.3652 0.998193 14.3713 1.01567C14.2612 1.0706 14.1879 1.18171 14.1879 1.31529C14.1879 1.44887 14.2551 1.54875 14.3578 1.60867V2.21541H13.909C13.8503 2.11179 13.7452 2.04312 13.6229 2.04312H13.6192C13.4896 2.04312 13.3746 2.12302 13.3245 2.23538C13.3135 2.23538 13.3012 2.23164 13.2902 2.23164C13.2059 2.23164 13.1337 2.3003 13.1337 2.39144C13.1337 2.48257 13.2059 2.55123 13.2902 2.55123L13.2927 2.54874Z" fill="white"/>
<path d="M17.4738 23.742C17.4065 23.6746 17.3246 23.6484 17.2573 23.6496C17.2977 23.5647 17.3221 23.4461 17.294 23.3625C17.2855 23.3387 17.2732 23.315 17.2561 23.2951C17.1619 23.1727 17.0825 23.1427 17.0433 23.1353C17.0176 23.129 16.8917 23.1165 16.8269 23.2039L16.8159 23.0953C16.7657 23.139 16.7156 23.2788 16.7046 23.315C16.6777 23.3987 16.6239 23.6072 16.6239 23.6072C16.7804 23.355 16.8636 23.3238 16.9981 23.2888C16.8819 23.3712 16.7877 23.5622 16.7339 23.7358L17.0433 23.5235L16.9736 23.4748C17.0115 23.4124 17.0494 23.3849 17.1179 23.4249C17.1412 23.4386 17.1571 23.4636 17.1619 23.501C17.1656 23.5285 17.1656 23.5984 17.102 23.6808L16.5419 24.1739C16.5004 24.2101 16.4857 24.2464 16.4894 24.3625C16.4906 24.4012 16.5309 24.4449 16.6019 24.3774L17.2023 23.8306C17.2317 23.8069 17.2757 23.8281 17.2879 23.8469C17.3234 23.898 17.3026 24.0067 17.2133 24.144L17.1619 24.0266C17.1106 24.0965 17.0164 24.2726 16.9369 24.36C16.9369 24.36 17.0947 24.3737 17.217 24.2776C17.25 24.2513 17.2793 24.2251 17.3038 24.2002C17.2035 24.4611 16.9773 24.6458 16.9736 24.6471C16.9736 24.6471 17.1289 24.6309 17.2121 24.5872C17.2989 24.541 17.3808 24.4873 17.4493 24.4049L17.3344 24.3675C17.3919 24.2875 17.4823 24.1889 17.5178 24.0266C17.5459 23.8993 17.53 23.8044 17.4701 23.7432L17.4738 23.742Z" fill="white"/>
<path d="M16.1934 23.772L16.2692 23.3874L16.1677 23.4686C16.1677 23.4686 16.0931 23.3625 16.0687 23.3363C15.9708 23.2251 15.8718 23.1777 15.7752 23.1977C15.6639 23.2201 15.6382 23.2976 15.5025 23.2613C15.5086 23.3662 15.4046 23.4087 15.3447 23.4936C15.2872 23.576 15.2872 23.6871 15.3472 23.8244C15.3618 23.8581 15.4303 23.9729 15.4303 23.9729L15.3019 24.0141L15.7067 24.1352C15.7067 24.0928 15.6602 23.8132 15.6602 23.8132L15.5673 23.8843C15.5306 23.8369 15.5147 23.8044 15.4902 23.762C15.4523 23.6958 15.4279 23.6434 15.4474 23.5972C15.4646 23.5572 15.5306 23.5522 15.5636 23.5485L16.0173 24.2776C16.0393 24.3213 16.0821 24.3225 16.0968 24.2938C16.1396 24.2077 16.142 24.1078 16.1213 24.0841L15.7177 23.4511C15.7336 23.4186 15.7788 23.3799 15.8131 23.3737C15.8706 23.3625 15.895 23.3799 15.9501 23.4286C15.9867 23.4611 16.0234 23.5185 16.0393 23.541L15.9329 23.5834C16.0124 23.6384 16.1506 23.7357 16.1946 23.7732L16.1934 23.772Z" fill="white"/>
<path d="M16.2717 22.4611C16.3316 22.551 16.4392 22.6646 16.4893 22.7108C16.4893 22.7108 16.4184 22.7994 16.4086 22.8169C16.3658 22.8931 16.5517 22.9205 16.5652 22.923C16.5872 22.9268 16.7621 22.9655 16.7474 22.8781C16.7437 22.8581 16.6948 22.7545 16.6948 22.7545C16.7572 22.7283 16.9076 22.6546 16.9944 22.5909C17.0054 22.5822 17.0335 22.5622 17.0433 22.5485C17.2133 22.335 17.1546 22.1989 17.1546 22.1989L16.8403 22.3999C16.8122 22.4187 16.7951 22.3999 16.7951 22.3999C16.822 22.3837 16.8623 22.2863 16.8697 22.2626C16.8819 22.2227 16.8697 22.1952 16.822 22.1852C16.7804 22.1765 16.7596 22.1914 16.7596 22.1914C16.7694 22.174 16.7682 22.1752 16.7731 22.1677C16.7743 22.164 16.7767 22.1615 16.778 22.1577C16.7804 22.1515 16.7816 22.1465 16.7828 22.1403C16.7828 22.139 16.7828 22.1378 16.7828 22.1365C16.7828 22.134 16.7841 22.1328 16.7841 22.1303C16.7841 22.0853 16.7486 22.0479 16.7034 22.0479C16.6679 22.0479 16.6385 22.0716 16.6288 22.1041C16.6288 22.1066 16.6263 22.1078 16.6251 22.1103C16.6214 22.1278 16.6202 22.1165 16.6288 22.164C16.6288 22.164 16.6141 22.1453 16.5725 22.1378C16.526 22.1303 16.5138 22.1502 16.5114 22.1914C16.5101 22.2177 16.504 22.2963 16.5248 22.3487C16.5248 22.3512 16.5028 22.36 16.4832 22.3325L16.2558 22.0341C16.2558 22.0341 16.1555 22.1403 16.2423 22.4012C16.2472 22.4162 16.2656 22.4461 16.2741 22.4574L16.2717 22.4611Z" fill="white"/>
<path d="M15.9415 24.9517C15.9757 24.9168 15.9977 24.8731 16.0075 24.8256L16.0246 24.732C16.0344 24.6796 15.977 24.6508 15.9378 24.687L15.4108 25.1989L15.3961 25.2126C15.3838 25.2076 15.3704 25.2039 15.3569 25.2014C15.3337 25.1989 15.3105 25.2014 15.2885 25.2076C15.264 25.2151 15.242 25.2289 15.2212 25.2476C15.1429 25.3212 15.127 25.4548 15.187 25.5472C15.2163 25.5922 15.2591 25.6209 15.308 25.6259C15.3472 25.6309 15.3851 25.6209 15.4181 25.5984C15.4266 25.5922 15.4352 25.5859 15.4438 25.5784C15.4915 25.5335 15.5318 25.4486 15.5098 25.3749L15.9403 24.9505L15.9415 24.9517ZM15.33 25.5098C15.2848 25.5098 15.2469 25.4723 15.2469 25.4249C15.2469 25.3774 15.2836 25.34 15.33 25.34C15.3765 25.34 15.4132 25.3774 15.4132 25.4249C15.4132 25.4723 15.3765 25.5098 15.33 25.5098Z" fill="white"/>
<path d="M16.9308 25.3937C16.9112 25.3912 16.8917 25.3937 16.8721 25.3986L16.482 24.7719C16.4539 24.7282 16.405 24.7357 16.3964 24.7869L16.3817 24.8406C16.3707 24.9055 16.3597 24.9068 16.4233 25.0329L16.7376 25.5222C16.707 25.5959 16.7119 25.6845 16.7547 25.752C16.7853 25.7981 16.8293 25.8269 16.8795 25.8331C16.9296 25.8393 16.9797 25.8219 17.0201 25.7844C17.0201 25.7844 17.0213 25.7819 17.0225 25.7819C17.102 25.7045 17.1167 25.5697 17.0556 25.4761C17.025 25.4299 16.981 25.4011 16.9308 25.3949V25.3937ZM16.9051 25.6895C16.8599 25.6895 16.822 25.6521 16.822 25.6046C16.822 25.5572 16.8587 25.5197 16.9051 25.5197C16.9516 25.5197 16.9883 25.5572 16.9883 25.6046C16.9883 25.6521 16.9516 25.6895 16.9051 25.6895Z" fill="white"/>
<path d="M16.0723 26.0503C16.1873 25.4186 16.4869 23.7745 16.4894 23.7582C16.5114 23.6246 16.5823 23.2688 16.6006 23.0678C16.6116 22.9917 16.4918 22.9455 16.4649 23.0516C16.4282 23.1977 16.3438 23.576 16.3157 23.722C16.3157 23.722 15.9904 25.3812 15.8657 26.0179C15.8583 26.0553 15.84 26.0878 15.818 26.119C15.8033 26.1402 15.7923 26.1664 15.7874 26.1939C15.7727 26.285 15.8265 26.3699 15.906 26.3837C15.9867 26.3974 16.0638 26.3337 16.0772 26.2426C16.0809 26.2214 16.0797 26.2001 16.0772 26.1814C16.0687 26.1377 16.0638 26.094 16.0711 26.0503H16.0723Z" fill="white"/>
<path d="M16.8997 25.1495L16.4975 25.4572C16.477 25.4729 16.4728 25.5027 16.4882 25.5236L16.5095 25.5526C16.5249 25.5736 16.554 25.5778 16.5745 25.5621L16.9767 25.2544C16.9972 25.2387 17.0014 25.209 16.986 25.188L16.9648 25.159C16.9494 25.1381 16.9202 25.1338 16.8997 25.1495Z" fill="white"/>
</svg>
