<svg width="745" height="280" viewBox="0 0 745 280" fill="none" xmlns="http://www.w3.org/2000/svg">
<g clip-path="url(#clip0_4552_981)">
<g filter="url(#filter0_d_4552_981)">
<path d="M111.218 276.759C104.273 278.662 87.5519 283.244 74.0553 274.875C66.525 270.209 62.8534 263.574 60.6553 258.523C52.8955 240.689 56.4403 216.486 60.758 198.063C61.0599 196.768 62.95 195.022 61.229 193.794C59.9609 192.885 52.7204 191.458 53.0465 189.604L55.6915 185.72C57.8111 185.19 62.3099 188.923 63.9223 187.484C66.3015 181.313 68.3728 175.009 70.9333 168.904C73.5662 162.625 76.5674 156.327 79.5083 150.18C80.8549 147.368 82.7752 144.815 83.6388 141.823C75.5771 126.549 68.4393 110.69 63.5116 94.0789L62.793 93.5732C60.9814 93.6936 58.6565 94.7713 56.8328 95.5058C40.0572 102.285 14.9601 116.536 9.97817 135.05C8.03369 142.281 10.57 150.379 14.5918 156.435C15.256 157.441 16.6812 158.073 16.7778 159.5C16.8805 161.114 15.3889 161.818 14.5918 162.908C13.535 164.365 13.5471 166.394 11.204 165.623C9.44072 162.324 6.45758 159.735 4.62784 156.339C-1.53772 144.87 -1.41091 135.176 4.16285 123.863C6.45758 119.197 7.94311 117.548 11.6207 113.941C24.3927 101.412 40.4014 95.3011 57.1045 89.3767C58.3968 88.9191 60.5164 89.0998 61.2592 87.4922C62.0925 85.6981 58.6927 78.8645 58.6927 76.4262C55.5224 57.5452 53.0586 31.0841 66.7061 15.5326C86.791 -7.34009 121.773 9.94539 141.701 24.2145C147.758 28.5554 153.151 33.6309 158.767 38.4956C159.721 38.7846 160.276 38.5739 161.128 38.2006C163.163 37.3096 168.127 31.5236 170.748 29.7295C172.137 28.7782 174.739 32.9506 174.401 33.7513C174.244 34.1246 171.376 36.4546 170.754 36.9664C169.002 38.3933 163.471 41.1086 164.19 43.5049C164.51 44.5766 170.289 49.3871 171.599 50.7779C178.109 57.6897 184.341 65.0771 190.271 72.4766C191.624 74.1624 193.755 78.136 195.633 78.7562C211.25 80.0807 226.733 82.3385 241.92 85.9931C243.617 86.4025 250.381 88.7927 251.268 88.7084C252.983 88.5398 253.231 85.1261 253.491 83.6871C256.045 69.3398 258.968 52.0483 255.815 37.6708C251.449 17.7663 239.994 8.9881 219.456 12.0888C218.562 12.2212 217.608 12.143 216.709 12.0587L216.231 11.7335C216.413 9.56609 213.496 7.46486 215.507 5.75497C224.945 4.05713 235.121 3.70793 243.78 8.3499C266.637 20.6081 265.019 52.8791 261.015 74.7404C260.097 79.7496 258.708 84.6565 257.579 89.6115C257.869 90.2678 258.406 90.6832 259.022 91.0144C262.271 92.7664 268.213 94.1211 271.975 95.7527C276.389 97.6673 280.46 100.389 285.019 102.008C286.788 103.206 285.743 107.632 285.695 109.552C284.294 109.95 283.618 108.324 282.99 107.957C274.904 103.164 266.184 99.7926 257.597 96.0236C255.918 95.5179 255.357 96.4691 254.783 97.8118C251.449 105.554 249.112 114.08 245.634 121.979C243.007 127.933 239.849 133.677 237.162 139.608C235.555 141.48 232.911 141.372 231.588 139.198C228.683 134.412 226.461 128.812 223.617 123.881C216.159 110.943 207.59 98.1308 198.411 86.4567C197.584 85.4091 194.667 80.8393 193.906 80.4962C171.726 78.1722 149.214 77.9614 126.979 79.593C125.904 79.8279 123.513 83.0489 122.667 84.1086C111.031 98.6486 97.0025 120.046 89.0253 136.814C88.4758 137.97 86.8816 141.179 86.8816 142.245C86.8816 143.1 90.0398 149.114 90.6981 150.415C97.3649 163.57 106.193 176.611 114.678 188.682C116.55 191.35 120.246 195.305 121.616 197.81C121.918 198.364 123.102 204.336 122.999 204.704C122.842 205.27 122.232 205.739 121.641 205.793C115.819 204.92 109.787 204.962 103.965 204.162C97.1173 203.216 89.8647 201.633 83.1194 200.062C80.6194 199.484 69.7859 195.907 68.3004 196.335C66.4525 196.859 67.3583 198.538 67.0081 199.893C62.1529 218.587 58.4089 249.456 72.7449 264.935C81.6339 274.532 95.9578 274.002 107.564 269.962C121.484 265.121 134.159 257.553 146.098 249.088C147.269 248.257 149.31 245.933 150.53 245.398C152.613 244.482 154.594 246.608 156.702 247.083L156.339 248.986C149.159 255.88 139.763 263.351 127.83 269.703C122.679 272.449 117.987 274.911 111.206 276.766L111.218 276.759ZM147.45 35.5334C130.946 22.8237 98.7779 2.93126 78.0288 14.768C58.9947 25.6233 61.6879 58.4242 64.8039 76.7513C65.0213 78.0277 66.3378 85.3188 66.6639 85.7282C66.8511 85.963 67.0987 86.1376 67.3885 86.2219C68.8499 86.6554 76.5191 84.0424 78.6749 83.5908C87.8538 81.6582 97.1354 80.6527 106.357 79.0813L125.469 77.6724C133.078 67.967 140.928 57.9847 149.606 49.1945C150.971 47.8097 155.554 44.7632 155.627 42.7884C155.609 42.3007 155.452 41.8793 155.138 41.506C154.147 40.3079 149.111 36.8279 147.444 35.5455L147.45 35.5334ZM163.441 49.2787C162.42 48.4118 161.484 46.148 159.516 46.1721C156.75 48.6405 153.537 51.0007 150.826 53.5956C145.089 59.0745 139.624 65.2577 134.334 71.14C133.404 72.1695 129.714 75.1558 129.557 76.1552C129.104 79.0452 134.141 77.1246 135.729 77.0523C152.644 76.2395 172.33 76.661 188.997 78.5876C193.2 79.0753 188.345 73.9878 187.324 72.8017C180.126 64.4449 171.786 56.329 163.447 49.2727L163.441 49.2787ZM86.7246 137.109C94.4361 122.587 103.12 108.643 112.256 94.976L122.057 82.2542L122.214 81.3571C121.677 80.2072 120.837 80.2252 119.702 80.3095C113.47 80.7671 106.308 83.362 99.9434 83.5125C90.7766 86.0172 80.4866 87.3959 71.5432 90.5086C70.6494 90.8217 69.5444 91.1829 68.8982 91.8994C68.5238 92.6038 69.0733 94.6449 69.3088 95.5239C72.3886 107.144 76.809 118.493 81.3984 129.595C81.9177 130.853 83.7535 136.754 84.2064 137.229C84.8828 137.934 86.006 137.597 86.7367 137.109H86.7246ZM241.304 90.4364C231.099 87.3658 220.398 85.3489 209.915 83.3861C207.216 82.8804 200.911 80.7972 198.604 81.5438L197.91 82.495C197.807 83.7835 199.601 84.7287 200.344 85.7041C210.404 98.9015 219.957 114.176 228.218 128.517C229.009 129.89 232.826 137.783 233.641 137.988C234.173 138.12 234.396 137.922 234.801 137.651C236.443 136.543 239.481 125.874 241.298 123.671C242.621 118.68 244.783 113.971 246.365 109.07C247.379 105.922 249.94 98.9316 250.248 96.0838C250.707 91.8211 245.296 91.6646 242.035 90.6772C241.715 90.5809 241.401 90.4665 241.31 90.4424L241.304 90.4364ZM112.764 189.983C102.981 176.045 94.2428 161.481 86.2234 146.447L84.7982 146.23C79.0614 159.56 73.8077 173.071 70.2871 187.111C69.804 189.032 68.4876 189.941 71.5975 191.091C80.4141 194.354 92.401 196.798 101.719 198.785C106.187 199.736 115.173 202.187 119.255 202.205C119.859 202.205 120.342 202.157 120.62 201.543C121.025 200.206 117.788 197.346 117.033 196.269C115.584 194.197 114.213 192.06 112.758 189.989L112.764 189.983Z" fill="url(#paint0_linear_4552_981)"/>
<path d="M313.081 243.88C312.978 239.943 313.214 235.975 313.099 232.032C312.459 210.435 310.104 188.688 308.636 167.104C308.395 163.534 308.721 159.897 308.19 156.321L307.235 155.635L306.022 156.056C304.548 160.475 303.419 165.19 301.921 169.615C294.325 192.078 283.624 214.343 276.643 236.668C276.136 238.299 275.508 242.514 275.031 243.483C274.898 243.748 274.681 243.941 274.427 244.097L265.568 243.892C265.61 239.81 263.666 236.09 262.476 232.339C255.459 210.17 246.166 188.911 239.517 166.586C238.545 163.323 238.001 159.506 236.902 156.357C236.377 154.852 234.318 155.713 234.167 157.519C234.106 158.26 234.517 158.91 234.487 159.488C233.128 185.588 229.481 211.495 228.949 237.697C228.907 239.654 228.321 241.454 228.955 243.628C228.865 243.995 228.206 244.139 227.874 244.157C225.634 244.26 222.729 243.808 220.259 243.88C218.967 243.917 217.107 245.072 216.835 243.284C216.781 242.917 217.192 239.624 217.288 238.919C220.7 213.699 224.215 188.122 226.117 162.703C226.552 156.899 227.319 151.179 226.962 145.297L246.063 145.237C248.515 160.68 254.65 175.136 259.656 189.838C262.156 197.19 262.772 201.088 265 208.5C266.329 212.919 269.294 222.537 270.671 226.583C271.087 227.811 272.35 229.316 273.002 227.456C273.817 225.12 273.883 222.17 274.536 219.743C277.893 207.208 284.355 193.198 289.053 180.868C292.821 170.976 298.558 158.898 300.575 148.639C300.822 147.38 300.067 145.761 301.203 144.852H318.914L326.36 243.898H313.075L313.081 243.88Z" fill="url(#paint1_linear_4552_981)"/>
<path d="M439.725 36.7376C477.383 65.6611 450.287 139.18 399.725 124.899C372.037 117.078 363.347 86.9444 370.449 61.4225C378.764 31.5236 414.079 17.0378 439.732 36.7316L439.725 36.7376ZM432.074 44.3538C409.888 26.4121 384.006 42.6499 380.353 68.0875C378.016 84.3735 381.59 101.797 395.643 111.72C415.939 126.049 438.687 111.822 443.802 89.9848C447.395 74.644 444.985 54.7997 432.074 44.3598V44.3538Z" fill="url(#paint2_linear_4552_981)"/>
<path d="M619.282 33.5346C647.344 50.3384 648.014 95.8189 623.66 115.958C606.232 130.366 582.192 130.221 565.821 114.357C549.751 98.7811 548.236 70.9232 558.441 51.8014C569.987 30.169 597.415 20.4455 619.276 33.5346H619.282ZM617.585 46.0396C602.699 31.614 582.294 34.5882 570.809 51.2776C560.331 66.51 561.267 96.1801 575.893 108.733C587.125 118.379 600.429 120.853 613.134 112.274C633.346 98.6306 634.596 62.5123 617.585 46.0336V46.0396Z" fill="url(#paint3_linear_4552_981)"/>
<path d="M729.754 243.88C729.718 242.646 729.875 241.394 729.658 240.166C728.776 235.126 725.684 226.908 723.909 221.833C723.323 220.159 720.708 212.085 719.694 211.597L675.104 211.694L673.993 212.994C671.529 221.483 668.207 229.702 665.931 238.245C665.581 239.57 665.279 244.199 663.938 244.29C663.292 244.332 662.38 243.88 661.535 243.856C658.865 243.784 656.118 243.796 653.449 243.856C652.434 243.88 651.444 244.687 650.87 243.64C653.262 237.378 655.544 231.02 658.087 224.819C667.996 200.658 679.905 176.436 688.673 151.83C689.222 150.282 689.73 146.622 690.303 145.532C690.98 144.256 693.709 145.243 694.917 145.255C697.737 145.285 700.587 145.285 703.407 145.255C704.247 145.243 705.008 144.852 705.787 144.864C708.009 144.906 707.351 146.989 707.816 148.446C709.742 154.443 712.182 160.415 714.458 166.291C724.386 191.958 736.01 216.938 745.002 242.947L744.459 243.88H729.754ZM697.006 153.714L677.87 201.892L678.624 202.783L715.805 202.927C716.843 202.59 716.536 200.628 716.276 199.761C710.877 186.34 704.621 173.047 700.17 159.265C699.524 157.254 699.73 152.823 697.006 153.714Z" fill="url(#paint4_linear_4552_981)"/>
<path d="M350.117 29.7536V38.3752C350.117 38.4896 349.495 39.471 349.313 39.5794C341.529 39.6335 333.582 39.3506 325.78 38.5619C318.401 39.2422 309.591 37.719 302.392 38.5558C299.439 38.899 300.985 42.5416 301.022 44.3779C301.191 52.7286 300.865 61.1094 301.003 69.4602C304.156 69.4361 307.326 69.4782 310.484 69.4722C330.146 69.4301 357.303 70.0322 355.775 96.9448C354.223 124.315 318.558 124.791 298.371 124.008C295.961 123.918 293.34 123.291 290.792 123.532L290.309 123.213C289.512 122.075 290.514 116.62 290.55 114.983C291.136 91.3816 291.172 67.5938 290.52 44.0046C290.387 39.2362 290.665 34.4979 290.134 29.7536H350.123H350.117ZM340.316 84.8311C333.425 77.835 313.347 76.4442 304.023 77.4738C302.7 77.6183 300.955 77.9976 300.985 79.6593C301.275 91.1829 300.206 102.947 302.308 114.266C302.658 114.616 307.223 115.151 308.051 115.163C316.928 115.296 333.619 114.88 340.249 108.342C346.185 102.49 346.161 90.7675 340.316 84.8311Z" fill="url(#paint5_linear_4552_981)"/>
<path d="M664.337 123.586C663.884 123.586 663.232 124.459 662.622 122.936C663.884 110.871 663.225 98.6245 663.316 86.4747C663.388 76.7332 663.455 67.0519 663.316 57.2381C663.189 48.0746 663.914 38.8147 662.531 29.7536C665.683 29.7234 668.848 29.7776 672.006 29.7716C673.135 29.7716 674.5 28.8986 675.43 30.0245C674.983 34.9615 675.152 39.8623 675.025 44.8114C674.85 51.7773 673.703 61.7296 674.59 68.4728C674.808 70.1164 675.321 70.1345 676.801 70.279C689.748 71.5434 704.742 69.2675 717.912 70.279C718.987 70.3874 719.73 69.8877 720.292 69.0448C720.612 61.1456 720.352 53.12 720.117 45.1786C719.996 41.1929 719.784 37.1891 719.718 33.1492C719.706 32.2461 719.144 31.2166 719.356 30.4459C719.845 28.6217 722.484 29.8318 723.927 29.7776C725.443 29.7235 731.288 28.6999 732.001 29.7235C732.659 31.1443 731.826 32.6435 731.777 33.962C730.805 62.5785 731.053 90.3762 731.759 118.987C731.802 120.66 732.586 121.569 731.62 123.322C731.047 123.713 730.237 123.58 729.966 123.58H719.7C719.066 122.334 719.7 121.371 719.718 120.185C719.772 116.566 719.609 112.942 719.682 109.323C719.863 100.509 721.01 89.2382 720.28 80.6045C720.231 80.0025 720.008 78.997 719.537 78.6177L717.912 78.2384C704.742 79.1174 690.219 77.1486 677.211 78.2384C676.414 78.3046 675.671 78.3227 675.007 78.8465L675.46 122.563L675.357 123.099C675.061 123.153 674.56 123.562 674.415 123.562C671.058 123.562 667.706 123.574 664.349 123.562L664.337 123.586Z" fill="url(#paint6_linear_4552_981)"/>
<path d="M367.514 183.252C368.414 184.805 371.572 183.733 372.852 183.715C393.559 183.462 421.47 185.955 421.416 212.801C421.35 243.983 382.508 245.855 359.591 244.278C358.873 244.23 355.334 243.784 355.129 243.507C356.934 216.119 355.878 188.556 356.185 161.059L354.923 145.496C355.153 144.28 360.038 145.249 361.167 145.237C362.508 145.225 368.076 143.967 368.589 145.496L367.52 183.252H367.514ZM404.314 201.139C397.225 194.36 379.477 192.096 370.026 193.336C368.148 193.583 367.569 195.04 367.411 196.744C367.055 200.597 367.798 204.673 367.852 208.376C367.949 215.517 367.037 224.879 367.828 231.658C368.178 234.669 370.672 234.518 373.251 234.675C383.112 235.289 400.812 234.283 406.639 224.987C411.114 217.847 410.534 207.082 404.32 201.139H404.314Z" fill="url(#paint7_linear_4552_981)"/>
<path d="M564.124 239.299C562.397 241.033 557.704 244.753 555.434 245.319C552.535 246.036 553.888 243.134 553.828 242.074C553.659 239.088 553.042 235.999 553.507 232.935C557.046 230.111 559.963 227.215 562.542 223.488C574.311 206.45 586.618 175.551 591.624 155.418C592.439 152.143 592.874 148.645 593.339 145.303L633.557 145.002C634.439 145.64 633.551 147.609 633.515 148.627C632.639 176.81 632.657 204.704 633.551 232.832C633.666 236.511 633.648 240.22 633.756 243.898C633.177 244.753 631.74 243.904 630.912 243.88C628.913 243.814 626.866 243.832 624.861 243.862C623.382 243.88 621.83 244.976 620.695 243.218C621.975 233.814 621.31 224.277 621.437 214.794C621.631 200.694 622.144 186.461 621.872 172.288C621.788 167.785 622.047 159.488 621.425 155.49C621.298 154.665 620.978 153.756 620.042 153.66C614.656 154.196 607.923 152.949 602.711 153.642C602.162 153.714 601.648 153.72 601.292 154.232C597.095 170.988 591.848 187.52 585.012 203.379C580.205 214.541 572.626 230.755 564.118 239.305L564.124 239.299Z" fill="url(#paint8_linear_4552_981)"/>
<path d="M527.897 62.4822C526.001 64.8844 522.36 67.4131 519.697 68.9424C518.477 69.6408 516.484 69.6408 515.995 71.6096C516.182 72.7114 523.773 74.4393 525.331 75.1678C539.335 81.7003 539.637 103.766 529.926 114.218C519.364 125.579 503.338 126.314 488.808 125.182C486.26 124.983 471.157 122.376 470.046 121.01C469.17 119.932 470.312 119.233 470.469 118.15C470.704 116.548 470.547 113.098 470.952 111.816C471.097 111.352 471.429 111.136 471.906 111.124C475.016 112.225 478.132 113.375 481.344 114.176C495.203 117.614 523.561 119.896 525.645 100.13C526.84 88.7746 519.425 83.2657 509.461 80.5564C501.109 78.2866 491.985 79.3221 483.374 79.0753C483.802 77.3594 483.639 70.3031 484.986 69.6528C489.75 69.3699 494.515 70.1526 499.298 69.8696C511.224 69.1712 522.372 64.2402 521.212 50.4106C519.823 33.7634 493.682 35.9549 482.268 38.4715C480.421 38.881 479.793 39.0917 478.15 39.5854C477.564 39.76 474.291 40.7534 474.116 40.5788L475.686 31.1203C476.381 30.2171 484.34 28.7782 485.994 28.5554C499.316 26.8034 521.979 25.3163 529.588 38.8509C533.405 45.6362 532.752 56.317 527.897 62.4822Z" fill="url(#paint9_linear_4552_981)"/>
<path d="M194.293 145.261C194.661 145.634 193.58 152.287 193.387 153.335C192.56 157.923 191.696 155.683 188.357 154.978C183.737 154.003 177.457 153.238 172.783 153.66C125.439 157.947 127.389 235.873 180.41 235.837C187.022 235.837 193.133 235.668 199.317 233.067L199.963 234.043C199.142 236.662 199.782 240.256 199.063 242.791C198.93 243.26 198.526 243.664 198.055 243.796C194.54 244.043 191.159 245.091 187.662 245.476C177.523 246.59 164.83 245.982 155.258 242.472C126.707 231.989 118.965 195.137 133.03 170.211C138.199 161.047 144.745 154.388 154.183 149.578C166.599 143.256 180.796 142.576 194.281 145.255L194.293 145.261Z" fill="url(#paint10_linear_4552_981)"/>
<path d="M541.297 145.279C541.617 145.652 540.367 153.877 540.12 155.051C540.023 155.508 540.017 155.876 539.467 156.026C535.615 155.544 531.714 153.997 527.843 153.666C501.55 151.444 484.539 171.054 485.765 196.383C487.184 225.692 512.009 240.864 539.836 234.97C542.221 234.464 544.558 233.35 546.937 233.091C547.843 233.729 546.14 240.846 546.49 242.393C545.645 244.422 543.978 243.615 542.439 243.971C505.62 252.544 472.522 234.621 473.385 194.354C473.778 175.973 486.097 156.116 503.012 148.554C514.624 143.358 528.93 142.528 541.297 145.273V145.279Z" fill="url(#paint11_linear_4552_981)"/>
<path d="M436.724 145.291L449.581 145.014C450.468 145.622 449.575 147.609 449.538 148.633C448.615 178.754 448.615 208.768 449.538 238.889C449.587 240.503 450.438 242.225 449.78 243.91C449.17 244.79 447.171 243.904 446.151 243.868C444.599 243.82 436.972 244.236 436.44 243.507L437.497 226.456C437.545 201.031 437.721 175.63 436.658 150.264C436.591 148.621 436.682 146.929 436.724 145.291Z" fill="url(#paint12_linear_4552_981)"/>
<path d="M47.2372 187.605C35.7515 200.724 12.9492 190.188 16.0713 172.8C18.5955 158.723 35.7334 153.166 46.1804 163.07C52.9016 169.44 53.3303 180.651 47.2433 187.605H47.2372Z" fill="url(#paint13_linear_4552_981)"/>
<path d="M204.613 5.06259C209.981 9.9755 211.89 17.0679 209.221 23.9436C208.448 25.9424 205.99 29.7837 204.293 31.054C198.085 35.7201 189.419 36.7737 182.855 31.7464C177.173 27.3874 174.359 19.994 176.478 12.9859C180.029 1.23944 195.374 -3.39652 204.613 5.06259Z" fill="url(#paint14_linear_4552_981)"/>
<path d="M270.61 253.905C271.365 254.128 271.178 254.965 271.039 255.518C270.049 259.432 264.886 266.855 261.915 269.703C239.915 290.806 202.21 274.044 180.506 260.245C176.69 257.818 170.802 254.043 167.559 251.087C167.07 250.642 166.406 250.286 166.545 249.498C167.396 249.486 168.254 249.45 169.111 249.546C171.261 249.781 175.663 250.226 177.481 250.834C179.921 251.653 183.58 254.88 186.056 256.331C204.148 266.934 235.024 281.582 254.276 266.91C256.329 265.344 261.087 260.142 262.132 257.897C262.676 256.723 262.452 254.916 263.769 253.911H270.61V253.905Z" fill="url(#paint15_linear_4552_981)"/>
<path d="M221.292 164.889C221.37 165.882 221.346 166.695 221.062 167.664C220.67 169.025 216.37 175.413 215.265 177.129C211.908 182.349 207.946 188.026 204.317 193.09C202.046 196.256 199.402 199.219 197.131 202.398C196.624 205.619 200.428 203.692 201.859 203.475C205.392 202.945 208.997 202.644 212.524 202.066C213.387 201.922 216.358 200.917 216.624 200.995C217.469 201.242 217.5 203.638 217.089 204.216C216.944 204.421 212.777 205.3 212.198 205.36C208.007 205.787 203.176 205.48 198.949 205.799C197.801 205.884 195.072 206.185 194.166 206.648C193.496 206.991 188.695 213.385 187.686 214.644C186.817 215.734 185.772 217.437 184.915 218.473C181.309 222.832 177.499 227.016 173.519 231.02L169.739 230.472C169.117 230.093 169.431 229.407 169.739 228.943C170.023 228.515 173.924 225.752 174.83 224.885C178.87 220.984 183.966 215.186 187.475 210.821C188.133 210.002 191.141 207.901 189.498 206.781C188.212 205.902 178.302 207.347 176.007 207.419C168.018 207.678 157.662 207.973 149.805 207.419C148.73 207.341 145.011 207.034 144.793 205.992L145.753 205.017L154.636 205.817C162.704 205.998 170.778 205.703 178.791 205.384C183.779 205.185 188.719 205.721 193.628 204.222C202.161 193.866 209.541 182.704 216.678 171.343C217.826 169.518 218.979 167.435 220.241 165.653C220.579 165.178 220.253 164.672 221.28 164.901L221.292 164.889Z" fill="url(#paint16_linear_4552_981)"/>
<path d="M284.898 178.122C285.303 178.568 282.67 185.136 282.163 186.015C280.284 189.26 270.592 191.043 267.289 193.258L265.616 193.312L264.409 187.779L271.184 185.51C272.054 184.805 273.159 184.143 274.167 183.667C276.758 182.457 279.373 181.56 281.77 180.103C282.12 179.892 284.451 177.628 284.898 178.122Z" fill="url(#paint17_linear_4552_981)"/>
<path d="M313.685 128.794C314.615 129.005 315.708 131.142 316.07 132.04C316.505 133.123 318.147 138.199 318.25 139.126C318.504 141.426 313.993 141.022 312.507 140.8C309.735 140.378 311.034 138.566 310.575 136.712C310.219 135.279 308.129 132.329 307.634 130.817C307.417 130.149 307.405 129.487 307.447 128.794C309.252 129.065 312.036 128.427 313.685 128.794Z" fill="url(#paint18_linear_4552_981)"/>
<path d="M243.345 195.028C243.563 195.01 243.768 194.926 243.992 194.992C244.324 195.089 246.353 199.038 245.465 199.586C242.071 199.285 233.744 204.661 236.383 197.762C236.938 196.305 241.763 195.173 243.345 195.034V195.028Z" fill="url(#paint19_linear_4552_981)"/>
</g>
</g>
<defs>
<filter id="filter0_d_4552_981" x="-30.0078" y="-25.2637" width="805.012" height="338.996" filterUnits="userSpaceOnUse" color-interpolation-filters="sRGB">
<feFlood flood-opacity="0" result="BackgroundImageFix"/>
<feColorMatrix in="SourceAlpha" type="matrix" values="0 0 0 0 0 0 0 0 0 0 0 0 0 0 0 0 0 0 127 0" result="hardAlpha"/>
<feOffset dy="4"/>
<feGaussianBlur stdDeviation="15"/>
<feComposite in2="hardAlpha" operator="out"/>
<feColorMatrix type="matrix" values="0 0 0 0 1 0 0 0 0 0.496875 0 0 0 0 0.225962 0 0 0 0.3 0"/>
<feBlend mode="normal" in2="BackgroundImageFix" result="effect1_dropShadow_4552_981"/>
<feBlend mode="normal" in="SourceGraphic" in2="effect1_dropShadow_4552_981" result="shape"/>
</filter>
<linearGradient id="paint0_linear_4552_981" x1="744.999" y1="0.734488" x2="0.4756" y2="281" gradientUnits="userSpaceOnUse">
<stop stop-color="#FFE9BC"/>
<stop offset="0.5" stop-color="#FFE9CC"/>
<stop offset="1" stop-color="#FFE9BC"/>
</linearGradient>
<linearGradient id="paint1_linear_4552_981" x1="744.999" y1="0.734488" x2="0.4756" y2="281" gradientUnits="userSpaceOnUse">
<stop stop-color="#FFE9BC"/>
<stop offset="0.5" stop-color="#FFE9CC"/>
<stop offset="1" stop-color="#FFE9BC"/>
</linearGradient>
<linearGradient id="paint2_linear_4552_981" x1="744.999" y1="0.734488" x2="0.4756" y2="281" gradientUnits="userSpaceOnUse">
<stop stop-color="#FFE9BC"/>
<stop offset="0.5" stop-color="#FFE9CC"/>
<stop offset="1" stop-color="#FFE9BC"/>
</linearGradient>
<linearGradient id="paint3_linear_4552_981" x1="744.999" y1="0.734488" x2="0.4756" y2="281" gradientUnits="userSpaceOnUse">
<stop stop-color="#FFE9BC"/>
<stop offset="0.5" stop-color="#FFE9CC"/>
<stop offset="1" stop-color="#FFE9BC"/>
</linearGradient>
<linearGradient id="paint4_linear_4552_981" x1="744.999" y1="0.734488" x2="0.4756" y2="281" gradientUnits="userSpaceOnUse">
<stop stop-color="#FFE9BC"/>
<stop offset="0.5" stop-color="#FFE9CC"/>
<stop offset="1" stop-color="#FFE9BC"/>
</linearGradient>
<linearGradient id="paint5_linear_4552_981" x1="744.999" y1="0.734488" x2="0.4756" y2="281" gradientUnits="userSpaceOnUse">
<stop stop-color="#FFE9BC"/>
<stop offset="0.5" stop-color="#FFE9CC"/>
<stop offset="1" stop-color="#FFE9BC"/>
</linearGradient>
<linearGradient id="paint6_linear_4552_981" x1="744.999" y1="0.734488" x2="0.4756" y2="281" gradientUnits="userSpaceOnUse">
<stop stop-color="#FFE9BC"/>
<stop offset="0.5" stop-color="#FFE9CC"/>
<stop offset="1" stop-color="#FFE9BC"/>
</linearGradient>
<linearGradient id="paint7_linear_4552_981" x1="744.999" y1="0.734488" x2="0.4756" y2="281" gradientUnits="userSpaceOnUse">
<stop stop-color="#FFE9BC"/>
<stop offset="0.5" stop-color="#FFE9CC"/>
<stop offset="1" stop-color="#FFE9BC"/>
</linearGradient>
<linearGradient id="paint8_linear_4552_981" x1="744.999" y1="0.734488" x2="0.4756" y2="281" gradientUnits="userSpaceOnUse">
<stop stop-color="#FFE9BC"/>
<stop offset="0.5" stop-color="#FFE9CC"/>
<stop offset="1" stop-color="#FFE9BC"/>
</linearGradient>
<linearGradient id="paint9_linear_4552_981" x1="744.999" y1="0.734488" x2="0.4756" y2="281" gradientUnits="userSpaceOnUse">
<stop stop-color="#FFE9BC"/>
<stop offset="0.5" stop-color="#FFE9CC"/>
<stop offset="1" stop-color="#FFE9BC"/>
</linearGradient>
<linearGradient id="paint10_linear_4552_981" x1="744.999" y1="0.734488" x2="0.4756" y2="281" gradientUnits="userSpaceOnUse">
<stop stop-color="#FFE9BC"/>
<stop offset="0.5" stop-color="#FFE9CC"/>
<stop offset="1" stop-color="#FFE9BC"/>
</linearGradient>
<linearGradient id="paint11_linear_4552_981" x1="744.999" y1="0.734488" x2="0.4756" y2="281" gradientUnits="userSpaceOnUse">
<stop stop-color="#FFE9BC"/>
<stop offset="0.5" stop-color="#FFE9CC"/>
<stop offset="1" stop-color="#FFE9BC"/>
</linearGradient>
<linearGradient id="paint12_linear_4552_981" x1="744.999" y1="0.734488" x2="0.4756" y2="281" gradientUnits="userSpaceOnUse">
<stop stop-color="#FFE9BC"/>
<stop offset="0.5" stop-color="#FFE9CC"/>
<stop offset="1" stop-color="#FFE9BC"/>
</linearGradient>
<linearGradient id="paint13_linear_4552_981" x1="744.999" y1="0.734488" x2="0.4756" y2="281" gradientUnits="userSpaceOnUse">
<stop stop-color="#FFE9BC"/>
<stop offset="0.5" stop-color="#FFE9CC"/>
<stop offset="1" stop-color="#FFE9BC"/>
</linearGradient>
<linearGradient id="paint14_linear_4552_981" x1="744.999" y1="0.734488" x2="0.4756" y2="281" gradientUnits="userSpaceOnUse">
<stop stop-color="#FFE9BC"/>
<stop offset="0.5" stop-color="#FFE9CC"/>
<stop offset="1" stop-color="#FFE9BC"/>
</linearGradient>
<linearGradient id="paint15_linear_4552_981" x1="744.999" y1="0.734488" x2="0.4756" y2="281" gradientUnits="userSpaceOnUse">
<stop stop-color="#FFE9BC"/>
<stop offset="0.5" stop-color="#FFE9CC"/>
<stop offset="1" stop-color="#FFE9BC"/>
</linearGradient>
<linearGradient id="paint16_linear_4552_981" x1="744.999" y1="0.734488" x2="0.4756" y2="281" gradientUnits="userSpaceOnUse">
<stop stop-color="#FFE9BC"/>
<stop offset="0.5" stop-color="#FFE9CC"/>
<stop offset="1" stop-color="#FFE9BC"/>
</linearGradient>
<linearGradient id="paint17_linear_4552_981" x1="744.999" y1="0.734488" x2="0.4756" y2="281" gradientUnits="userSpaceOnUse">
<stop stop-color="#FFE9BC"/>
<stop offset="0.5" stop-color="#FFE9CC"/>
<stop offset="1" stop-color="#FFE9BC"/>
</linearGradient>
<linearGradient id="paint18_linear_4552_981" x1="744.999" y1="0.734488" x2="0.4756" y2="281" gradientUnits="userSpaceOnUse">
<stop stop-color="#FFE9BC"/>
<stop offset="0.5" stop-color="#FFE9CC"/>
<stop offset="1" stop-color="#FFE9BC"/>
</linearGradient>
<linearGradient id="paint19_linear_4552_981" x1="744.999" y1="0.734488" x2="0.4756" y2="281" gradientUnits="userSpaceOnUse">
<stop stop-color="#FFE9BC"/>
<stop offset="0.5" stop-color="#FFE9CC"/>
<stop offset="1" stop-color="#FFE9BC"/>
</linearGradient>
<clipPath id="clip0_4552_981">
<rect width="745" height="279" fill="white" transform="translate(0 0.734375)"/>
</clipPath>
</defs>
</svg>
