<svg width="330" height="64" viewBox="0 0 330 64" fill="none" xmlns="http://www.w3.org/2000/svg">
<path d="M72.8349 19.0662C71.9078 19.0662 71.19 19.4109 70.6816 20.1026C70.1732 20.792 69.9201 21.7554 69.9201 22.9881C69.9201 25.5563 70.891 26.8393 72.8349 26.8393C73.647 26.8393 74.634 26.6384 75.7934 26.232V28.2797C74.841 28.6724 73.7782 28.871 72.6026 28.871C70.9163 28.871 69.6257 28.3619 68.7308 27.3483C67.8381 26.3302 67.3918 24.8738 67.3918 22.9722C67.3918 21.7759 67.6104 20.7258 68.0498 19.8241C68.4915 18.9247 69.1195 18.233 69.9454 17.7536C70.7667 17.2719 71.7284 17.0322 72.8372 17.0322C73.9461 17.0322 75.0941 17.3039 76.2329 17.8426L75.4392 19.8264C75.0043 19.621 74.5695 19.4429 74.1278 19.2899C73.6907 19.137 73.2582 19.0617 72.8349 19.0617V19.0662Z" fill="white" fill-opacity="0.8"/>
<path d="M83.7074 28.7135L83.238 27.5173H83.1736C82.7664 28.0263 82.3477 28.3779 81.9175 28.5765C81.485 28.7728 80.9237 28.871 80.2312 28.871C79.3777 28.871 78.7083 28.629 78.2182 28.1473C77.7282 27.6634 77.4844 26.9762 77.4844 26.0837C77.4844 25.1911 77.8133 24.4606 78.4713 24.0154C79.1316 23.5725 80.1231 23.326 81.4528 23.2803L82.9919 23.2324V22.8466C82.9919 21.954 82.5318 21.5089 81.6115 21.5089C80.9007 21.5089 80.0679 21.7212 79.1109 22.1458L78.3102 20.5227C79.3294 19.9908 80.4636 19.7282 81.7059 19.7282C82.9482 19.7282 83.8063 19.9839 84.4412 20.4998C85.0762 21.0158 85.3937 21.7965 85.3937 22.8466V28.7135H83.7051H83.7074ZM82.9942 24.6341L82.0579 24.666C81.3539 24.6866 80.8294 24.8121 80.4866 25.045C80.1415 25.2755 79.969 25.6271 79.969 26.0996C79.969 26.7776 80.3624 27.1155 81.1445 27.1155C81.7059 27.1155 82.1545 26.9557 82.4904 26.6361C82.8262 26.3165 82.9942 25.8919 82.9942 25.36V24.6341Z" fill="white" fill-opacity="0.8"/>
<path d="M90.3099 19.9086V23.294H93.6918V19.9086H96.1096V28.7135H93.6918V25.0838H90.3099V28.7135H87.8875V19.9086H90.3099Z" fill="white" fill-opacity="0.8"/>
<path d="M104.47 19.9086H107.136L103.619 24.1295L107.444 28.7135H104.698L101.072 24.2483V28.7135H98.6495V19.9086H101.072V24.1843L104.47 19.9086Z" fill="white" fill-opacity="0.8"/>
<path d="M116.055 19.9086V21.712H113.15V28.7135H110.727V21.712H107.817V19.9086H116.055Z" fill="white" fill-opacity="0.8"/>
<path d="M116.596 25.3737V23.4059H120.857V25.3737H116.596Z" fill="white" fill-opacity="0.8"/>
<path d="M129.532 28.7135V19.2329H125.262V28.7135H122.803V17.2011H131.984V28.7135H129.532Z" fill="white" fill-opacity="0.8"/>
<path d="M138.737 28.871C137.308 28.871 136.19 28.4806 135.387 27.6976C134.582 26.9146 134.181 25.8074 134.181 24.3738C134.181 22.9402 134.552 21.7577 135.295 20.9518C136.038 20.146 137.066 19.7419 138.378 19.7419C139.689 19.7419 140.609 20.0958 141.309 20.8057C142.008 21.5157 142.355 22.495 142.355 23.7437V24.9103H136.632C136.659 25.5928 136.864 26.127 137.244 26.5083C137.625 26.8918 138.157 27.0835 138.847 27.0835C139.381 27.0835 139.885 27.0287 140.361 26.9192C140.837 26.8096 141.336 26.6315 141.854 26.3918V28.2501C141.431 28.4601 140.977 28.6153 140.499 28.7203C140.016 28.8208 139.429 28.8733 138.737 28.8733V28.871ZM138.394 21.4541C137.883 21.4541 137.48 21.6161 137.188 21.938C136.898 22.2622 136.731 22.7188 136.689 23.3123H140.085C140.071 22.7188 139.917 22.2622 139.615 21.938C139.314 21.6161 138.907 21.4541 138.394 21.4541Z" fill="white" fill-opacity="0.8"/>
<path d="M151.663 19.9086V21.712H148.758V28.7135H146.34V21.712H143.425V19.9086H151.663Z" fill="white" fill-opacity="0.8"/>
<path d="M157.171 28.871C155.742 28.871 154.629 28.4806 153.821 27.6976C153.018 26.9146 152.616 25.8074 152.616 24.3738C152.616 22.9402 152.986 21.7577 153.734 20.9518C154.477 20.146 155.503 19.7419 156.817 19.7419C158.13 19.7419 159.046 20.0958 159.743 20.8057C160.442 21.5157 160.79 22.495 160.79 23.7437V24.9103H155.068C155.094 25.5928 155.296 26.127 155.678 26.5083C156.06 26.8918 156.596 27.0835 157.281 27.0835C157.817 27.0835 158.324 27.0287 158.8 26.9192C159.276 26.8096 159.771 26.6315 160.293 26.3918V28.2501C159.867 28.4601 159.416 28.6153 158.933 28.7203C158.455 28.8208 157.866 28.8733 157.171 28.8733V28.871ZM156.833 21.4541C156.317 21.4541 155.915 21.6161 155.627 21.938C155.335 22.2622 155.169 22.7188 155.126 23.3123H158.521C158.512 22.7188 158.356 22.2622 158.054 21.938C157.753 21.6161 157.343 21.4541 156.833 21.4541Z" fill="white" fill-opacity="0.8"/>
<path d="M167.632 28.871C166.589 28.871 165.77 28.4966 165.181 27.7456H165.055C165.138 28.4806 165.181 28.9052 165.181 29.0217V32.5897H162.759V19.9109H164.728L165.071 21.0523H165.181C165.747 20.1802 166.585 19.7442 167.696 19.7442C168.743 19.7442 169.566 20.146 170.155 20.9496C170.749 21.7531 171.043 22.8671 171.043 24.2962C171.043 25.2367 170.908 26.0517 170.627 26.7457C170.351 27.4397 169.955 27.967 169.44 28.3277C168.929 28.6906 168.326 28.871 167.629 28.871H167.632ZM166.918 21.6664C166.323 21.6664 165.883 21.849 165.609 22.2143C165.333 22.5772 165.191 23.1822 165.181 24.02V24.2802C165.181 25.2253 165.322 25.9033 165.607 26.3119C165.89 26.7206 166.336 26.926 166.951 26.926C168.036 26.926 168.579 26.038 168.579 24.2642C168.579 23.399 168.446 22.7484 168.179 22.3147C167.91 21.8832 167.491 21.6664 166.918 21.6664Z" fill="white" fill-opacity="0.8"/>
<path d="M172.504 23.4379C172.504 21.4175 172.891 19.8835 173.668 18.8334C174.443 17.7878 175.651 17.1235 177.296 16.845C178.097 16.7081 179.291 16.5346 180.878 16.3245L181.154 18.4202C180.469 18.4978 179.247 18.6667 177.496 18.9247C176.829 19.0297 176.332 19.1872 176.003 19.3972C175.674 19.6073 175.428 19.9063 175.269 20.2944C175.108 20.6825 175.005 21.2007 174.97 21.8467H175.088C175.371 21.4175 175.739 21.0865 176.199 20.8537C176.659 20.6231 177.154 20.5067 177.685 20.5067C178.78 20.5067 179.631 20.84 180.241 21.5043C180.848 22.1686 181.152 23.1183 181.152 24.3578C181.152 25.7869 180.768 26.8941 179.999 27.6839C179.229 28.4738 178.163 28.8687 176.813 28.8687C175.463 28.8687 174.4 28.387 173.641 27.4237C172.881 26.4603 172.502 25.1294 172.502 23.4333L172.504 23.4379ZM176.958 26.926C178.104 26.926 178.679 26.1407 178.679 24.5724C178.679 23.0041 178.161 22.2805 177.124 22.2805C176.838 22.2805 176.555 22.3467 176.272 22.4768C175.987 22.6069 175.729 22.7804 175.495 22.9927C175.256 23.2073 175.085 23.4196 174.975 23.6342C174.975 24.7003 175.145 25.5152 175.49 26.0791C175.835 26.6452 176.325 26.926 176.96 26.926H176.958Z" fill="white" fill-opacity="0.8"/>
<path d="M181.886 19.9086H184.536L186.213 24.8623C186.356 25.2915 186.455 25.8029 186.505 26.3896H186.554C186.613 25.8485 186.726 25.3394 186.896 24.8623L188.537 19.9086H191.134L187.379 29.8389C187.037 30.7566 186.544 31.446 185.909 31.9026C185.272 32.3592 184.525 32.5874 183.676 32.5874C183.257 32.5874 182.847 32.5441 182.445 32.4528V30.5466C182.737 30.6151 183.054 30.6493 183.397 30.6493C183.825 30.6493 184.2 30.5192 184.522 30.2612C184.842 29.9987 185.093 29.6083 185.272 29.0833L185.415 28.6496L181.89 19.9086H181.886Z" fill="white" fill-opacity="0.8"/>
<path d="M197.274 28.871C196.23 28.871 195.413 28.4966 194.819 27.7456H194.693C194.778 28.4806 194.819 28.9052 194.819 29.0217V32.5897H192.402V19.9109H194.371L194.711 21.0523H194.822C195.39 20.1802 196.227 19.7442 197.339 19.7442C198.385 19.7442 199.204 20.146 199.798 20.9496C200.389 21.7531 200.686 22.8671 200.686 24.2962C200.686 25.2367 200.546 26.0517 200.269 26.7457C199.991 27.4397 199.593 27.967 199.082 28.3277C198.567 28.6906 197.964 28.871 197.274 28.871ZM196.561 21.6664C195.961 21.6664 195.526 21.849 195.25 22.2143C194.976 22.5772 194.833 23.1822 194.822 24.02V24.2802C194.822 25.2253 194.964 25.9033 195.247 26.3119C195.53 26.7206 195.977 26.926 196.593 26.926C197.677 26.926 198.217 26.038 198.217 24.2642C198.217 23.399 198.084 22.7484 197.817 22.3147C197.55 21.8832 197.132 21.6664 196.561 21.6664Z" fill="white" fill-opacity="0.8"/>
<path d="M208.814 19.9086V21.712H205.105V28.7135H202.687V19.9086H208.814Z" fill="white" fill-opacity="0.8"/>
<path d="M213.9 28.871C211.14 28.871 209.757 27.3666 209.757 24.3578C209.757 22.8626 210.134 21.7189 210.884 20.9267C211.637 20.1369 212.713 19.7419 214.117 19.7419C215.143 19.7419 216.063 19.9428 216.877 20.34L216.164 22.1983C215.782 22.0453 215.428 21.922 215.101 21.8239C214.77 21.728 214.443 21.6801 214.117 21.6801C212.856 21.6801 212.228 22.5658 212.228 24.3419C212.228 26.1179 212.856 26.926 214.117 26.926C214.579 26.926 215.011 26.8644 215.409 26.7411C215.807 26.6178 216.203 26.4261 216.599 26.1636V28.2181C216.208 28.4647 215.812 28.6359 215.414 28.7295C215.014 28.8231 214.51 28.871 213.9 28.871Z" fill="white" fill-opacity="0.8"/>
<path d="M224.471 19.9086H227.138L223.622 24.1295L227.448 28.7135H224.701L221.073 24.2483V28.7135H218.656V19.9086H221.073V24.1843L224.471 19.9086Z" fill="white" fill-opacity="0.8"/>
<path d="M231.058 19.9086V23.3899C231.058 23.7574 230.998 24.6546 230.876 26.0837L234.971 19.9086H237.881V28.7135H235.542V25.2002C235.542 24.5747 235.592 23.6935 235.7 22.5544L231.621 28.7135H228.716V19.9086H231.058Z" fill="white" fill-opacity="0.8"/>
<path d="M242.765 19.9086V23.3899C242.765 23.7574 242.706 24.6546 242.581 26.0837L246.676 19.9086H249.591V28.7135H247.249V25.2002C247.249 24.5747 247.302 23.6935 247.408 22.5544L243.329 28.7135H240.423V19.9086H242.765ZM248.876 16.1214C248.774 17.103 248.402 17.8198 247.755 18.2672C247.111 18.717 246.182 18.9407 244.962 18.9407C243.743 18.9407 242.781 18.7238 242.181 18.2946C241.581 17.8655 241.245 17.1395 241.169 16.1214H243.336C243.37 16.6624 243.508 17.0414 243.745 17.2582C243.98 17.4774 244.403 17.5847 245.008 17.5847C245.544 17.5847 245.942 17.466 246.205 17.2263C246.465 16.9888 246.623 16.619 246.683 16.1214H248.876Z" fill="white" fill-opacity="0.8"/>
<path d="M73.8426 39.2624V41.0659H70.1387V48.0673H67.7162V39.2624H73.8426Z" fill="white" fill-opacity="0.8"/>
<path d="M83.3899 43.6501C83.3899 45.0837 83.008 46.2045 82.2465 47.0127C81.485 47.8208 80.4245 48.2249 79.0625 48.2249C78.2113 48.2249 77.4591 48.0399 76.808 47.6678C76.1569 47.3003 75.6577 46.7661 75.3103 46.0744C74.963 45.3827 74.7858 44.5723 74.7858 43.6501C74.7858 42.2119 75.1631 41.0933 75.92 40.2943C76.6792 39.4953 77.742 39.0981 79.1109 39.0981C79.9644 39.0981 80.7143 39.283 81.3654 39.6483C82.0164 40.0158 82.518 40.5431 82.8677 41.2303C83.2173 41.9174 83.3922 42.7232 83.3922 43.6478L83.3899 43.6501ZM77.2543 43.6501C77.2543 44.5221 77.4015 45.1818 77.6891 45.627C77.9744 46.0721 78.4437 46.2959 79.0947 46.2959C79.7458 46.2959 80.2059 46.0744 80.4889 45.6316C80.7719 45.1864 80.9145 44.5267 80.9145 43.6501C80.9145 42.7735 80.7719 42.1251 80.4866 41.6891C80.2013 41.2531 79.732 41.0362 79.0809 41.0362C78.4299 41.0362 77.9698 41.2531 77.6845 41.6845C77.3992 42.1183 77.2566 42.7735 77.2566 43.6501H77.2543Z" fill="white" fill-opacity="0.8"/>
<path d="M88.994 48.2249C86.2311 48.2249 84.8507 46.7205 84.8507 43.7117C84.8507 42.2164 85.2257 41.0727 85.978 40.2806C86.728 39.4907 87.8069 39.0958 89.2057 39.0958C90.234 39.0958 91.1543 39.2967 91.9663 39.6939L91.2532 41.5521C90.8713 41.3992 90.5193 41.2759 90.1903 41.1777C89.8636 41.0819 89.537 41.0339 89.2057 41.0339C87.9496 41.0339 87.3169 41.9197 87.3169 43.6957C87.3169 45.4718 87.9496 46.2799 89.2057 46.2799C89.6727 46.2799 90.1052 46.2182 90.5009 46.095C90.8966 45.9717 91.2946 45.7799 91.6903 45.5174V47.572C91.2969 47.8185 90.9035 47.9897 90.5032 48.0833C90.1029 48.1769 89.5991 48.2249 88.9917 48.2249H88.994Z" fill="white" fill-opacity="0.8"/>
<path d="M92.4771 39.2624H95.1273L96.8044 44.2162C96.947 44.6454 97.046 45.1567 97.0966 45.7434H97.1449C97.2047 45.2024 97.3174 44.6933 97.4877 44.2162L99.128 39.2624H101.725L97.9708 49.1928C97.628 50.1105 97.1357 50.7999 96.5007 51.2565C95.8635 51.713 95.1158 51.9413 94.2669 51.9413C93.8482 51.9413 93.4387 51.8979 93.0361 51.8066V49.9005C93.3283 49.9689 93.6457 50.0032 93.9885 50.0032C94.4164 50.0032 94.7914 49.8731 95.1112 49.6151C95.431 49.3526 95.6817 48.9622 95.8612 48.4372L96.0038 48.0034L92.4794 39.2624H92.4771Z" fill="white" fill-opacity="0.8"/>
<path d="M109.77 51.2245V48.0673H103.803V51.2245H101.629V46.3096H102.374C102.882 45.5265 103.308 44.5404 103.651 43.3487C103.996 42.1571 104.235 40.7942 104.376 39.2624H110.645V46.3096H111.947V51.2245H109.77ZM108.222 46.3118V41.0659H106.407C106.273 42.0429 106.092 42.9675 105.864 43.8464C105.632 44.723 105.314 45.5448 104.905 46.3118H108.222Z" fill="white" fill-opacity="0.8"/>
<path d="M119.094 48.0673L118.627 46.8711H118.563C118.154 47.3802 117.735 47.7318 117.307 47.9304C116.874 48.1267 116.313 48.2249 115.618 48.2249C114.767 48.2249 114.098 47.9829 113.61 47.5012C113.118 47.0172 112.874 46.3301 112.874 45.4375C112.874 44.5449 113.203 43.8144 113.863 43.3693C114.521 42.9264 115.515 42.6799 116.84 42.6342L118.379 42.5863V42.2005C118.379 41.3079 117.919 40.8627 116.999 40.8627C116.29 40.8627 115.455 41.075 114.5 41.4996L113.697 39.8765C114.719 39.3446 115.853 39.0821 117.093 39.0821C118.333 39.0821 119.198 39.3378 119.833 39.8537C120.468 40.3696 120.785 41.1504 120.785 42.2005V48.0673H119.094ZM118.379 43.9879L117.443 44.0199C116.741 44.0404 116.216 44.166 115.871 44.3988C115.529 44.6294 115.356 44.9809 115.356 45.4535C115.356 46.1315 115.747 46.4694 116.532 46.4694C117.091 46.4694 117.542 46.3096 117.877 45.99C118.211 45.6704 118.379 45.2458 118.379 44.7139V43.9879Z" fill="white" fill-opacity="0.8"/>
<path d="M128.152 48.2249C127.107 48.2249 126.291 47.8505 125.697 47.0994H125.571C125.656 47.8345 125.697 48.2591 125.697 48.3755V51.9436H123.279V39.2647H125.248L125.589 40.4062H125.699C126.268 39.5341 127.105 39.0981 128.216 39.0981C129.263 39.0981 130.082 39.4999 130.675 40.3034C131.267 41.107 131.563 42.221 131.563 43.6501C131.563 44.5906 131.423 45.4056 131.147 46.0995C130.869 46.7935 130.471 47.3209 129.96 47.6815C129.445 48.0445 128.842 48.2249 128.152 48.2249ZM127.436 41.0202C126.836 41.0202 126.401 41.2029 126.125 41.5681C125.851 41.9311 125.709 42.536 125.697 43.3738V43.6341C125.697 44.5792 125.84 45.2572 126.123 45.6658C126.406 46.0744 126.852 46.2799 127.468 46.2799C128.552 46.2799 129.093 45.3919 129.093 43.6181C129.093 42.7529 128.959 42.1023 128.692 41.6686C128.426 41.2371 128.007 41.0202 127.436 41.0202Z" fill="white" fill-opacity="0.8"/>
<path d="M137.165 48.2249C134.405 48.2249 133.022 46.7205 133.022 43.7117C133.022 42.2164 133.397 41.0727 134.149 40.2806C134.899 39.4907 135.978 39.0958 137.377 39.0958C138.405 39.0958 139.326 39.2967 140.138 39.6939L139.424 41.5521C139.043 41.3992 138.691 41.2759 138.362 41.1777C138.035 41.0819 137.708 41.0339 137.377 41.0339C136.121 41.0339 135.488 41.9197 135.488 43.6957C135.488 45.4718 136.121 46.2799 137.377 46.2799C137.844 46.2799 138.274 46.2182 138.672 46.095C139.068 45.9717 139.466 45.7799 139.862 45.5174V47.572C139.468 47.8185 139.075 47.9897 138.674 48.0833C138.274 48.1769 137.77 48.2249 137.163 48.2249H137.165Z" fill="white" fill-opacity="0.8"/>
<path d="M149.262 39.2624V41.0659H146.356V48.0673H143.934V41.0659H141.023V39.2624H149.262Z" fill="white" fill-opacity="0.8"/>
<path d="M159.101 41.5704C159.101 42.0429 158.952 42.447 158.652 42.7803C158.351 43.1136 157.914 43.3259 157.33 43.4218V43.4857C157.962 43.5587 158.459 43.7733 158.827 44.1272C159.193 44.4833 159.377 44.9193 159.377 45.4398C159.377 46.2959 159.041 46.9465 158.36 47.3985C157.684 47.8459 156.715 48.0719 155.455 48.0719H150.909V39.267H155.455C156.674 39.267 157.585 39.4633 158.19 39.8537C158.793 40.2441 159.099 40.8171 159.099 41.5727L159.101 41.5704ZM156.649 41.7599C156.649 41.2234 156.221 40.9563 155.363 40.9563H153.331V42.6958H155.087C155.597 42.6958 155.988 42.6228 156.251 42.4744C156.518 42.3283 156.649 42.0886 156.649 41.7576V41.7599ZM156.87 45.312C156.87 44.965 156.736 44.7161 156.467 44.5609C156.198 44.4057 155.791 44.3281 155.252 44.3281H153.331V46.4077H155.298C155.814 46.4077 156.202 46.3118 156.469 46.1201C156.736 45.9283 156.87 45.659 156.87 45.312Z" fill="white" fill-opacity="0.8"/>
<path d="M165.315 48.2249C163.886 48.2249 162.773 47.8345 161.965 47.0515C161.162 46.2685 160.76 45.1613 160.76 43.7277C160.76 42.2941 161.13 41.1115 161.878 40.3057C162.621 39.4999 163.647 39.0958 164.961 39.0958C166.274 39.0958 167.19 39.4496 167.887 40.1596C168.586 40.8696 168.934 41.8489 168.934 43.0976V44.2641H163.212C163.237 44.9467 163.44 45.4809 163.822 45.8621C164.204 46.2456 164.74 46.4374 165.425 46.4374C165.961 46.4374 166.467 46.3826 166.944 46.273C167.42 46.1635 167.915 45.9854 168.434 45.7457V47.6039C168.009 47.8139 167.558 47.9692 167.075 48.0742C166.596 48.1746 166.007 48.2271 165.313 48.2271L165.315 48.2249ZM164.974 40.8056C164.459 40.8056 164.056 40.9677 163.769 41.2896C163.477 41.6138 163.311 42.0703 163.267 42.6639H166.665C166.656 42.0703 166.5 41.6138 166.198 41.2896C165.897 40.9677 165.487 40.8056 164.977 40.8056H164.974Z" fill="white" fill-opacity="0.8"/>
<path d="M173.323 39.2624V42.6479H176.705V39.2624H179.123V48.0673H176.705V44.4376H173.323V48.0673H170.901V39.2624H173.323Z" fill="white" fill-opacity="0.8"/>
<path d="M184.085 39.2624V42.6479H187.467V39.2624H189.885V48.0673H187.467V44.4376H184.085V48.0673H181.663V39.2624H184.085Z" fill="white" fill-opacity="0.8"/>
<path d="M196.011 42.6662C197.366 42.6662 198.369 42.883 199.02 43.3122C199.671 43.7414 199.996 44.3943 199.996 45.2663C199.996 46.1954 199.671 46.894 199.02 47.3665C198.369 47.8368 197.396 48.0696 196.099 48.0696H192.422V39.2647H194.845V42.6662H196.011ZM197.576 45.296C197.576 44.9536 197.435 44.7093 197.164 44.5563C196.888 44.4034 196.478 44.3281 195.933 44.3281H194.847V46.4077H195.965C197.042 46.4077 197.578 46.0379 197.578 45.2983L197.576 45.296ZM203.702 48.0673H201.279V39.2624H203.702V48.0673Z" fill="white" fill-opacity="0.8"/>
<path d="M208.581 39.2624V42.7438C208.581 43.1113 208.522 44.0085 208.4 45.4375L212.495 39.2624H215.405V48.0673H213.065V44.5541C213.065 43.9286 213.116 43.0474 213.224 41.9083L209.145 48.0673H206.239V39.2624H208.581ZM214.694 35.4752C214.595 36.4568 214.22 37.1737 213.576 37.6211C212.927 38.0708 211.998 38.2945 210.783 38.2945C209.568 38.2945 208.602 38.0777 208.002 37.6485C207.399 37.2193 207.063 36.4934 206.989 35.4752H209.154C209.193 36.0163 209.329 36.3952 209.564 36.6121C209.798 36.8312 210.222 36.9385 210.831 36.9385C211.365 36.9385 211.765 36.8198 212.025 36.5801C212.29 36.3427 212.446 35.9729 212.504 35.4752H214.694Z" fill="white" fill-opacity="0.8"/>
<path d="M220.899 39.2624H223.549L225.226 44.2162C225.369 44.6454 225.467 45.1567 225.518 45.7434H225.566C225.626 45.2024 225.739 44.6933 225.909 44.2162L227.549 39.2624H230.147L226.392 49.1928C226.049 50.1105 225.557 50.7999 224.922 51.2565C224.285 51.713 223.537 51.9413 222.688 51.9413C222.27 51.9413 221.86 51.8979 221.458 51.8066V49.9005C221.75 49.9689 222.067 50.0032 222.41 50.0032C222.838 50.0032 223.213 49.8731 223.533 49.6151C223.852 49.3526 224.103 48.9622 224.283 48.4372L224.425 48.0034L220.901 39.2624H220.899Z" fill="white" fill-opacity="0.8"/>
<path d="M233.835 39.2624V42.6479H237.216V39.2624H239.639V48.0673H237.216V44.4376H233.835V48.0673H231.417V39.2624H233.835Z" fill="white" fill-opacity="0.8"/>
<path d="M244.518 39.2624V42.7438C244.518 43.1113 244.459 44.0085 244.337 45.4375L248.432 39.2624H251.342V48.0673H249.002V44.5541C249.002 43.9286 249.053 43.0474 249.161 41.9083L245.082 48.0673H242.176V39.2624H244.518Z" fill="white" fill-opacity="0.8"/>
<path d="M262.072 41.5704C262.072 42.0429 261.922 42.447 261.625 42.7803C261.326 43.1136 260.884 43.3259 260.305 43.4218V43.4857C260.933 43.5587 261.432 43.7733 261.8 44.1272C262.168 44.4833 262.352 44.9193 262.352 45.4398C262.352 46.2959 262.012 46.9465 261.335 47.3985C260.657 47.8459 259.688 48.0719 258.43 48.0719H253.882V39.267H258.43C259.647 39.267 260.558 39.4633 261.163 39.8537C261.77 40.2441 262.072 40.8171 262.072 41.5727V41.5704ZM259.621 41.7599C259.621 41.2234 259.194 40.9563 258.335 40.9563H256.304V42.6958H258.057C258.572 42.6958 258.959 42.6228 259.226 42.4744C259.49 42.3283 259.621 42.0886 259.621 41.7576V41.7599ZM259.845 45.312C259.845 44.965 259.709 44.7161 259.437 44.5609C259.168 44.4057 258.763 44.3281 258.225 44.3281H256.304V46.4077H258.273C258.784 46.4077 259.175 46.3118 259.444 46.1201C259.711 45.9283 259.845 45.659 259.845 45.312Z" fill="white" fill-opacity="0.8"/>
<path d="M268.288 48.2249C266.859 48.2249 265.741 47.8345 264.938 47.0515C264.133 46.2685 263.733 45.1613 263.733 43.7277C263.733 42.2941 264.103 41.1115 264.846 40.3057C265.589 39.4999 266.617 39.0958 267.929 39.0958C269.24 39.0958 270.16 39.4496 270.86 40.1596C271.559 40.8696 271.906 41.8489 271.906 43.0976V44.2641H266.183C266.21 44.9467 266.415 45.4809 266.795 45.8621C267.174 46.2434 267.708 46.4374 268.398 46.4374C268.932 46.4374 269.436 46.3826 269.912 46.273C270.388 46.1635 270.887 45.9854 271.403 45.7457V47.6039C270.982 47.8139 270.526 47.9692 270.048 48.0742C269.564 48.1746 268.978 48.2271 268.285 48.2271L268.288 48.2249ZM267.945 40.8056C267.434 40.8056 267.032 40.9677 266.739 41.2896C266.45 41.6138 266.282 42.0703 266.24 42.6639H269.636C269.622 42.0703 269.468 41.6138 269.166 41.2896C268.865 40.9677 268.458 40.8056 267.945 40.8056Z" fill="white" fill-opacity="0.8"/>
<path d="M278.748 48.2249C277.704 48.2249 276.887 47.8505 276.294 47.0994H276.167C276.252 47.8345 276.294 48.2591 276.294 48.3755V51.9436H273.876V39.2647H275.843L276.183 40.4062H276.294C276.862 39.5341 277.699 39.0981 278.81 39.0981C279.857 39.0981 280.676 39.4999 281.27 40.3034C281.861 41.107 282.158 42.221 282.158 43.6501C282.158 44.5906 282.017 45.4056 281.741 46.0995C281.463 46.7935 281.065 47.3209 280.554 47.6815C280.039 48.0445 279.436 48.2249 278.744 48.2249H278.748ZM278.033 41.0202C277.432 41.0202 276.998 41.2029 276.721 41.5681C276.448 41.9311 276.305 42.536 276.294 43.3738V43.6341C276.294 44.5792 276.436 45.2572 276.719 45.6658C277.002 46.0744 277.448 46.2799 278.065 46.2799C279.149 46.2799 279.689 45.3919 279.689 43.6181C279.689 42.7529 279.556 42.1023 279.289 41.6686C279.022 41.2371 278.603 41.0202 278.033 41.0202Z" fill="white" fill-opacity="0.8"/>
<path d="M287.764 48.2249C285.004 48.2249 283.621 46.7205 283.621 43.7117C283.621 42.2164 283.996 41.0727 284.748 40.2806C285.498 39.4907 286.577 39.0958 287.976 39.0958C289.004 39.0958 289.924 39.2967 290.739 39.6939L290.023 41.5521C289.641 41.3992 289.289 41.2759 288.96 41.1777C288.634 41.0819 288.307 41.0339 287.976 41.0339C286.72 41.0339 286.087 41.9197 286.087 43.6957C286.087 45.4718 286.72 46.2799 287.976 46.2799C288.443 46.2799 288.875 46.2182 289.271 46.095C289.669 45.9717 290.065 45.7799 290.46 45.5174V47.572C290.067 47.8185 289.674 47.9897 289.273 48.0833C288.873 48.1769 288.369 48.2249 287.762 48.2249H287.764Z" fill="white" fill-opacity="0.8"/>
<path d="M294.859 39.2624V42.7438C294.859 43.1113 294.799 44.0085 294.675 45.4375L298.77 39.2624H301.685V48.0673H299.343V44.5541C299.343 43.9286 299.396 43.0474 299.502 41.9083L295.423 48.0673H292.517V39.2624H294.859Z" fill="white" fill-opacity="0.8"/>
<path d="M311.561 39.2624V41.0659H308.655V48.0673H306.238V41.0659H303.323V39.2624H311.561Z" fill="white" fill-opacity="0.8"/>
<path d="M317.071 48.2249C315.642 48.2249 314.529 47.8345 313.721 47.0515C312.918 46.2685 312.516 45.1613 312.516 43.7277C312.516 42.2941 312.886 41.1115 313.634 40.3057C314.377 39.4999 315.403 39.0958 316.717 39.0958C318.03 39.0958 318.946 39.4496 319.643 40.1596C320.342 40.8696 320.69 41.8489 320.69 43.0976V44.2641H314.968C314.993 44.9467 315.196 45.4809 315.578 45.8621C315.96 46.2456 316.496 46.4374 317.181 46.4374C317.717 46.4374 318.223 46.3826 318.7 46.273C319.176 46.1635 319.671 45.9854 320.193 45.7457V47.6039C319.767 47.8139 319.316 47.9692 318.833 48.0742C318.355 48.1746 317.766 48.2271 317.071 48.2271V48.2249ZM316.73 40.8056C316.215 40.8056 315.813 40.9677 315.525 41.2896C315.233 41.6138 315.067 42.0703 315.023 42.6639H318.419C318.41 42.0703 318.253 41.6138 317.952 41.2896C317.651 40.9677 317.241 40.8056 316.73 40.8056Z" fill="white" fill-opacity="0.8"/>
<path d="M330 39.2624V41.0659H327.094V48.0673H324.672V41.0659H321.762V39.2624H330Z" fill="white" fill-opacity="0.8"/>
<path d="M20.7412 10.2271C20.7596 10.2728 20.778 10.3161 20.7964 10.3526C21.1277 11.0512 21.735 11.7269 21.735 11.7269C21.735 11.7269 21.742 11.7223 21.7466 11.7201C21.7466 11.7201 21.834 11.6561 22.0111 11.558C22.0709 11.5237 22.1399 11.4872 22.2205 11.4461C22.4114 11.3502 22.6622 11.2407 22.9704 11.1334C23.702 10.8777 24.6729 10.7955 24.6729 10.7955C24.6729 10.7955 23.7664 9.54453 23.5962 7.7388C23.4996 6.7161 23.5387 6.17735 23.5502 6.14767C23.4881 6.1431 23.4283 6.13854 23.3661 6.13854C22.6783 6.13854 22.0479 6.37824 21.551 6.77317C21.5395 6.7823 21.5257 6.79143 21.5142 6.80284C20.8746 7.33018 20.4674 8.1246 20.4674 9.01491C20.4674 9.26374 20.502 9.50115 20.5618 9.73172C20.6078 9.87782 20.6745 10.065 20.7389 10.2248L20.7412 10.2271Z" fill="white" fill-opacity="0.8"/>
<path d="M38.184 18.9886C38.4808 19.4566 38.467 20.0387 38.467 20.0387C38.4716 20.0387 39.0651 20.1414 39.3596 20.4336C39.3596 20.4336 39.4056 20.388 39.4125 20.3811C39.8151 19.8903 40.5536 19.0868 40.7675 17.9202C40.9424 16.9706 40.8296 15.6374 40.6272 15.2128C40.6203 15.1968 40.6134 15.174 40.6065 15.1603C40.7974 14.9389 41.1149 14.4275 41.9937 14.4275C42.3158 14.4275 42.6034 14.5143 42.8357 14.6238C43.2199 14.8087 43.4569 15.0507 43.4569 15.0507C43.4569 15.0507 42.7 16.3862 42.3043 17.0231C42.1018 17.3495 41.9546 17.6029 41.5474 18.4932C41.2092 19.2352 41.1172 19.7282 41.1747 20.2601C41.223 20.7076 41.4623 21.5614 41.5658 22.4174C41.7637 24.0633 41.437 24.8646 41.437 24.8646C41.437 24.8646 41.4462 24.8601 41.4577 24.8509C41.4554 24.8578 41.4508 24.8715 41.4508 24.8715C41.4508 24.8715 43.4155 23.584 44.6578 20.7076C44.6532 20.7076 44.6486 20.7053 44.644 20.703C44.644 20.703 44.644 20.703 44.644 20.7007C44.4139 20.6596 44.2299 20.5957 44.0642 20.5135C43.9009 20.4314 43.756 20.3309 43.6018 20.2145C42.5022 19.3813 42.7506 18.4932 43.1072 18.0755C43.2084 17.9568 43.3142 17.8426 43.4247 17.7262C43.7007 17.434 43.9998 17.1372 44.3127 16.7743C44.7084 16.3154 44.8533 15.8566 44.9039 15.4525C44.9223 15.3132 44.9407 15.174 44.9407 15.0302C44.9407 13.8203 44.3495 12.9962 43.5972 12.5853C43.3465 12.446 43.0796 12.3524 42.8081 12.3068C41.9661 12.1629 40.9332 12.4757 40.1809 12.987C39.8933 13.1811 39.4194 13.6125 39.2883 13.9367C39.1226 14.7517 39.3688 14.9594 39.6173 15.8018C39.6219 15.8178 39.6334 15.8314 39.638 15.8497C40.1556 17.7239 39.8887 18.6302 38.1863 18.9863L38.184 18.9886Z" fill="white" fill-opacity="0.8"/>
<path d="M29.7479 17.313C29.9687 17.781 30.3759 18.233 30.3759 18.233C30.3759 18.233 30.3782 18.2307 30.3805 18.2307C30.3828 18.233 30.4403 18.2901 30.4403 18.2901C30.4403 18.2901 30.6635 18.096 31.2478 17.8723C31.7309 17.6851 32.3475 17.6212 32.3475 17.6212C32.3475 17.6212 31.7425 16.7834 31.6274 15.5758C31.5607 14.8749 31.5906 14.5143 31.5975 14.5074C31.5929 14.5074 31.5883 14.5074 31.5837 14.5074V14.5028C31.2754 14.4503 30.9557 14.512 30.6635 14.6489C30.461 14.7608 30.2816 14.8841 30.1321 15.0165C29.8698 15.247 29.695 15.5073 29.6283 15.7835C29.5201 16.078 29.4833 16.4044 29.5477 16.7423C29.5523 16.772 29.6582 17.119 29.7502 17.3153L29.7479 17.313Z" fill="white" fill-opacity="0.8"/>
<path d="M32.4372 16.0757C32.6995 16.7994 33.1343 17.4089 33.4679 17.5367C33.5185 17.5573 33.5691 17.571 33.6151 17.571C33.9625 17.5299 34.4203 16.8359 34.6435 15.9867C34.8505 15.1923 34.7102 14.528 34.3605 14.2472C34.28 14.1878 34.1925 14.1376 34.1005 14.0965C34.0867 14.0896 34.0683 14.0874 34.0545 14.0805C34.2294 13.9276 34.3467 13.7061 34.3467 13.4573C34.3467 13.0715 34.0913 12.7588 33.7393 12.6583V12.3205H34.3214V11.8548H33.7393V11.1197H33.2677V11.8548H32.6857V12.3205H33.2677V12.6583C32.918 12.7588 32.665 13.0715 32.665 13.4573C32.665 13.7038 32.7731 13.9207 32.9479 14.076C32.8076 14.1376 32.6788 14.2175 32.5684 14.3179C32.2417 14.6284 32.1612 15.3018 32.4395 16.078L32.4372 16.0757Z" fill="white" fill-opacity="0.8"/>
<path d="M34.8068 17.555C34.8068 17.555 35.8397 17.5618 36.8727 17.9636C36.8911 17.9705 36.9049 17.9796 36.921 17.9887C37.059 17.8129 37.2592 17.539 37.3949 17.2559C37.4869 17.0619 37.5928 16.7126 37.5974 16.6829C37.6618 16.3451 37.6227 16.0186 37.5168 15.7242C37.4501 15.4479 37.273 15.1877 37.013 14.9571C36.8635 14.8247 36.684 14.7014 36.4816 14.5896C36.4793 14.5896 36.477 14.5896 36.4747 14.5873C36.4747 14.5873 36.4724 14.5873 36.4701 14.585C36.1756 14.4481 35.8581 14.3864 35.5499 14.4389C35.5568 14.4435 35.5867 14.8065 35.52 15.5073C35.4049 16.7149 34.7999 17.5527 34.7999 17.5527C34.7999 17.5527 34.8091 17.5527 34.816 17.5527V17.5573L34.8068 17.555Z" fill="white" fill-opacity="0.8"/>
<path d="M28.0731 10.7978C28.0731 10.7978 29.0439 10.8777 29.7755 11.1357C30.0838 11.243 30.3322 11.3525 30.5255 11.4484C30.606 11.4895 30.675 11.526 30.7348 11.5603C30.912 11.6584 30.9994 11.7246 30.9994 11.7246L31.0109 11.7315C31.0109 11.7315 31.6182 11.0558 31.9495 10.3572C31.9679 10.3184 31.9863 10.275 32.0047 10.2317C32.0714 10.0719 32.1358 9.88467 32.1819 9.73857C32.2417 9.508 32.2762 9.27059 32.2762 9.02176C32.2762 8.13145 31.869 7.33703 31.2294 6.80969C31.2179 6.80056 31.2041 6.79143 31.1926 6.78001C30.6957 6.3828 30.0654 6.14539 29.3775 6.14539C29.3154 6.14539 29.2556 6.14995 29.1934 6.15452C29.2049 6.1842 29.2441 6.72294 29.1474 7.74565C28.9772 9.55137 28.0708 10.8024 28.0708 10.8024L28.0731 10.7978Z" fill="white" fill-opacity="0.8"/>
<path d="M28.7149 13.576C28.7149 13.576 28.8277 14.1399 28.8967 14.391C28.9013 14.391 28.9657 14.3933 28.9657 14.3978C29.3982 14.2266 30.2448 13.9732 30.2448 13.6924V12.793C30.2448 12.6309 30.0792 12.478 29.787 12.3433C29.1888 12.0671 28.0685 11.8753 26.794 11.8502H26.0555C24.7419 11.8616 23.5617 12.0579 22.9451 12.3433C22.6507 12.478 22.4804 12.6309 22.4804 12.793V13.6924C22.4804 13.9732 23.3362 14.2243 23.7687 14.3978C23.7687 14.3955 23.8378 14.391 23.8424 14.391C23.9114 14.1376 24.0264 13.576 24.0264 13.576C24.0264 13.576 23.9344 13.5395 23.916 13.5007C23.8631 13.3888 23.9597 13.3226 24.1184 13.2336C24.2772 13.1468 24.5417 13.0943 24.7649 13.0875C24.9006 13.5806 24.9213 14.3545 24.8914 15.021C24.8316 16.3542 24.5785 18.0275 23.7825 19.1667C24.0862 19.4589 24.4198 19.8355 24.7603 20.3218C25.5862 18.7512 25.715 17.0322 25.784 15.2607C25.8139 14.48 25.784 13.5692 25.784 12.9437C25.8622 12.9437 26.1153 12.9117 26.3707 12.9117C26.626 12.9117 26.8768 12.9414 26.9527 12.9437C26.9527 13.5669 26.9228 14.48 26.9527 15.2607C27.024 17.0619 27.1529 18.8128 28.0179 20.4062C28.3307 19.952 28.639 19.5844 28.9243 19.2945C28.945 19.2671 28.9634 19.2397 28.9841 19.2123C28.1628 18.0732 27.9051 16.3702 27.8453 15.021C27.8154 14.3567 27.8361 13.5829 27.9718 13.0875C28.195 13.0966 28.4573 13.1468 28.6183 13.2336C28.7793 13.3226 28.8737 13.3865 28.8208 13.5007C28.8024 13.5372 28.7103 13.576 28.7103 13.576H28.7149Z" fill="white" fill-opacity="0.8"/>
<path d="M39.845 26.1613C39.845 26.1613 39.8381 26.1567 39.8335 26.1544C39.822 26.1544 39.8082 26.1499 39.7967 26.1499H39.776C39.7277 26.1567 39.684 26.1613 39.6403 26.1658C39.1686 26.1955 38.7085 26.159 38.3289 26.0129C38.115 25.9421 37.9286 25.8211 37.7492 25.6956C37.7078 25.6613 37.227 25.239 37.1396 25.1591C36.7922 24.8349 36.1342 24.3624 35.4556 24.2962C34.6895 24.2209 34.1995 24.4994 33.6519 24.714C33.6013 24.7345 33.5622 24.7847 33.5576 24.8418C33.553 24.9057 33.5921 24.9605 33.6473 24.9856C33.6657 24.997 33.6864 25.0039 33.7094 25.0062C34.2524 25.045 34.7723 25.1363 35.2623 25.2801C35.6258 25.3897 35.9893 25.5061 36.2745 25.707C36.6518 25.9718 36.9762 26.3097 37.1925 26.4466C37.4731 26.6224 37.7216 26.7936 38.0437 26.8575C38.3819 26.9146 38.7338 26.8918 39.0651 26.805C39.0789 26.8005 39.095 26.7959 39.1088 26.7913C39.1963 26.7708 39.2814 26.7365 39.3642 26.7046C39.4792 26.6589 39.5896 26.6087 39.6932 26.5471C39.6978 26.5448 39.7024 26.5425 39.707 26.5402C39.7737 26.5014 39.845 26.4695 39.9071 26.4215C39.9071 26.4215 39.9117 26.4215 39.914 26.4169C39.9531 26.3873 39.9761 26.3393 39.9715 26.2868C39.9669 26.2183 39.914 26.1681 39.8496 26.1567L39.845 26.1613Z" fill="white" fill-opacity="0.8"/>
<path d="M37.74 21.139C37.7745 21.2463 37.8895 21.3605 38.0207 21.4358C38.4302 21.6709 38.5751 22.0179 37.9632 22.0887C37.5168 22.1412 37.0498 21.8467 35.4003 22.2964C34.4318 22.5612 33.2907 23.5292 32.895 23.9766C32.7731 24.1159 32.6466 24.2756 32.5293 24.4446C32.1474 24.9925 32.1497 25.7321 32.5638 26.2571C32.8099 26.5699 33.086 26.7731 33.1665 26.8279C34.6159 27.8026 35.9755 26.9945 36.125 26.8484C36.2446 26.7297 36.2515 26.684 36.2285 26.6544C36.2262 26.6498 36.2216 26.6521 36.2193 26.6498C36.2193 26.6498 36.2193 26.6498 36.217 26.6498C36.2147 26.6452 35.7569 26.8918 35.1128 26.8918C34.7493 26.8918 34.3743 26.8279 34.066 26.6909C33.8383 26.5882 33.3137 26.3097 33.0055 25.8188C32.8053 25.4992 32.8467 25.0883 33.0883 24.8007C33.3321 24.5108 33.6266 24.2391 33.9027 24.036C34.5238 23.5817 35.2393 23.3077 36.0675 23.2963C36.0882 23.2963 36.1066 23.294 36.1273 23.294C36.5437 23.294 36.944 23.3671 37.319 23.4881C37.5076 23.5497 37.6917 23.625 37.8665 23.7141C38.398 23.9834 38.8581 24.3715 39.2101 24.8464C39.2101 24.8464 39.2101 24.8418 39.2124 24.8418C39.2147 24.8464 39.2193 24.8486 39.2216 24.8532C39.3573 24.6249 39.5091 24.2825 39.638 23.8008C39.661 23.7164 39.684 23.6296 39.7047 23.536C39.8887 22.7302 39.8358 20.8605 38.0414 20.8605C38.0092 20.8605 37.9747 20.8742 37.9425 20.8834C37.7515 20.9336 37.7055 21.0363 37.74 21.1436V21.139Z" fill="white" fill-opacity="0.8"/>
<path d="M8.27681 16.7788C8.59199 17.1418 8.88876 17.4363 9.16482 17.7308C9.27295 17.8472 9.37878 17.9613 9.4823 18.08C9.84119 18.4978 10.0873 19.3835 8.98768 20.2191C8.83355 20.3355 8.68861 20.4359 8.52527 20.5181C8.36193 20.6003 8.17789 20.6619 7.94553 20.7053V20.7076C7.94093 20.7076 7.93633 20.7099 7.93173 20.7121C9.17403 23.5885 11.1387 24.876 11.1387 24.876C11.1387 24.876 11.1341 24.8623 11.1318 24.8555C11.1433 24.8623 11.1525 24.8692 11.1525 24.8692C11.1525 24.8692 10.8258 24.0656 11.0237 22.422C11.1272 21.5636 11.3665 20.7099 11.4148 20.2647C11.4746 19.7328 11.3826 19.2397 11.0421 18.4978C10.6349 17.6075 10.4876 17.3541 10.2852 17.0277C9.8895 16.3907 9.13262 15.0553 9.13262 15.0553C9.13262 15.0553 9.36957 14.8133 9.75377 14.6284C9.98612 14.5188 10.2737 14.4321 10.5958 14.4321C11.4723 14.4321 11.7898 14.9434 11.983 15.1649C11.9761 15.1786 11.9692 15.2014 11.9623 15.2174C11.7598 15.642 11.6471 16.9751 11.822 17.9248C12.0359 19.0913 12.7744 19.8949 13.177 20.3857C13.1839 20.3948 13.2299 20.4382 13.2299 20.4382C13.5244 20.146 14.1179 20.0456 14.1225 20.0433C14.1225 20.0433 14.1087 19.4589 14.4055 18.9932C12.7008 18.6371 12.4362 17.7308 12.9538 15.8566C12.9584 15.8383 12.9699 15.8269 12.9745 15.8086C13.223 14.9663 13.4692 14.7585 13.3035 13.9435C13.1701 13.6194 12.6985 13.1879 12.4109 12.9939C11.6563 12.4848 10.6257 12.1698 9.78367 12.3136C9.51221 12.3593 9.24535 12.4529 8.99459 12.5921C8.2423 13.0053 7.65106 13.8271 7.65106 15.037C7.65106 15.1808 7.67177 15.3224 7.68787 15.4593C7.73848 15.8634 7.88342 16.3223 8.27911 16.7811L8.27681 16.7788Z" fill="white" fill-opacity="0.8"/>
<path d="M20.242 17.6212C20.242 17.6212 20.8585 17.6874 21.3417 17.8723C21.926 18.0983 22.1491 18.2901 22.1491 18.2901C22.1491 18.2901 22.2067 18.233 22.209 18.2307L22.2136 18.233C22.2136 18.233 22.6185 17.781 22.8416 17.313C22.9336 17.119 23.0395 16.7697 23.0441 16.74C23.1085 16.4022 23.0694 16.0757 22.9635 15.7812C22.8968 15.505 22.7197 15.2448 22.4597 15.0142C22.3102 14.8818 22.1307 14.7585 21.9283 14.6467C21.6338 14.5097 21.3163 14.4481 21.0081 14.5006V14.5051C21.0081 14.5051 20.9989 14.5051 20.9966 14.5051C21.0035 14.5097 21.0334 14.8727 20.9667 15.5735C20.8516 16.7811 20.2466 17.6189 20.2466 17.6189L20.242 17.6212Z" fill="white" fill-opacity="0.8"/>
<path d="M18.9721 17.571C19.0181 17.571 19.0687 17.5573 19.1193 17.5367C19.4552 17.4089 19.8877 16.8017 20.15 16.0757C20.4283 15.3018 20.3478 14.6261 20.0211 14.3156C19.9084 14.2152 19.7727 14.1399 19.63 14.0805C19.8049 13.9276 19.9245 13.7061 19.9245 13.455C19.9245 13.0692 19.6692 12.7565 19.3172 12.656V12.3182H19.8992V11.8525H19.3172V11.1174H18.8456V11.8525H18.2635V12.3182H18.8456V12.656C18.4959 12.7565 18.2428 13.0692 18.2428 13.455C18.2428 13.7038 18.3555 13.9253 18.5327 14.0782C18.5189 14.0851 18.5028 14.0874 18.489 14.0919C18.3969 14.133 18.3095 14.1832 18.229 14.2426C17.8793 14.5234 17.7367 15.1877 17.946 15.9821C18.1669 16.8313 18.627 17.5253 18.9744 17.5664L18.9721 17.571Z" fill="white" fill-opacity="0.8"/>
<path d="M15.1969 17.2559C15.3303 17.539 15.5305 17.8152 15.6708 17.9887C15.6869 17.9796 15.7007 17.9705 15.7191 17.9636C16.7521 17.5641 17.785 17.555 17.785 17.555V17.5504H17.7965C17.7965 17.5504 17.1915 16.7149 17.0764 15.505C17.0097 14.8042 17.0396 14.4435 17.0465 14.4366C16.7382 14.3841 16.4185 14.4458 16.1263 14.5827C16.1263 14.5827 16.124 14.5827 16.1217 14.585C16.1194 14.585 16.1171 14.585 16.1148 14.5873C15.9123 14.6992 15.7329 14.8224 15.5834 14.9548C15.3211 15.1854 15.1463 15.4456 15.0795 15.7219C14.9714 16.0164 14.9346 16.3428 14.9967 16.6807C15.0013 16.7103 15.1072 17.0573 15.1992 17.2537L15.1969 17.2559Z" fill="white" fill-opacity="0.8"/>
<path d="M18.8824 25.0062C18.9054 25.0062 18.9261 24.997 18.9445 24.9856C18.9997 24.9605 19.0388 24.9057 19.0342 24.8418C19.0296 24.7824 18.9905 24.7345 18.9399 24.714C18.39 24.4994 17.9023 24.2209 17.1339 24.2962C16.4553 24.3624 15.7973 24.8372 15.4499 25.1591C15.3648 25.239 14.884 25.6613 14.8403 25.6956C14.6608 25.8211 14.4745 25.9421 14.2605 26.0129C13.881 26.159 13.4231 26.1955 12.9492 26.1658C12.9055 26.1613 12.8618 26.1567 12.8135 26.1521H12.7928C12.779 26.1499 12.7675 26.1521 12.756 26.1544C12.7514 26.1544 12.7491 26.159 12.7445 26.1613C12.6801 26.1727 12.6272 26.2229 12.6226 26.2914C12.618 26.3439 12.641 26.3918 12.6801 26.4215C12.6801 26.4215 12.6847 26.4215 12.687 26.4261C12.7491 26.4717 12.8204 26.506 12.8871 26.5448C12.8917 26.5471 12.8963 26.5494 12.9009 26.5516C13.0044 26.611 13.1149 26.6635 13.2299 26.7092C13.315 26.7411 13.3978 26.7731 13.4853 26.7959C13.4991 26.8005 13.5152 26.805 13.529 26.8096C13.858 26.8941 14.2099 26.9192 14.5504 26.8621C14.8725 26.7982 15.121 26.627 15.4016 26.4512C15.6179 26.3142 15.9423 25.9786 16.3195 25.7116C16.6048 25.5107 16.9683 25.3942 17.3318 25.2847C17.8241 25.1408 18.3417 25.0495 18.8847 25.0107L18.8824 25.0062Z" fill="white" fill-opacity="0.8"/>
<path d="M12.8848 23.5314C12.9055 23.625 12.9285 23.7118 12.9515 23.7963C13.0804 24.2757 13.2345 24.6204 13.3679 24.8486C13.3702 24.8441 13.3748 24.8418 13.3771 24.8372C13.3771 24.8372 13.3771 24.8418 13.3794 24.8418C13.7314 24.367 14.1915 23.9812 14.723 23.7095C14.8978 23.6205 15.0818 23.5451 15.2705 23.4835C15.6455 23.3602 16.0458 23.2895 16.4622 23.2895C16.4829 23.2895 16.5013 23.2895 16.522 23.2917C17.3502 23.3054 18.0634 23.5794 18.6868 24.0314C18.9629 24.2323 19.2574 24.5062 19.5012 24.7961C19.7428 25.0838 19.7842 25.4947 19.584 25.8143C19.2758 26.3051 18.7512 26.5836 18.5235 26.6863C18.2129 26.8233 17.8402 26.8872 17.4767 26.8872C16.8326 26.8872 16.3771 26.6429 16.3725 26.6452C16.3725 26.6452 16.3725 26.6452 16.3702 26.6452C16.3679 26.6475 16.3633 26.6452 16.361 26.6498C16.338 26.6795 16.3449 26.7274 16.4645 26.8438C16.6117 26.9899 17.9736 27.7981 19.423 26.8233C19.5035 26.7685 19.7796 26.5653 20.0257 26.2526C20.4398 25.7275 20.4444 24.9879 20.0602 24.44C19.9429 24.2711 19.8164 24.1113 19.6945 23.972C19.2988 23.5246 18.1577 22.5567 17.1892 22.2919C15.5397 21.8422 15.0726 22.1366 14.6263 22.0841C14.0144 22.0111 14.1593 21.6664 14.5688 21.4312C14.7 21.3559 14.815 21.2418 14.8495 21.1345C14.884 21.0272 14.838 20.9244 14.647 20.8742C14.6148 20.8674 14.5803 20.8514 14.5481 20.8514C12.756 20.8514 12.7031 22.721 12.8848 23.5269V23.5314Z" fill="white" fill-opacity="0.8"/>
<path d="M34.6941 50.9711V50.9922C34.6941 50.9922 34.7035 50.9922 34.7082 50.9922C34.7035 50.9852 34.7012 50.9781 34.6941 50.9711Z" fill="white" fill-opacity="0.8"/>
<path d="M27.3116 32.8363C27.3714 32.955 27.6061 33.1422 27.6567 33.5029C27.6613 33.5417 28.5608 32.5578 28.5608 32.5578V31.6104L27.6015 32.0122L27.3116 32.8363Z" fill="white" fill-opacity="0.8"/>
<path d="M21.4567 57.6598C21.8915 57.5457 22.2872 57.411 22.7082 57.2512C22.9152 57.1713 23.1246 57.08 23.3316 56.9772C23.541 56.8722 23.748 56.7535 23.9482 56.612C24.146 56.475 24.3301 56.3015 24.4865 56.1052C24.567 56.007 24.6291 55.902 24.6867 55.7856C24.7143 55.7263 24.7442 55.6623 24.7626 55.6075L24.8017 55.4523V55.4477C24.8316 55.3359 24.7626 55.2217 24.6499 55.1921C24.6061 55.1806 24.5624 55.1875 24.5233 55.2012C24.4842 55.2126 24.452 55.2354 24.4244 55.2651C24.2933 55.4181 24.1529 55.5231 24.0011 55.6053C23.8516 55.6829 23.6905 55.7399 23.5203 55.7924C23.1706 55.8929 22.7841 55.9454 22.3907 55.9956C22.0019 56.0458 21.5786 56.0892 21.1921 56.1257C20.8056 56.16 20.4099 56.1805 20.0096 56.1942L18.7696 56.2353C18.3394 56.2581 17.8908 56.281 17.3755 56.3974C17.18 56.4431 16.9683 56.5024 16.7521 56.6029C16.6784 56.6371 16.6071 56.6736 16.5335 56.7193C16.2528 56.8928 15.9699 57.1758 15.8318 57.5069C15.6869 57.8356 15.6708 58.162 15.726 58.4383C15.7904 58.7168 15.9054 58.9565 16.1056 59.1665C16.1861 59.2487 16.308 59.2692 16.4093 59.2258C16.4438 59.2144 16.5312 59.1368 16.5312 59.1368C16.8878 58.5638 17.6539 58.2579 17.8011 58.2214C18.4177 58.0776 19.3011 58.041 20.1523 57.9155C20.5848 57.8539 21.0196 57.7717 21.4544 57.6598H21.4567Z" fill="white" fill-opacity="0.8"/>
<path d="M17.5687 55.2902C17.5618 55.4044 17.647 55.5002 17.762 55.5094C17.8103 55.5117 17.8563 55.5002 17.8931 55.4751L17.9 55.4706H17.9046L17.9713 55.4249C18.0703 55.3587 18.1692 55.3039 18.2681 55.2583C18.5741 55.1213 18.8824 55.0711 19.1837 55.0642C19.6001 55.0528 20.0234 55.103 20.5112 55.1875C21.0357 55.2811 21.6292 55.3245 22.2044 55.2765C22.4965 55.256 22.791 55.1989 23.0901 55.119C23.2396 55.0688 23.3914 55.0186 23.5456 54.9387H23.5479C23.5525 54.9387 23.5548 54.9364 23.5571 54.9341C23.6997 54.8542 23.8976 54.7538 23.9965 54.5346C24.0356 54.4501 23.9965 54.3497 23.9114 54.3109C23.8976 54.304 23.8861 54.2995 23.8723 54.2972C23.8723 54.2972 23.2879 54.1876 23.051 54.1214L22.3079 53.9319C21.7995 53.8087 21.314 53.7014 20.7711 53.6101C20.1914 53.5119 19.5035 53.5165 18.864 53.763C18.7834 53.795 18.7029 53.8292 18.6247 53.8703C18.0795 54.1488 17.6102 54.651 17.5664 55.2879L17.5687 55.2902Z" fill="white" fill-opacity="0.8"/>
<path d="M18.4038 53.2539C18.4292 53.2471 18.7719 53.1261 18.933 53.0736H18.9284C18.9353 53.0736 16.9223 52.3499 18.0634 51.0647L18.068 51.0145C18.068 51.0145 18.0611 51.0053 18.0588 51.0099C17.8678 50.9848 17.6723 51.0031 17.4951 51.0761C17.3157 51.1469 17.1569 51.2656 17.0281 51.4254C16.4806 52.0988 17.2306 52.827 17.2513 52.8407C17.1385 52.8316 16.8694 52.7928 16.759 52.7814C16.2735 52.4527 15.466 51.6377 16.6232 49.9187C16.5933 49.9142 16.5657 49.9141 16.5358 49.9119C16.3679 49.905 16.2045 49.9347 16.0504 50.0032C15.9607 50.0329 15.8732 50.0671 15.7927 50.1082C15.2245 50.3844 14.8357 50.9186 14.8357 51.5372C14.8357 51.7906 14.9047 52.0258 15.0197 52.2404C15.1026 52.3956 15.2153 52.5348 15.3464 52.6581C15.2613 52.6513 14.8932 52.6284 14.8035 52.6033C14.2744 51.9984 13.6877 50.8684 14.8173 49.5443C14.7874 49.5398 14.7598 49.5398 14.7299 49.5375C14.5642 49.5306 14.3986 49.5603 14.2444 49.6288C14.1432 49.6653 14.0466 49.711 13.9592 49.7612C13.3334 50.115 13.0298 50.793 13.0298 51.3523C13.0298 51.6057 13.1218 52.0166 13.2138 52.2404C13.9546 54.0415 17.4583 53.4959 18.4061 53.2585L18.4038 53.2539Z" fill="white" fill-opacity="0.8"/>
<path d="M36.2193 56.7193C36.1457 56.6736 36.0721 56.6371 36.0008 56.6029C35.7845 56.5024 35.5729 56.4431 35.3773 56.3974C34.862 56.2787 34.4134 56.2581 33.9832 56.2353L32.7432 56.1942C32.3429 56.1805 31.9495 56.16 31.5607 56.1257C31.1742 56.0869 30.7509 56.0458 30.3621 55.9956C29.9687 55.9454 29.5822 55.8929 29.2326 55.7924C29.06 55.7399 28.9013 55.6829 28.7517 55.6053C28.5999 55.5231 28.4596 55.4181 28.3284 55.2651C28.3031 55.2354 28.2686 55.2126 28.2295 55.2012C28.1904 55.1852 28.1467 55.1806 28.103 55.1921C27.9903 55.2195 27.9212 55.3336 27.9488 55.4477V55.4523L27.9903 55.6075C28.011 55.6646 28.0409 55.7262 28.0662 55.7856C28.1237 55.8997 28.1858 56.007 28.2663 56.1052C28.4228 56.3015 28.6068 56.475 28.8046 56.612C29.0048 56.7535 29.2118 56.8722 29.4212 56.9772C29.6282 57.0822 29.8353 57.1713 30.0446 57.2512C30.4656 57.411 30.859 57.5434 31.2961 57.6598C31.731 57.7739 32.1681 57.8538 32.5983 57.9155C33.4495 58.0388 34.3306 58.0776 34.9494 58.2214C35.099 58.2579 35.8627 58.5638 36.2193 59.1368C36.2193 59.1368 36.3068 59.2121 36.3413 59.2258C36.4425 59.2692 36.5644 59.2487 36.6449 59.1665C36.8451 58.9587 36.9601 58.7168 37.0245 58.4383C37.082 58.162 37.0636 57.8333 36.9187 57.5069C36.7807 57.1781 36.5 56.8951 36.217 56.7193H36.2193Z" fill="white" fill-opacity="0.8"/>
<path d="M29.1934 54.9341C29.1934 54.9341 29.198 54.9341 29.2026 54.9387H29.2049C29.3614 55.0209 29.5132 55.0688 29.6628 55.119C29.9618 55.1989 30.2563 55.256 30.5485 55.2765C31.1236 55.3222 31.7171 55.2811 32.2417 55.1875C32.7294 55.1008 33.1527 55.0505 33.5691 55.0642C33.8728 55.0711 34.181 55.1213 34.4847 55.2583C34.5836 55.3039 34.6826 55.3587 34.7815 55.4249L34.8482 55.4683H34.8528L34.862 55.4729C34.8988 55.498 34.9448 55.5117 34.9931 55.5071C35.1082 55.5003 35.1933 55.4021 35.1864 55.288C35.1427 54.651 34.6734 54.1488 34.1281 53.8703C34.0499 53.8292 33.9694 53.7927 33.8889 53.763C33.247 53.5142 32.5615 53.5119 31.9817 53.6101C31.4365 53.7014 30.9534 53.8087 30.4449 53.9319L29.7019 54.1214C29.4649 54.1899 28.8806 54.2972 28.8806 54.2972C28.8668 54.2972 28.853 54.304 28.8415 54.3109C28.7563 54.3497 28.7172 54.4501 28.7563 54.5346C28.8553 54.7515 29.0554 54.8542 29.1957 54.9341H29.1934Z" fill="white" fill-opacity="0.8"/>
<path d="M38.7914 49.7544C38.7016 49.7041 38.6073 49.6585 38.5061 49.6219C38.3519 49.5557 38.1886 49.5238 38.0207 49.5306C37.9908 49.5306 37.9632 49.5329 37.9332 49.5375C39.0628 50.8615 38.4762 51.9915 37.9471 52.5965C37.8596 52.6216 37.4915 52.6444 37.4041 52.6513C37.5352 52.528 37.648 52.3887 37.7308 52.2335C37.8458 52.0189 37.9148 51.7838 37.9148 51.5304C37.9148 50.9118 37.5261 50.3776 36.9578 50.1013C36.875 50.0602 36.7899 50.026 36.7002 49.9963C36.546 49.9301 36.3827 49.8982 36.2147 49.905C36.1848 49.905 36.1572 49.9073 36.1273 49.9119C37.2845 51.6308 36.477 52.4458 35.9916 52.7745C35.8789 52.786 35.612 52.827 35.4993 52.8339C35.52 52.8202 36.2677 52.0897 35.7224 51.4185C35.5913 51.2587 35.4348 51.14 35.2554 51.0693C35.076 50.9962 34.8827 50.9802 34.6918 51.0031C34.6895 50.9985 34.6872 51.0122 34.6826 51.0076L34.6872 51.0579C35.8282 52.3431 33.8176 53.0645 33.8222 53.0667H33.8176C33.9786 53.1215 34.3191 53.2425 34.3467 53.2494C35.2945 53.4868 38.796 54.0324 39.539 52.2312C39.6311 52.0075 39.7231 51.5943 39.7231 51.3432C39.7231 50.7839 39.4171 50.1059 38.7937 49.7521L38.7914 49.7544Z" fill="white" fill-opacity="0.8"/>
<path d="M32.2624 38.5434C31.8989 37.8859 31.3905 37.4522 30.7762 37.3586C30.4449 37.3084 30.1068 37.3631 29.7755 37.5001C29.7732 37.4978 29.7111 37.5275 29.7111 37.5275C29.4626 37.6394 29.2187 37.7992 28.9818 38.0023C28.0202 38.8333 27.2012 40.3765 26.8607 42.2187C26.5363 43.9788 26.725 45.6087 27.2748 46.6862C27.6406 47.403 28.1674 47.8801 28.8162 47.9783C29.4534 48.0765 30.1091 47.7957 30.7049 47.2455C31.6251 46.3963 32.4027 44.8988 32.7294 43.1182C33.0653 41.2987 32.8559 39.6186 32.2624 38.5434ZM27.889 41.6754C28.2571 40.2829 28.83 39.525 28.83 39.525C29.1589 39.0524 29.5247 38.7009 29.902 38.5137C30.2057 38.3425 30.5876 38.3265 30.9695 38.4954C31.165 38.5822 31.3376 38.7191 31.4687 38.8858C31.4687 38.8858 31.4687 38.8858 31.4687 38.8881C31.494 38.9269 31.5101 38.9543 31.5308 38.9862C31.5561 39.0342 31.5814 39.0798 31.6067 39.13C31.7356 39.3903 31.8253 39.6619 31.8943 39.9747C31.9012 40.0112 31.9081 40.05 31.915 40.0888C32.0507 41.0453 32.0438 41.1846 32.0369 42.1913C32.0369 42.2484 32.0093 42.6273 32.0024 42.6844C31.9541 43.0611 31.8046 43.8509 31.3583 44.9147C31.2248 45.3279 30.9212 45.7069 30.9304 45.7137C30.4058 46.5949 29.5937 47.1177 29.037 47.0515C28.6183 47.0035 28.3859 46.7684 28.2456 46.6132C27.8568 46.1772 27.8269 45.9375 27.7648 45.7434C27.6337 45.3279 27.6544 45.1179 27.6337 44.9033C27.5324 43.8213 27.6521 43.0246 27.7694 42.2963C27.7855 42.1982 27.8361 41.9539 27.8683 41.7964C27.8683 41.7964 27.8775 41.7439 27.889 41.6914" fill="white" fill-opacity="0.8"/>
<path d="M27.9626 41.6503C27.9718 41.6069 27.9811 41.5704 27.9857 41.5453L27.9626 41.6503Z" fill="white" fill-opacity="0.8"/>
<path d="M52.6476 33.4115C52.5993 33.2495 52.4865 33.1239 52.3485 33.0531C52.2128 32.9778 52.0471 32.9573 51.8861 33.0029L51.8608 33.0098C51.166 33.2152 50.4391 33.4321 49.7236 33.5942C49.367 33.6809 49.0104 33.7654 48.6538 33.843C48.2995 33.9183 47.9499 33.9777 47.5657 34.0279C46.818 34.1261 46.0657 34.2105 45.3157 34.2745C44.8349 34.3133 44.3426 34.3475 43.8618 34.3681C43.9308 34.3498 43.9975 34.3338 44.0688 34.3133C44.2782 34.2562 44.4829 34.1968 44.6854 34.1329C45.0903 34.0074 45.4883 33.8704 45.8817 33.7289C46.6684 33.4435 47.4322 33.133 48.1937 32.802C48.9552 32.4779 49.7558 32.1103 50.4598 31.6583C51.1706 31.1926 51.8378 30.7064 52.4635 30.1014C52.6568 29.9142 52.7051 29.6175 52.5648 29.3755C52.5004 29.2659 52.4083 29.186 52.3002 29.1358C52.1254 29.0491 51.9114 29.0468 51.7297 29.1518L51.7044 29.1655C51.0464 29.5421 50.347 29.9302 49.6523 30.2612C48.9483 30.6037 48.2811 30.9301 47.5312 31.1835C46.7858 31.4415 46.0266 31.6834 45.272 31.8935C44.8947 31.9985 44.5151 32.0944 44.1378 32.1811L43.8871 32.2336C44.078 32.1537 44.2644 32.0692 44.4438 31.9825C44.8556 31.7839 45.249 31.5716 45.6332 31.3524C46.4039 30.9118 47.1378 30.4416 47.8578 29.9531C48.5963 29.46 49.3302 28.9235 49.9697 28.3117C50.6093 27.6862 51.1959 27.0493 51.7136 26.2914C51.8654 26.0677 51.8516 25.7618 51.6606 25.554C51.6031 25.4924 51.5341 25.4445 51.4605 25.4125C51.2465 25.3121 50.9843 25.3394 50.7979 25.5084L50.7749 25.5289C50.186 26.0608 49.5487 26.611 48.9023 27.0972C48.2535 27.5926 47.6186 28.0766 46.9077 28.4806C46.7743 28.5582 46.6385 28.629 46.5051 28.7043C45.9139 29.0376 45.318 29.3572 44.7153 29.6449C44.598 29.6997 44.4829 29.7522 44.3656 29.8047C44.147 29.9051 43.9262 29.9987 43.7076 30.0877C43.7467 30.0604 43.7882 30.0352 43.8273 30.0078C44.0849 29.8275 44.3288 29.638 44.5657 29.4485C44.6969 29.3435 44.828 29.2385 44.9568 29.1312C45.6631 28.5354 46.3211 27.9054 46.9514 27.2684C46.9583 27.2593 46.9675 27.2525 46.9767 27.2433C47.6462 26.5676 48.2719 25.8714 48.8034 25.1043C49.3279 24.3259 49.7972 23.5451 50.163 22.6548C50.2665 22.4037 50.186 22.1047 49.9536 21.9403C49.949 21.938 49.9467 21.938 49.9421 21.9357C49.6707 21.7463 49.2957 21.8102 49.1047 22.0796L49.0863 22.1047C48.6032 22.785 48.0718 23.4881 47.5128 24.1295C47.3471 24.3236 47.1769 24.5176 47.0089 24.7094C46.6132 25.1568 46.206 25.5906 45.7643 25.9786C45.5435 26.1727 45.318 26.3599 45.0949 26.5471C44.69 26.8872 44.2805 27.2182 43.8618 27.5264C43.9262 27.4442 43.9929 27.3598 44.055 27.2776C44.4001 26.8073 44.7199 26.3279 45.0236 25.8462C45.2352 25.5107 45.4399 25.1751 45.6401 24.8349C45.9921 24.2505 46.3142 23.6502 46.5925 23.0315C46.7168 22.7553 46.8364 22.4768 46.9399 22.1914C47.2735 21.2669 47.5427 20.3492 47.6853 19.347C47.7244 19.0731 47.5657 18.7991 47.2919 18.7033C47.2919 18.7033 47.2919 18.7033 47.2896 18.7033C47.285 18.7033 47.2827 18.6987 47.2804 18.6987C46.9675 18.5891 46.6247 18.7512 46.5143 19.0617L46.5051 19.0913C46.252 19.8013 45.9461 20.5295 45.6148 21.2349C45.5619 21.3468 45.5159 21.4632 45.4607 21.5728C45.088 22.3352 44.6969 23.0863 44.2437 23.7894C44.2161 23.8305 44.1908 23.8739 44.1654 23.915C43.825 24.4126 43.4684 24.8943 43.1026 25.3646C41.9776 26.6064 40.0843 27.8506 39.0605 28.3459C38.5613 28.5856 38.0529 28.9167 37.5422 29.1632C37.5353 29.1678 37.5261 29.1723 37.5191 29.1746C37.1741 29.3413 36.8796 29.6061 36.7048 29.9439C36.661 30.0307 36.6242 30.1197 36.5943 30.2133C36.5391 30.3777 36.5069 30.5512 36.5069 30.7315C36.5069 31.3821 36.8635 32.0053 37.3995 32.2861C37.579 32.382 37.7768 32.4391 37.9885 32.4436C38.023 32.4436 38.0506 32.4391 38.0828 32.4368C38.2668 32.4185 38.3681 32.3386 38.3681 32.3386C38.3681 32.3386 38.2254 31.9574 38.444 31.7839C38.4808 31.7611 38.5176 31.7405 38.559 31.7223C38.6602 31.6766 38.7729 31.6492 38.8903 31.6492C39.0007 31.6492 39.1065 31.672 39.2032 31.7108C39.4884 31.8341 39.6886 32.1172 39.6886 32.4459C39.6886 32.8523 39.3826 33.1855 38.9869 33.2381C38.8075 33.3088 38.4624 33.318 38.2438 33.318C37.7883 33.318 37.3443 33.27 36.9141 33.1924C36.3229 33.0851 35.7569 32.8979 35.2301 32.6582C34.5905 32.366 33.415 31.51 33.4334 31.462C32.2233 30.348 31.4572 28.8162 31.3928 27.1223C31.3905 27.0447 31.379 26.9671 31.379 26.8895C31.379 26.6452 31.3974 26.3804 31.425 26.143C31.4756 25.7252 31.5699 25.3143 31.701 24.9194C31.938 24.2094 32.2946 23.5451 32.7547 22.9744C32.7984 22.9196 33.0055 22.6936 33.2746 22.4288C33.2907 22.4129 33.3068 22.3969 33.3229 22.3832C33.3252 22.3809 33.3275 22.3786 33.3321 22.374C33.6266 22.0864 33.9855 21.7645 34.2892 21.5659C34.2892 21.5659 34.2892 21.5659 34.2915 21.5659C34.2708 21.5522 34.2363 21.5226 34.204 21.4906C34.1649 21.4518 34.1258 21.4107 34.1028 21.3879C33.5461 21.3331 33.3482 21.0705 33.2539 20.8491C33.2516 20.8423 33.2493 20.8354 33.2447 20.8286C33.2378 20.8103 33.2286 20.792 33.224 20.7761C33.1941 20.6939 33.1964 20.4405 33.2056 20.4062C33.247 20.2031 33.3712 19.9999 33.4771 19.9017C33.5277 19.847 33.5783 19.7967 33.6335 19.7556C33.8015 19.6278 33.9924 19.557 34.1948 19.5182C34.2455 19.5068 34.2961 19.4977 34.3467 19.4931C34.3536 19.4931 34.3605 19.4908 34.3674 19.4908C34.885 19.436 35.3957 19.6598 35.6005 20.1848V20.1894C35.5729 20.2099 35.2738 20.2647 35.2738 20.2647C35.168 20.0387 34.9908 19.9451 34.7838 19.9588C34.7148 19.9634 34.6435 19.9816 34.5675 20.0113C34.5192 20.0296 34.4778 20.0547 34.4433 20.0844C34.112 20.3652 34.4019 21.0751 34.862 21.1231C34.9333 21.1299 35.0092 21.1231 35.0898 21.0934C35.0921 21.0934 35.0967 21.0934 35.099 21.0911C35.3014 21.0112 36.5851 20.7053 37.3558 20.5843C37.503 20.5615 37.6342 20.5432 37.7354 20.5364C37.7377 20.5364 37.7423 20.5318 37.7446 20.5318C37.878 20.3172 37.8826 18.9019 36.76 18.4407C35.872 18.0755 35.1013 18.0184 34.4042 18.0161C33.7715 18.0161 33.1987 18.08 32.6098 18.2079C30.3253 18.7055 28.9335 20.0204 27.6613 22.8603C26.7986 24.5405 26.488 26.1521 26.3638 26.595C26.3638 26.595 26.3154 26.595 26.2372 26.595C26.1084 26.1202 25.8001 24.5176 24.9489 22.8626C23.6744 20.0204 22.278 18.7078 19.9935 18.2079C19.4046 18.08 18.8225 18.0138 18.1922 18.0161C17.4951 18.0161 16.7244 18.0755 15.8364 18.4407C14.7138 18.9019 14.7184 20.3172 14.8518 20.5318C14.8541 20.5318 14.8587 20.5364 14.861 20.5364C14.9599 20.5432 15.0911 20.5592 15.2406 20.5843C16.0136 20.7053 17.295 21.0112 17.4974 21.0911C17.4997 21.0911 17.5043 21.0911 17.5066 21.0934C17.5849 21.1231 17.6608 21.1299 17.7344 21.1231C18.2405 21.0683 18.5442 20.2122 18.0335 20.0113C17.9598 19.9816 17.8862 19.9657 17.8172 19.9588C17.6102 19.9428 17.433 20.0387 17.3272 20.2647C17.3272 20.2647 17.012 20.2054 16.9982 20.1871V20.1825C17.2053 19.6575 17.716 19.436 18.2336 19.4885C18.2405 19.4885 18.2474 19.4908 18.2543 19.4908C18.3049 19.4954 18.3555 19.5045 18.4061 19.5159C18.6753 19.5684 18.9261 19.6757 19.1262 19.9017C19.232 19.9999 19.354 20.2031 19.3977 20.4085C19.4069 20.4451 19.4092 20.6962 19.3793 20.7783C19.3747 20.7943 19.3655 20.8126 19.3586 20.8309C19.3563 20.8377 19.354 20.8445 19.3494 20.8514C19.2551 21.0751 19.0572 21.3376 18.5005 21.3901C18.4798 21.413 18.4384 21.4564 18.3992 21.4929C18.3647 21.5248 18.3325 21.5545 18.3118 21.5682C18.6385 21.7805 19.0227 22.1321 19.3287 22.4334C19.5955 22.6959 19.8026 22.9242 19.8486 22.979C20.3064 23.5497 20.6653 24.214 20.9022 24.924C21.0334 25.3212 21.13 25.7321 21.1783 26.1499C21.2059 26.3873 21.2243 26.6544 21.2243 26.8986C21.2243 26.9785 21.2151 27.0584 21.2105 27.136C21.2059 27.2776 21.1944 27.4168 21.1783 27.5561C21.0265 28.266 20.7067 29.4189 20.1155 30.3936C20.0856 30.437 20.0556 30.4827 20.0234 30.526H20.0326C19.8072 30.8776 19.5449 31.1995 19.2389 31.4643C19.2574 31.5122 18.0818 32.3683 17.4422 32.6605C16.9154 32.9002 16.3518 33.0851 15.7582 33.1947C15.328 33.2723 14.884 33.3202 14.4285 33.3202C14.2099 33.3202 13.8649 33.3088 13.6854 33.2403C13.2897 33.1878 12.9837 32.8545 12.9837 32.4482C12.9837 32.1195 13.1839 31.8387 13.4692 31.7131C13.5658 31.672 13.6716 31.6515 13.782 31.6515C13.9017 31.6515 14.0121 31.6789 14.1133 31.7245C14.1524 31.7428 14.1915 31.7633 14.2283 31.7862C14.4469 31.9574 14.3043 32.3409 14.3043 32.3409C14.3043 32.3409 14.4055 32.4185 14.5895 32.4391C14.6194 32.4413 14.647 32.4482 14.6839 32.4459C14.8955 32.4391 15.0957 32.382 15.2728 32.2884C15.8088 32.0099 16.1654 31.3844 16.1654 30.7338C16.1654 30.5512 16.1309 30.3777 16.078 30.2156C16.0481 30.122 16.0113 30.033 15.9676 29.9462C15.7927 29.6083 15.4982 29.3435 15.1532 29.1769C15.1463 29.1723 15.1371 29.1678 15.1302 29.1655C14.6194 28.9166 14.1087 28.5879 13.6118 28.3482C12.588 27.8528 10.6924 26.611 9.56972 25.3668C9.20623 24.8966 8.84965 24.4149 8.50687 23.9172C8.47926 23.8762 8.45395 23.8328 8.42865 23.7917C7.97314 23.0863 7.58434 22.3375 7.21166 21.5751C7.15644 21.4655 7.11043 21.3491 7.05752 21.2372C6.72624 20.5341 6.42027 19.8036 6.1672 19.0936L6.158 19.0639C6.04758 18.7535 5.70479 18.5914 5.39192 18.701C5.38732 18.701 5.38502 18.7055 5.38272 18.7055C5.38272 18.7055 5.38272 18.7055 5.38041 18.7055C5.10665 18.8014 4.94791 19.0754 4.98702 19.3493C5.12965 20.3492 5.39882 21.2669 5.7324 22.1937C5.83592 22.4768 5.95555 22.7576 6.07978 23.0338C6.35815 23.6502 6.68023 24.2505 7.03221 24.8372C7.23236 25.1774 7.43711 25.5129 7.64876 25.8485C7.95243 26.3302 8.27221 26.8096 8.61729 27.2799C8.67941 27.3643 8.74612 27.4465 8.81054 27.5287C8.39184 27.2182 7.98464 26.8895 7.57744 26.5494C7.35429 26.3622 7.12884 26.175 6.90798 25.9809C6.46628 25.5928 6.05908 25.1591 5.66338 24.7117C5.49314 24.5199 5.3252 24.3282 5.15956 24.1318C4.60053 23.4904 4.0668 22.7872 3.58598 22.107L3.56758 22.0818C3.37663 21.8125 3.00164 21.7485 2.73018 21.938C2.72558 21.9403 2.72328 21.9403 2.71867 21.9426C2.48632 22.1047 2.4058 22.4037 2.50932 22.6571C2.87741 23.5474 3.34443 24.3282 3.86895 25.1066C4.40038 25.8736 5.02613 26.5722 5.69559 27.2456C5.70249 27.2547 5.71169 27.2616 5.7209 27.2707C6.35125 27.9099 7.00921 28.5377 7.71548 29.1335C7.84201 29.2408 7.97544 29.3458 8.10657 29.4508C8.34353 29.6426 8.58739 29.8298 8.84505 30.0101C8.88416 30.0375 8.92557 30.0649 8.96468 30.09C8.74612 30.001 8.52527 29.9074 8.30672 29.807C8.18939 29.7544 8.07206 29.7019 7.95703 29.6472C7.35429 29.3595 6.75845 29.0399 6.1672 28.7066C6.03377 28.6313 5.89804 28.5605 5.76461 28.4829C5.05374 28.0788 4.42108 27.5949 3.77003 27.0995C3.12127 26.6133 2.48632 26.0631 1.89738 25.5312L1.87437 25.5107C1.68803 25.3417 1.42576 25.3121 1.21181 25.4148C1.13819 25.4467 1.07148 25.4947 1.01166 25.5563C0.820718 25.7641 0.806915 26.07 0.958751 26.2937C1.47408 27.0493 2.06302 27.6885 2.70257 28.314C3.34212 28.9258 4.076 29.4622 4.81448 29.9553C5.53455 30.4439 6.26843 30.9164 7.03911 31.3547C7.42331 31.5739 7.819 31.7862 8.2285 31.9848C8.40794 32.0715 8.59429 32.1537 8.78523 32.2359L8.53447 32.1834C8.15718 32.0989 7.77989 32.0008 7.4003 31.8957C6.64572 31.6857 5.88424 31.4437 5.14116 31.1858C4.39118 30.9324 3.72172 30.6059 3.02005 30.2635C2.32528 29.9325 1.62591 29.5444 0.967954 29.1678L0.942648 29.1541C0.760904 29.0491 0.546952 29.0513 0.37211 29.1381C0.266285 29.1883 0.171962 29.2705 0.107547 29.3778C-0.032787 29.6198 0.0155246 29.9188 0.208771 30.1037C0.834522 30.7087 1.50168 31.1949 2.21255 31.6606C2.91882 32.1126 3.71711 32.4802 4.4786 32.8043C5.24008 33.1376 6.00386 33.4458 6.79065 33.7311C7.18405 33.8727 7.57974 34.0096 7.98694 34.1352C8.18939 34.1991 8.39414 34.2585 8.60349 34.3155C8.67481 34.3361 8.74382 34.3521 8.81054 34.3703C8.33203 34.3498 7.83971 34.3156 7.35659 34.2767C6.60661 34.2128 5.85433 34.1284 5.10665 34.0302C4.72246 33.98 4.37277 33.9183 4.01849 33.8453C3.6642 33.7677 3.30762 33.6832 2.94873 33.5965C2.23556 33.4321 1.50628 33.2175 0.811516 33.0121L0.78621 33.0052C0.625171 32.9573 0.459531 32.9801 0.323799 33.0554C0.183465 33.1285 0.0730384 33.2517 0.0247268 33.4138C-0.053492 33.6786 0.0592352 33.9549 0.28699 34.0941C0.990959 34.5233 1.70643 34.8406 2.46101 35.1305C3.20409 35.4113 4.02999 35.5917 4.78917 35.7492C5.55526 35.9135 6.32364 36.0642 7.09893 36.1943C7.796 36.3085 8.47466 36.4089 9.20623 36.4842C8.76223 36.5368 8.31592 36.587 7.87191 36.6303C7.15644 36.6988 6.43867 36.7582 5.7209 36.8038C5.54145 36.8175 5.36661 36.8221 5.18027 36.8289L4.66494 36.8381L3.62279 36.8175C2.92572 36.8107 2.20795 36.7605 1.51549 36.7239H1.49248C1.36825 36.7171 1.24862 36.7491 1.1497 36.8084C0.977156 36.9066 0.857527 37.0846 0.846024 37.2946C0.832221 37.5686 1.00476 37.8083 1.25322 37.8927C1.9894 38.1439 2.71637 38.2922 3.47096 38.4155C3.84825 38.4703 4.22784 38.5045 4.61203 38.5205C4.80298 38.5297 4.99622 38.5342 5.18947 38.5365L5.7439 38.5434C6.48468 38.5593 7.22316 38.5616 7.96394 38.5525C8.47696 38.5456 8.58739 38.5456 9.10271 38.5274L9.16943 38.7488C8.32282 39.0136 7.74538 39.1848 6.89188 39.42C6.22702 39.6049 5.59897 39.7282 4.94331 39.8628C4.29455 40.0067 3.62049 40.1231 2.96943 40.2555L2.95103 40.26C2.90732 40.2692 2.86361 40.2829 2.8245 40.3011C2.56454 40.4107 2.4081 40.6892 2.46791 40.9723C2.52313 41.2371 2.74858 41.4266 3.00624 41.4494C3.73322 41.5133 4.43489 41.4928 5.15266 41.4494C5.86583 41.4015 6.5882 41.2417 7.26917 41.1161C7.95473 40.9906 8.96468 40.7531 9.64334 40.6116L9.69625 40.7805C9.41328 40.9403 8.80134 41.2645 8.51837 41.4197C8.2354 41.575 7.95243 41.7165 7.66947 41.8535C7.3888 41.9882 7.10813 42.1206 6.82746 42.2621C6.82746 42.2621 6.82056 42.2667 6.81596 42.2689C6.25002 42.5589 5.66568 42.8374 5.09975 43.1387L5.09055 43.1433C4.79607 43.3008 4.68795 43.666 4.84669 43.9582C4.97552 44.1934 5.24008 44.3098 5.49314 44.2619C6.1603 44.1363 6.79295 43.9468 7.43481 43.7437C8.07206 43.5336 8.68861 43.2391 9.29366 42.9766C9.45469 42.9059 10.0873 42.6365 10.2484 42.5657L10.3588 43.0656C10.2599 43.1341 9.9056 43.3807 9.9033 43.3807L9.20393 43.9811C8.74382 44.3874 8.31362 44.8326 7.90642 45.3074C7.68787 45.5631 7.71778 45.9443 7.97314 46.1612C8.16638 46.3255 8.43555 46.3461 8.6495 46.2342C8.6518 46.2342 8.6541 46.2319 8.6587 46.2297C8.6587 46.2297 8.661 46.2297 8.6633 46.2297C9.22234 45.942 9.75377 45.6201 10.2553 45.2595L10.7867 44.9513C10.7867 44.9627 11.0789 46.6976 11.1548 47.4145C11.3918 49.6539 11.325 52.2312 11.5689 52.5326C11.7714 52.7837 12.1763 52.7266 12.5397 52.738C12.5144 52.6513 12.5029 52.5737 12.4845 52.4892C12.4845 52.4801 12.4845 52.4732 12.4845 52.4641C12.2246 51.2633 12.5834 50.3776 12.8066 50.0169C12.8112 50.01 12.8066 50.0032 12.8112 49.9986C12.8158 49.9918 12.8365 49.9187 12.8365 49.9027C12.7583 48.4782 12.565 46.1817 12.2407 44.3965C11.723 41.5521 10.8557 36.9979 10.6096 35.7081C10.5958 35.6305 10.6234 35.562 10.6717 35.514C10.7246 35.4661 10.8028 35.4433 10.8833 35.4638C11.7621 35.6852 13.2069 35.8131 14.1386 35.8747C14.8357 35.9204 16.4967 35.9158 18.2106 35.3931C17.4836 37.0938 17.0695 39.0433 17.0695 41.1161C17.0695 45.1773 18.6592 48.7705 21.0794 50.9254C20.7918 50.9711 20.5802 51.0099 20.5204 51.0305C19.8969 51.2473 19.4092 51.5601 19.1331 51.7176C19.1262 51.7221 19.1216 51.7267 19.1147 51.7313C19.0963 51.7404 19.0756 51.7473 19.0595 51.7564C18.9652 51.8089 18.9583 51.9139 18.9813 52.0189C19.0457 52.3134 19.209 52.6787 19.3701 52.8955C19.4069 52.9435 19.4414 52.9891 19.5012 52.9937C21.765 53.1055 23.4283 53.2768 24.7626 54.1146C24.7695 54.1191 24.7741 54.1214 24.781 54.126C24.8178 54.1488 24.85 54.1762 24.8868 54.2013C25.5172 54.6944 25.7702 55.7125 25.2572 56.4385C25.0801 56.6188 24.896 56.7946 24.7143 56.9613C24.0931 57.4909 23.4214 57.9429 22.7151 58.283C22.0088 58.6254 21.268 58.8377 20.5204 58.945C19.7658 59.082 19.0135 59.1802 18.0312 59.4107H18.0243C17.992 59.4199 17.9621 59.4336 17.9368 59.4518C17.8563 59.5043 17.8103 59.6025 17.8333 59.7029C17.8425 59.744 17.8632 59.7806 17.8908 59.8102C18.6132 60.5841 19.6807 60.89 20.709 60.8329C21.4866 60.7736 22.2435 60.5522 22.9336 60.2234C23.1637 60.1138 23.3891 59.9929 23.6031 59.8627C24.4612 59.3377 25.1974 58.6528 25.7541 57.8447C25.7656 57.8287 25.7771 57.8105 25.7886 57.7945C25.7886 57.8036 25.784 57.8127 25.7817 57.8219C25.6552 58.2579 25.2365 59.4016 24.9006 59.7851C24.5624 60.1732 24.2519 60.543 23.893 60.8352C23.6261 61.0521 23.3454 61.237 23.0326 61.3922C22.929 61.4425 22.8232 61.4904 22.7151 61.5338C22.2642 61.7187 21.7443 61.8397 21.1346 61.9698H21.1277C21.0978 61.9766 21.0702 61.9903 21.0449 62.0086C20.9667 62.0565 20.923 62.1479 20.9414 62.2437C20.9529 62.3008 20.9851 62.3487 21.0288 62.3784C21.5717 62.7597 22.255 62.94 22.9658 62.8966C23.3247 62.8761 23.6836 62.7893 24.0218 62.6501C24.3577 62.5154 24.6729 62.3282 24.9489 62.0999C25.0409 62.0246 25.1169 61.9401 25.1997 61.8556C25.3561 62.1638 25.5218 62.4743 25.6414 62.7825C25.8001 63.15 25.9244 63.5176 26.1291 63.8851C26.1751 63.9673 26.2763 64.0061 26.3155 63.9992C26.3155 64.0061 26.4742 63.9673 26.5202 63.8851C26.7226 63.5176 26.8676 63.15 27.0263 62.7825C27.1459 62.4743 27.3116 62.1661 27.468 61.8556C27.5508 61.9401 27.6245 62.0246 27.7188 62.0999C27.9949 62.3282 28.31 62.5154 28.6459 62.6501C28.9841 62.7893 29.343 62.8738 29.7019 62.8966C30.4104 62.9377 31.096 62.7597 31.6389 62.3784C31.6826 62.3487 31.7148 62.3008 31.7264 62.2437C31.7471 62.1501 31.701 62.0565 31.6228 62.0086C31.5975 61.9903 31.5699 61.9789 31.54 61.9721H31.5331C30.9235 61.8397 30.4035 61.721 29.9526 61.5338C29.8422 61.4904 29.7364 61.4425 29.6352 61.3922C29.3223 61.237 29.0416 61.0521 28.7747 60.8352C28.4159 60.543 28.1053 60.1732 27.7671 59.7851C27.4312 59.4016 27.0125 58.2579 26.886 57.8219C26.8837 57.8127 26.8814 57.8036 26.8791 57.7945C26.8906 57.8127 26.9021 57.8287 26.9136 57.8447C27.4703 58.6506 28.2065 59.3354 29.0646 59.8627C29.2809 59.9929 29.504 60.1138 29.7341 60.2234C30.4242 60.5522 31.1811 60.7736 31.9587 60.8329C32.9871 60.89 34.0545 60.5841 34.7769 59.8102C34.8045 59.7806 34.8252 59.744 34.8344 59.7029C34.8574 59.6025 34.8137 59.5066 34.7309 59.4518C34.7056 59.4336 34.6757 59.4199 34.6435 59.413H34.6366C33.6519 59.1802 32.8996 59.082 32.1474 58.945C31.3974 58.8377 30.6589 58.6254 29.9526 58.283C29.2464 57.9452 28.5723 57.4932 27.9534 56.9613C27.7717 56.7946 27.5877 56.6211 27.4105 56.4385C26.8975 55.7125 27.1506 54.6944 27.7809 54.2013C27.8177 54.1785 27.8499 54.1488 27.8867 54.126C27.8936 54.1214 27.8982 54.1191 27.9051 54.1146C29.2395 53.2745 30.9028 53.1055 33.1665 52.9937C33.2263 52.9914 33.2608 52.9435 33.2976 52.8955C33.4587 52.6787 33.622 52.3134 33.6864 52.0189C33.7094 51.9139 33.7025 51.8089 33.6082 51.7564C33.5921 51.7473 33.5714 51.7404 33.553 51.7313C33.5461 51.7267 33.5392 51.7199 33.5323 51.7176C33.2585 51.5601 32.7639 51.2473 32.1405 51.0305C32.0829 51.0099 31.8759 50.9734 31.609 50.93C34.0338 48.775 35.6281 45.1818 35.6281 41.1138C35.6281 39.0433 35.2094 37.096 34.4847 35.3976C36.1894 35.9135 37.8412 35.9181 38.536 35.8724C39.4677 35.8108 40.9125 35.683 41.7913 35.4615C41.8718 35.441 41.9477 35.4638 42.0029 35.5118C42.0512 35.5597 42.0788 35.6305 42.065 35.7058C41.8189 36.9956 40.9516 41.5499 40.4339 44.3943C40.1096 46.1772 39.9163 48.476 39.8381 49.9005C39.8381 49.9164 39.8588 49.9872 39.8634 49.9963C39.8657 50.0032 39.8634 50.01 39.868 50.0146C40.0912 50.3776 40.4501 51.261 40.1901 52.4618C40.1901 52.4709 40.1901 52.4778 40.1901 52.4869C40.1717 52.5691 40.1602 52.649 40.1349 52.7357C40.4984 52.7243 40.9033 52.7814 41.1057 52.5303C41.3496 52.2289 41.2829 49.6516 41.5198 47.4122C41.5957 46.6931 41.8856 44.9604 41.8879 44.949L42.4193 45.2572C42.9231 45.6156 43.4523 45.9375 44.0113 46.2274C44.0113 46.2274 44.0136 46.2274 44.0159 46.2274C44.0182 46.2274 44.0205 46.2297 44.0251 46.2319C44.2391 46.3415 44.5082 46.3233 44.7015 46.1589C44.9591 45.942 44.9867 45.5608 44.7682 45.3051C44.361 44.8303 43.9308 44.3851 43.4707 43.9788L42.7713 43.3784C42.7713 43.3784 42.4147 43.1319 42.3158 43.0634L42.4262 42.5634C42.585 42.6342 43.2199 42.9036 43.381 42.9743C43.986 43.2369 44.6026 43.5313 45.2398 43.7414C45.8794 43.9445 46.512 44.1317 47.1815 44.2596C47.4345 44.3075 47.6991 44.1911 47.8279 43.956C47.9867 43.6638 47.8785 43.2985 47.5841 43.141L47.5749 43.1364C47.0112 42.8328 46.4246 42.5566 45.8587 42.2667C45.8541 42.2667 45.8517 42.2644 45.8471 42.2621C45.5665 42.1206 45.2858 41.9882 45.0051 41.8535C44.7222 41.7165 44.4392 41.575 44.1562 41.4197C43.8733 41.2645 43.2613 40.9403 42.9784 40.7805L43.0313 40.6116C43.7099 40.7531 44.7199 40.9906 45.4054 41.1161C46.0864 41.2417 46.8088 41.4015 47.522 41.4494C48.2397 41.4928 48.9414 41.5133 49.6684 41.4494C49.9283 41.4266 50.1515 41.2394 50.2067 40.9723C50.2665 40.6869 50.1101 40.4084 49.8501 40.3011C49.811 40.2829 49.7696 40.2692 49.7236 40.26L49.7052 40.2555C49.0541 40.1231 48.3801 40.0067 47.7313 39.8628C47.0756 39.7282 46.4476 39.6049 45.7827 39.42C44.9292 39.1825 44.3518 39.0113 43.5052 38.7488L43.5719 38.5274C44.0849 38.5456 44.1977 38.5456 44.7107 38.5525C45.4492 38.5616 46.1899 38.5593 46.9307 38.5434L47.4851 38.5365C47.6784 38.5342 47.8716 38.5297 48.0626 38.5205C48.4468 38.5045 48.8264 38.4703 49.2037 38.4155C49.9582 38.2922 50.6852 38.1439 51.4214 37.8927C51.6698 37.8083 51.8424 37.5663 51.8286 37.2946C51.8171 37.0846 51.6975 36.9043 51.5249 36.8084C51.426 36.7491 51.3064 36.7171 51.1821 36.7239H51.1591C50.4667 36.7627 49.7489 36.8107 49.0518 36.8175L48.0097 36.8381L47.4943 36.8289C47.3103 36.8221 47.1332 36.8175 46.9537 36.8038C46.2359 36.7582 45.5182 36.6988 44.8027 36.6303C44.3587 36.587 43.9124 36.5368 43.4684 36.4842C44.1977 36.4089 44.8763 36.3085 45.5757 36.1943C46.351 36.0642 47.1194 35.9158 47.8854 35.7492C48.6446 35.5939 49.4705 35.4113 50.2136 35.1305C50.9682 34.8406 51.6837 34.5233 52.3876 34.0941C52.6131 33.9549 52.7281 33.6786 52.6499 33.4138L52.6476 33.4115ZM26.3431 51.7244C26.3431 51.7244 26.3224 51.7244 26.3132 51.7244C23.6215 51.7107 21.2404 49.9164 19.8026 47.1862C20.472 46.063 21.8593 43.6135 21.8593 43.6135C21.9904 44.1157 22.7634 47.4373 22.7634 47.4373C22.7634 47.4373 21.7857 47.855 22.2803 48.1541C22.7749 48.4531 23.824 48.2317 23.824 48.2317C23.824 48.2317 24.0908 48.4714 24.3784 48.6723C24.7212 48.928 25.1077 49.1174 25.5264 49.227C25.6851 49.2887 25.7932 49.3252 25.7932 49.3252C25.7932 49.3252 25.6943 49.784 25.8438 50.0237C25.9014 50.1173 25.9566 50.1972 26.1452 50.1972C26.1981 50.1972 26.2556 50.1858 26.3085 50.1653C26.4719 50.1059 26.6283 49.9758 26.7157 49.8845C26.9412 49.6539 27.0217 49.4895 27.192 49.2658C27.1851 49.2544 27.192 49.2407 27.2081 49.2225C27.6084 49.1152 28.0317 48.9713 28.4343 48.4714C27.4565 48.0924 26.6283 47.2067 26.3085 45.7434C26.1912 45.2092 26.1268 44.6271 26.1199 44.013C26.113 43.3716 26.1659 42.6981 26.2947 42.0064C26.2993 41.9813 26.3039 41.9585 26.3085 41.9356C26.7687 39.5364 28.2686 37.7078 28.7034 37.5503C28.5677 37.2421 28.6252 36.4614 27.5739 36.03C27.3484 35.9364 26.6421 35.8953 26.5777 35.5734C26.909 35.3497 27.1621 34.9296 27.2242 34.4251C27.307 33.7471 27.0194 33.1399 26.5593 32.923C26.6697 32.6742 26.9389 32.3318 26.9389 32.3318L26.4144 31.7725L26.3085 31.8295L25.7357 32.1332C25.7357 32.1332 25.9083 32.6217 25.906 32.8842C25.4527 33.0349 25.1169 33.3887 25.0386 34.0165C25.0018 34.3247 25.1698 34.8018 25.5241 35.1534C25.715 35.3428 25.7518 35.5026 25.6345 35.6213C25.3745 35.8793 24.8408 35.8154 24.5647 36.2149C24.3922 36.466 24.1828 37.0458 24.1828 37.0458C24.054 37.3061 23.2902 39.1209 22.9175 39.7601C22.8232 39.9199 22.4436 40.5157 22.4436 40.5157C22.4436 40.5157 22.278 40.6299 22.0916 40.776C21.9421 40.897 21.7765 41.0385 21.6775 41.1663C21.39 41.5316 21.505 42.189 21.6821 42.4653L19.4644 46.4853C19.377 46.3027 19.3356 46.2 19.3356 46.2C18.7121 44.691 18.3555 42.9584 18.3555 41.1184C18.3555 35.4844 21.6821 30.8639 25.8622 30.5352H26.8308C27.2909 30.574 27.7418 30.663 28.1789 30.8023C28.4067 30.873 28.6321 30.9598 28.853 31.0557C32.03 32.4573 34.326 36.4386 34.326 41.1207C34.326 46.9693 30.744 51.7244 26.3408 51.7244H26.3431ZM25.5241 40.2372C25.5241 40.2372 23.9689 40.8216 23.2281 41.1184L24.7419 38.5137C24.7465 38.5274 24.8132 38.8789 25.4297 39.1346C25.4113 39.2282 25.5241 40.2372 25.5241 40.2372Z" fill="white" fill-opacity="0.8"/>
<path d="M24.0586 3.18912C24.0931 3.18912 24.1138 3.1777 24.1391 3.17314C24.2496 3.35577 24.4428 3.48589 24.6775 3.48589H24.6844C24.9167 3.48589 25.1123 3.36033 25.2227 3.17314H26.067V3.72102C25.5264 3.84886 25.1238 4.3351 25.1238 4.90809C25.1238 5.21399 25.248 5.49478 25.432 5.70708C25.2319 5.78013 25.0455 5.88743 24.8845 6.03125C24.3968 6.49466 24.2772 7.47171 24.6936 8.62911C24.9834 9.4281 25.4113 10.0878 25.8162 10.4782C26.0003 10.6745 26.1866 10.7636 26.3523 10.7636H26.396C26.5639 10.7636 26.748 10.6768 26.932 10.4782C27.3392 10.0878 27.7671 9.4281 28.0547 8.62911C28.4711 7.47171 28.3491 6.49466 27.8637 6.03125C27.7004 5.88514 27.5094 5.77557 27.3024 5.70252C27.4841 5.49021 27.6015 5.20943 27.6015 4.91037C27.6015 4.33738 27.2012 3.85114 26.6628 3.7233V3.17542H27.5117C27.6107 3.36261 27.8131 3.48817 28.0455 3.48817H28.0524C28.2893 3.48817 28.4941 3.35576 28.5976 3.15488C28.6206 3.16172 28.6436 3.17086 28.6666 3.17086C28.83 3.17086 28.9634 3.04073 28.9634 2.87865C28.9634 2.71657 28.83 2.58645 28.6666 2.58645C28.6459 2.58645 28.6229 2.5933 28.5999 2.59786C28.4941 2.40154 28.287 2.26457 28.0524 2.26457H28.0455C27.8154 2.26457 27.6107 2.39013 27.5117 2.5796H26.6628V1.47014C26.8561 1.36057 26.978 1.16881 26.978 0.933679C26.978 0.698547 26.84 0.486244 26.6398 0.385799C26.6536 0.356122 26.6582 0.326445 26.6582 0.292203C26.6582 0.132404 26.5248 0 26.3638 0C26.2027 0 26.067 0.134687 26.067 0.292203C26.067 0.326445 26.0762 0.353839 26.0877 0.385799C25.8806 0.486244 25.7426 0.689416 25.7426 0.933679C25.7426 1.17794 25.8691 1.36057 26.0624 1.47014V2.5796H25.2181C25.1077 2.39013 24.9098 2.26457 24.6798 2.26457H24.6729C24.429 2.26457 24.2127 2.41067 24.1184 2.61613C24.0977 2.61613 24.0747 2.60928 24.054 2.60928C23.8953 2.60928 23.7595 2.73483 23.7595 2.90148C23.7595 3.06813 23.8953 3.19368 24.054 3.19368L24.0586 3.18912Z" fill="white" fill-opacity="0.8"/>
<path d="M31.9242 41.9425C31.7977 41.8192 31.6435 41.7713 31.517 41.7736C31.5929 41.6183 31.6389 41.4015 31.586 41.2485C31.5699 41.2051 31.5469 41.1618 31.5147 41.1252C31.3376 40.9015 31.188 40.8467 31.1144 40.833C31.0661 40.8216 30.8291 40.7988 30.7072 40.9586L30.6865 40.76C30.5922 40.8399 30.4979 41.0956 30.4772 41.1618C30.4265 41.3147 30.3253 41.696 30.3253 41.696C30.6198 41.2348 30.7762 41.1777 31.0293 41.1138C30.8107 41.2645 30.6336 41.6138 30.5324 41.9311L31.1144 41.543L30.9833 41.454C31.0546 41.3398 31.1259 41.2896 31.2547 41.3627C31.2985 41.3878 31.3284 41.4334 31.3376 41.5019C31.3445 41.5521 31.3445 41.68 31.2248 41.8306L30.1712 42.7324C30.093 42.7986 30.0654 42.8648 30.0723 43.0771C30.0746 43.1478 30.1505 43.2277 30.2839 43.1045L31.4135 42.1046C31.4687 42.0612 31.5515 42.1 31.5745 42.1343C31.6412 42.2279 31.6021 42.4265 31.4342 42.6776L31.3376 42.463C31.2409 42.5908 31.0638 42.9127 30.9143 43.0725C30.9143 43.0725 31.211 43.0976 31.4411 42.9218C31.5032 42.8739 31.5584 42.826 31.6044 42.7803C31.4158 43.2574 30.9902 43.5953 30.9833 43.5975C30.9833 43.5975 31.2754 43.5679 31.4319 43.488C31.5952 43.4035 31.7494 43.3053 31.8782 43.1547L31.6619 43.0862C31.7701 42.9401 31.9403 42.7598 32.007 42.463C32.0599 42.2301 32.03 42.0566 31.9173 41.9448L31.9242 41.9425Z" fill="white" fill-opacity="0.8"/>
<path d="M29.5155 41.9973L29.6582 41.2942L29.4672 41.4426C29.4672 41.4426 29.3269 41.2485 29.2809 41.2006C29.0968 40.9974 28.9105 40.9107 28.7287 40.9472C28.5194 40.9883 28.4711 41.1298 28.2157 41.0636C28.2272 41.2554 28.0317 41.333 27.9189 41.4882C27.8108 41.6389 27.8108 41.8421 27.9235 42.0932C27.9511 42.1548 28.08 42.3648 28.08 42.3648L27.8384 42.4402L28.5999 42.6616C28.5999 42.584 28.5125 42.0726 28.5125 42.0726L28.3376 42.2027C28.2686 42.116 28.2387 42.0566 28.1927 41.979C28.1214 41.858 28.0754 41.7622 28.1122 41.6777C28.1444 41.6046 28.2686 41.5955 28.3307 41.5887L29.1842 42.9218C29.2257 43.0017 29.3062 43.004 29.3338 42.9515C29.4143 42.794 29.4189 42.6114 29.3798 42.568L28.6206 41.4106C28.6505 41.3512 28.7356 41.2805 28.8001 41.2691C28.9082 41.2485 28.9542 41.2805 29.0577 41.3695C29.1267 41.4289 29.1957 41.5339 29.2257 41.575L29.0255 41.6526C29.175 41.753 29.435 41.9311 29.5178 41.9996L29.5155 41.9973Z" fill="white" fill-opacity="0.8"/>
<path d="M29.6628 39.6003C29.7755 39.7647 29.9779 39.9724 30.0723 40.0569C30.0723 40.0569 29.9388 40.219 29.9204 40.2509C29.8399 40.3902 30.1896 40.4404 30.2149 40.445C30.2563 40.4518 30.5853 40.5226 30.5577 40.3628C30.5508 40.3263 30.4587 40.1368 30.4587 40.1368C30.5761 40.0888 30.859 39.9542 31.0224 39.8377C31.0431 39.8218 31.096 39.7852 31.1144 39.7601C31.4342 39.3697 31.3238 39.1209 31.3238 39.1209L30.7325 39.4885C30.6796 39.5227 30.6474 39.4885 30.6474 39.4885C30.698 39.4588 30.7739 39.2807 30.7877 39.2373C30.8107 39.1643 30.7877 39.1141 30.698 39.0958C30.6198 39.0798 30.5807 39.1072 30.5807 39.1072C30.5991 39.0753 30.5968 39.0775 30.606 39.0638C30.6083 39.057 30.6129 39.0524 30.6152 39.0456C30.6198 39.0342 30.6221 39.025 30.6244 39.0136C30.6244 39.0113 30.6244 39.0091 30.6244 39.0068C30.6244 39.0022 30.6267 38.9999 30.6267 38.9954C30.6267 38.9132 30.56 38.8447 30.4748 38.8447C30.4081 38.8447 30.3529 38.8881 30.3345 38.9474C30.3345 38.952 30.3299 38.9543 30.3276 38.9588C30.3207 38.9908 30.3184 38.9702 30.3345 39.057C30.3345 39.057 30.3069 39.0228 30.2287 39.0091C30.1413 38.9954 30.1183 39.0319 30.1137 39.1072C30.1114 39.1552 30.0999 39.299 30.139 39.3949C30.139 39.3994 30.0976 39.4154 30.0608 39.3652L29.6328 38.8196C29.6328 38.8196 29.4442 39.0136 29.6075 39.4907C29.6167 39.5181 29.6513 39.5729 29.6674 39.5935L29.6628 39.6003Z" fill="white" fill-opacity="0.8"/>
<path d="M29.0416 44.1546C29.106 44.0906 29.1474 44.0107 29.1658 43.924L29.198 43.7528C29.2164 43.6569 29.1083 43.6044 29.0347 43.6706L28.0432 44.6066L28.0156 44.6317C27.9926 44.6225 27.9672 44.6157 27.9419 44.6111C27.8982 44.6066 27.8545 44.6111 27.8131 44.6225C27.7671 44.6362 27.7257 44.6614 27.6866 44.6956C27.5393 44.8303 27.5094 45.0745 27.6222 45.2435C27.6774 45.3257 27.7579 45.3782 27.8499 45.3873C27.9235 45.3964 27.9949 45.3782 28.057 45.3371C28.0731 45.3257 28.0892 45.3142 28.1053 45.3005C28.195 45.2184 28.2709 45.0631 28.2295 44.9285L29.0393 44.1523L29.0416 44.1546ZM27.8913 45.175C27.8062 45.175 27.7349 45.1065 27.7349 45.0198C27.7349 44.933 27.8039 44.8645 27.8913 44.8645C27.9788 44.8645 28.0478 44.933 28.0478 45.0198C28.0478 45.1065 27.9788 45.175 27.8913 45.175Z" fill="white" fill-opacity="0.8"/>
<path d="M30.9028 44.9627C30.8659 44.9581 30.8291 44.9627 30.7923 44.9718L30.0584 43.8258C30.0055 43.7459 29.9135 43.7596 29.8974 43.8532L29.8698 43.9514C29.8491 44.0701 29.8284 44.0724 29.948 44.3029L30.5393 45.1978C30.4818 45.3325 30.491 45.4946 30.5715 45.6179C30.629 45.7023 30.7118 45.7548 30.8061 45.7662C30.9005 45.7777 30.9948 45.7457 31.0707 45.6772C31.0707 45.6772 31.073 45.6726 31.0753 45.6726C31.2248 45.5311 31.2524 45.2846 31.1374 45.1134C31.0799 45.0289 30.9971 44.9764 30.9028 44.965V44.9627ZM30.8544 45.5037C30.7693 45.5037 30.698 45.4352 30.698 45.3485C30.698 45.2617 30.767 45.1932 30.8544 45.1932C30.9419 45.1932 31.0109 45.2617 31.0109 45.3485C31.0109 45.4352 30.9419 45.5037 30.8544 45.5037Z" fill="white" fill-opacity="0.8"/>
<path d="M29.2878 46.1635C29.504 45.0083 30.0677 42.0019 30.0723 41.9722C30.1137 41.7279 30.2471 41.0773 30.2816 40.7098C30.3023 40.5705 30.0769 40.486 30.0262 40.6801C29.9572 40.9472 29.7985 41.6389 29.7456 41.906C29.7456 41.906 29.1336 44.9399 28.899 46.1041C28.8852 46.1726 28.8507 46.2319 28.8092 46.289C28.7816 46.3278 28.7609 46.3758 28.7517 46.426C28.7241 46.5926 28.8254 46.7479 28.9749 46.773C29.1267 46.7981 29.2717 46.6817 29.297 46.515C29.3039 46.4762 29.3016 46.4374 29.297 46.4032C29.2809 46.3233 29.2717 46.2434 29.2855 46.1635H29.2878Z" fill="white" fill-opacity="0.8"/>
<path d="M30.8442 44.5162L30.0876 45.0789C30.049 45.1077 30.0411 45.162 30.0701 45.2004L30.1101 45.2533C30.1391 45.2917 30.1938 45.2995 30.2325 45.2707L30.9891 44.708C31.0277 44.6793 31.0356 44.6249 31.0066 44.5866L30.9666 44.5336C30.9377 44.4953 30.8829 44.4875 30.8442 44.5162Z" fill="white" fill-opacity="0.8"/>
</svg>
