<svg width="806" height="339" viewBox="0 0 806 339" fill="none" xmlns="http://www.w3.org/2000/svg">
<g filter="url(#filter0_d_5277_688)">
<path d="M141.226 302.023C134.281 303.926 117.56 308.507 104.063 300.139C96.5328 295.473 92.8612 288.838 90.6631 283.786C82.9033 265.953 86.4481 241.75 90.7658 223.326C91.0677 222.032 92.9579 220.286 91.2368 219.058C89.9687 218.149 82.7282 216.722 83.0543 214.867L85.6993 210.984C87.8189 210.454 92.3177 214.187 93.9301 212.748C96.3094 206.577 98.3806 200.273 100.941 194.168C103.574 187.888 106.575 181.591 109.516 175.444C110.863 172.632 112.783 170.079 113.647 167.087C105.585 151.812 98.4471 135.954 93.5195 119.343L92.8008 118.837C90.9892 118.957 88.6643 120.035 86.8406 120.769C70.065 127.549 44.9679 141.8 39.986 160.314C38.0415 167.544 40.5778 175.642 44.5996 181.699C45.2638 182.705 46.689 183.337 46.7856 184.764C46.8883 186.377 45.3967 187.082 44.5996 188.171C43.5428 189.628 43.5549 191.657 41.2118 190.887C39.4485 187.587 36.4654 184.999 34.6357 181.603C28.4701 170.133 28.5969 160.44 34.1707 149.127C36.4654 144.461 37.9509 142.811 41.6285 139.205C54.4005 126.676 70.4092 120.565 87.1123 114.64C88.4046 114.183 90.5242 114.363 91.267 112.756C92.1004 110.962 88.7005 104.128 88.7005 101.69C85.5302 82.8089 83.0664 56.3478 96.714 40.7963C116.799 17.9236 151.781 35.2091 171.709 49.4782C177.766 53.8191 183.159 58.8946 188.775 63.7593C189.729 64.0483 190.284 63.8376 191.136 63.4643C193.171 62.5732 198.135 56.7873 200.755 54.9931C202.144 54.0419 204.747 58.2142 204.409 59.015C204.252 59.3883 201.384 61.7183 200.762 62.23C199.01 63.657 193.479 66.3723 194.197 68.7685C194.517 69.8402 200.297 74.6508 201.607 76.0416C208.117 82.9534 214.349 90.3408 220.279 97.7402C221.631 99.426 223.763 103.4 225.641 104.02C241.257 105.344 256.741 107.602 271.928 111.257C273.625 111.666 280.388 114.056 281.276 113.972C282.991 113.804 283.239 110.39 283.498 108.951C286.053 94.6034 288.976 77.3119 285.823 62.9345C281.457 43.03 270.002 34.2518 249.464 37.3524C248.57 37.4849 247.616 37.4066 246.716 37.3223L246.239 36.9972C246.42 34.8298 243.504 32.7285 245.515 31.0186C254.953 29.3208 265.129 28.9716 273.788 33.6136C296.645 45.8718 295.026 78.1428 291.023 100.004C290.105 105.013 288.716 109.92 287.587 114.875C287.876 115.531 288.414 115.947 289.03 116.278C292.279 118.03 298.221 119.385 301.983 121.016C306.397 122.931 310.467 125.652 315.027 127.272C316.796 128.47 315.751 132.895 315.703 134.816C314.302 135.213 313.626 133.588 312.998 133.22C304.912 128.428 296.192 125.056 287.605 121.287C285.926 120.782 285.364 121.733 284.791 123.075C281.457 130.818 279.12 139.343 275.642 147.243C273.015 153.197 269.857 158.941 267.17 164.871C265.563 166.744 262.918 166.635 261.596 164.462C258.691 159.675 256.469 154.076 253.625 149.145C246.167 136.207 237.598 123.395 228.419 111.72C227.592 110.673 224.675 106.103 223.914 105.76C201.734 103.436 179.221 103.225 156.987 104.857C155.912 105.092 153.52 108.313 152.675 109.372C141.038 123.912 127.01 145.31 119.033 162.078C118.484 163.234 116.889 166.443 116.889 167.508C116.889 168.363 120.048 174.378 120.706 175.678C127.373 188.834 136.201 201.875 144.686 213.946C146.558 216.613 150.253 220.569 151.624 223.074C151.926 223.627 153.11 229.6 153.007 229.967C152.85 230.533 152.24 231.003 151.648 231.057C145.827 230.184 139.794 230.226 133.973 229.425C127.125 228.48 119.873 226.897 113.127 225.325C110.627 224.747 99.7937 221.171 98.3082 221.598C96.4603 222.122 97.3661 223.802 97.0159 225.157C92.1607 243.851 88.4167 274.719 102.753 290.198C111.642 299.796 125.966 299.266 137.572 295.226C151.491 290.385 164.167 282.817 176.105 274.352C177.277 273.521 179.318 271.197 180.538 270.661C182.621 269.746 184.602 271.871 186.709 272.347L186.347 274.25C179.167 281.143 169.771 288.615 157.838 294.967C152.687 297.712 147.995 300.175 141.213 302.029L141.226 302.023ZM177.458 60.7971C160.954 48.0874 128.786 28.1949 108.037 40.0317C89.0025 50.887 91.6958 83.6879 94.8117 102.015C95.0291 103.291 96.3456 110.582 96.6717 110.992C96.8589 111.227 97.1065 111.401 97.3963 111.486C98.8577 111.919 106.527 109.306 108.683 108.854C117.862 106.922 127.143 105.916 136.364 104.345L155.477 102.936C163.086 93.2307 170.936 83.2484 179.614 74.4581C180.979 73.0734 185.562 70.0269 185.634 68.0521C185.616 67.5644 185.459 67.143 185.145 66.7697C184.155 65.5715 179.119 62.0916 177.452 60.8092L177.458 60.7971ZM193.449 74.5424C192.428 73.6754 191.492 71.4116 189.523 71.4357C186.758 73.9042 183.545 76.2643 180.834 78.8593C175.097 84.3381 169.632 90.5214 164.342 96.4036C163.412 97.4332 159.722 100.419 159.565 101.419C159.112 104.309 164.149 102.388 165.737 102.316C182.651 101.503 202.338 101.925 219.005 103.851C223.208 104.339 218.352 99.2514 217.332 98.0654C210.134 89.7086 201.794 81.5927 193.455 74.5364L193.449 74.5424ZM116.732 162.373C124.444 147.851 133.128 133.907 142.264 120.24L152.065 107.518L152.222 106.621C151.685 105.471 150.845 105.489 149.71 105.573C143.478 106.031 136.316 108.626 129.951 108.776C120.784 111.281 110.494 112.66 101.551 115.772C100.657 116.085 99.5522 116.447 98.906 117.163C98.5316 117.867 99.0811 119.909 99.3167 120.788C102.396 132.408 106.817 143.757 111.406 154.859C111.926 156.117 113.761 162.017 114.214 162.493C114.891 163.197 116.014 162.86 116.744 162.373H116.732ZM271.312 115.7C261.107 112.629 250.406 110.613 239.923 108.65C237.223 108.144 230.919 106.061 228.612 106.807L227.918 107.759C227.815 109.047 229.609 109.992 230.351 110.968C240.412 124.165 249.965 139.44 258.226 153.781C259.017 155.154 262.834 163.047 263.649 163.252C264.18 163.384 264.404 163.185 264.808 162.915C266.451 161.807 269.488 151.138 271.306 148.934C272.629 143.943 274.791 139.235 276.373 134.334C277.387 131.185 279.948 124.195 280.256 121.347C280.715 117.085 275.304 116.928 272.043 115.941C271.723 115.845 271.409 115.73 271.318 115.706L271.312 115.7ZM142.771 215.247C132.989 201.309 124.251 186.745 116.231 171.711L114.806 171.494C109.069 184.824 103.816 198.334 100.295 212.375C99.8118 214.295 98.4954 215.204 101.605 216.354C110.422 219.618 122.409 222.062 131.727 224.049C136.195 225 145.181 227.451 149.263 227.469C149.867 227.469 150.35 227.42 150.628 226.806C151.032 225.47 147.796 222.61 147.041 221.532C145.592 219.461 144.221 217.324 142.765 215.253L142.771 215.247Z" fill="white"/>
<path d="M343.089 269.144C342.986 265.207 343.222 261.239 343.107 257.295C342.467 235.699 340.112 213.952 338.644 192.368C338.403 188.798 338.729 185.161 338.197 181.585L337.243 180.898L336.029 181.32C334.556 185.739 333.427 190.453 331.929 194.878C324.332 217.342 313.632 239.606 306.651 261.931C306.144 263.563 305.516 267.777 305.039 268.747C304.906 269.012 304.688 269.204 304.435 269.361L295.576 269.156C295.618 265.074 293.674 261.353 292.484 257.602C285.467 235.434 276.173 214.175 269.525 191.85C268.552 188.587 268.009 184.77 266.91 181.621C266.385 180.116 264.325 180.977 264.174 182.783C264.114 183.523 264.525 184.174 264.494 184.752C263.136 210.851 259.488 236.759 258.957 262.961C258.915 264.918 258.329 266.718 258.963 268.891C258.872 269.258 258.214 269.403 257.882 269.421C255.642 269.523 252.737 269.072 250.267 269.144C248.975 269.18 247.115 270.336 246.843 268.548C246.789 268.181 247.199 264.887 247.296 264.183C250.708 238.962 254.223 213.386 256.125 187.967C256.56 182.163 257.326 176.443 256.97 170.561L276.071 170.501C278.522 185.944 284.658 200.399 289.664 215.102C292.164 222.453 292.78 226.352 295.008 233.764C296.336 238.183 299.302 247.801 300.679 251.847C301.095 253.075 302.357 254.58 303.01 252.72C303.825 250.383 303.891 247.433 304.543 245.007C307.901 232.472 314.362 218.462 319.061 206.131C322.829 196.239 328.566 184.162 330.582 173.902C330.83 172.644 330.075 171.024 331.211 170.115H348.922L356.368 269.162H343.083L343.089 269.144Z" fill="white"/>
<path d="M469.733 62.0013C507.391 90.9248 480.295 164.444 429.733 150.163C402.045 142.342 393.355 112.208 400.457 86.6862C408.772 56.7873 444.087 42.3015 469.739 61.9952L469.733 62.0013ZM462.082 69.6175C439.896 51.6757 414.014 67.9136 410.36 93.3511C408.023 109.637 411.598 127.061 425.65 136.983C445.947 151.313 468.695 137.086 473.809 115.248C477.403 99.9077 474.993 80.0634 462.082 69.6235V69.6175Z" fill="white"/>
<path d="M649.289 58.7982C677.351 75.6021 678.022 121.083 653.667 141.222C636.24 155.629 612.199 155.485 595.828 139.62C579.759 124.045 578.243 96.1869 588.449 77.0651C599.995 55.4327 627.423 45.7092 649.283 58.7982H649.289ZM647.592 71.3033C632.707 56.8776 612.302 59.8519 600.816 76.5413C590.339 91.7737 591.275 121.444 605.901 133.997C617.133 143.642 630.436 146.117 643.142 137.537C663.354 123.894 664.604 87.7759 647.592 71.2972V71.3033Z" fill="white"/>
<path d="M759.762 269.144C759.726 267.91 759.883 266.657 759.666 265.429C758.784 260.39 755.692 252.172 753.917 247.096C753.331 245.422 750.716 237.349 749.702 236.861L705.112 236.957L704 238.258C701.537 246.747 698.215 254.965 695.939 263.509C695.588 264.833 695.286 269.463 693.946 269.553C693.3 269.596 692.388 269.144 691.542 269.12C688.873 269.048 686.126 269.06 683.457 269.12C682.442 269.144 681.452 269.951 680.878 268.903C683.269 262.642 685.552 256.284 688.094 250.082C698.004 225.921 709.912 201.7 718.681 177.093C719.23 175.546 719.737 171.885 720.311 170.796C720.987 169.519 723.717 170.507 724.925 170.519C727.745 170.549 730.595 170.549 733.415 170.519C734.254 170.507 735.015 170.115 735.794 170.127C738.017 170.169 737.358 172.253 737.823 173.71C739.75 179.706 742.189 185.679 744.466 191.555C754.394 217.221 766.018 242.201 775.01 268.211L774.466 269.144H759.762ZM727.014 178.978L707.877 227.156L708.632 228.047L745.813 228.191C746.851 227.854 746.543 225.891 746.284 225.024C740.885 211.604 734.629 198.31 730.178 184.529C729.532 182.518 729.738 178.087 727.014 178.978Z" fill="white"/>
<path d="M380.124 55.0172V63.6389C380.124 63.7533 379.502 64.7347 379.321 64.843C371.537 64.8972 363.59 64.6142 355.788 63.8255C348.409 64.5059 339.598 62.9826 332.4 63.8195C329.447 64.1627 330.993 67.8052 331.029 69.6415C331.198 77.9923 330.872 86.3731 331.011 94.7239C334.163 94.6998 337.334 94.7419 340.492 94.7359C360.154 94.6937 387.31 95.2958 385.783 122.208C384.231 149.579 348.566 150.054 328.378 149.272C325.969 149.181 323.348 148.555 320.8 148.796L320.317 148.477C319.52 147.339 320.522 141.884 320.558 140.246C321.144 116.645 321.18 92.8574 320.528 69.2683C320.395 64.4999 320.673 59.7616 320.142 55.0172H380.13H380.124ZM370.323 110.095C363.433 103.099 343.354 101.708 334.031 102.737C332.708 102.882 330.963 103.261 330.993 104.923C331.283 116.447 330.214 128.211 332.316 139.53C332.666 139.879 337.231 140.415 338.058 140.427C346.935 140.56 363.627 140.144 370.257 133.606C376.193 127.754 376.169 116.031 370.323 110.095Z" fill="white"/>
<path d="M694.344 148.85C693.892 148.85 693.239 149.723 692.629 148.2C693.892 136.134 693.233 123.888 693.324 111.738C693.396 101.997 693.463 92.3156 693.324 82.5018C693.197 73.3383 693.922 64.0784 692.539 55.0172C695.691 54.9871 698.855 55.0413 702.014 55.0353C703.143 55.0353 704.508 54.1623 705.438 55.2882C704.991 60.2251 705.16 65.126 705.033 70.075C704.858 77.041 703.711 86.9933 704.598 93.7365C704.816 95.3801 705.329 95.3982 706.808 95.5427C719.755 96.807 734.75 94.5312 747.92 95.5427C748.995 95.6511 749.738 95.1513 750.299 94.3084C750.619 86.4092 750.36 78.3836 750.124 70.4423C750.004 66.4566 749.792 62.4528 749.726 58.4129C749.714 57.5098 749.152 56.4803 749.363 55.7096C749.853 53.8853 752.491 55.0955 753.935 55.0413C755.45 54.9871 761.296 53.9636 762.009 54.9871C762.667 56.408 761.833 57.9072 761.785 59.2257C760.813 87.8422 761.06 115.64 761.767 144.25C761.809 145.924 762.594 146.833 761.628 148.585C761.054 148.977 760.245 148.844 759.974 148.844H749.708C749.074 147.598 749.708 146.634 749.726 145.448C749.78 141.83 749.617 138.205 749.69 134.587C749.871 125.773 751.018 114.502 750.287 105.868C750.239 105.266 750.016 104.261 749.545 103.881L747.92 103.502C734.75 104.381 720.226 102.412 707.219 103.502C706.422 103.568 705.679 103.586 705.015 104.11L705.468 147.827L705.365 148.362C705.069 148.417 704.568 148.826 704.423 148.826C701.066 148.826 697.714 148.838 694.357 148.826L694.344 148.85Z" fill="white"/>
<path d="M397.522 208.515C398.422 210.069 401.58 208.997 402.86 208.979C423.567 208.726 451.478 211.219 451.424 238.065C451.357 269.246 412.516 271.119 389.599 269.541C388.881 269.493 385.342 269.048 385.137 268.771C386.942 241.383 385.885 213.82 386.193 186.323L384.931 170.76C385.161 169.543 390.046 170.513 391.175 170.501C392.516 170.489 398.084 169.23 398.597 170.76L397.528 208.515H397.522ZM434.322 226.403C427.233 219.624 409.485 217.36 400.034 218.6C398.156 218.847 397.576 220.304 397.419 222.008C397.063 225.861 397.806 229.937 397.86 233.64C397.957 240.78 397.045 250.143 397.836 256.922C398.186 259.932 400.68 259.782 403.259 259.938C413.12 260.552 430.82 259.547 436.647 250.251C441.122 243.11 440.542 232.345 434.328 226.403H434.322Z" fill="white"/>
<path d="M594.131 264.562C592.404 266.296 587.712 270.017 585.442 270.583C582.543 271.299 583.896 268.397 583.835 267.338C583.666 264.352 583.05 261.263 583.515 258.198C587.054 255.375 589.971 252.479 592.549 248.752C604.319 231.713 616.626 200.815 621.632 180.682C622.447 177.406 622.882 173.908 623.347 170.567L663.565 170.266C664.447 170.904 663.559 172.873 663.523 173.89C662.647 202.073 662.665 229.967 663.559 258.096C663.674 261.775 663.656 265.483 663.764 269.162C663.185 270.017 661.747 269.168 660.92 269.144C658.921 269.078 656.874 269.096 654.869 269.126C653.39 269.144 651.838 270.24 650.702 268.482C651.983 259.077 651.318 249.541 651.445 240.058C651.638 225.957 652.152 211.724 651.88 197.552C651.795 193.048 652.055 184.752 651.433 180.754C651.306 179.929 650.986 179.02 650.05 178.924C644.664 179.459 637.93 178.213 632.719 178.906C632.169 178.978 631.656 178.984 631.3 179.496C627.103 196.251 621.855 212.784 615.019 228.643C610.213 239.805 602.634 256.019 594.125 264.568L594.131 264.562Z" fill="white"/>
<path d="M557.905 87.7458C556.009 90.1481 552.367 92.6768 549.704 94.2061C548.485 94.9045 546.492 94.9045 546.003 96.8733C546.19 97.975 553.781 99.703 555.339 100.431C569.342 106.964 569.644 129.03 559.934 139.482C549.372 150.843 533.345 151.577 518.816 150.446C516.268 150.247 501.165 147.64 500.054 146.273C499.178 145.196 500.32 144.497 500.477 143.413C500.712 141.812 500.555 138.362 500.96 137.08C501.105 136.616 501.437 136.399 501.914 136.387C505.024 137.489 508.14 138.639 511.352 139.44C525.211 142.878 553.569 145.159 555.653 125.393C556.848 114.038 549.433 108.529 539.469 105.82C531.117 103.55 521.993 104.586 513.381 104.339C513.81 102.623 513.647 95.5668 514.994 94.9165C519.758 94.6335 524.523 95.4162 529.306 95.1333C541.232 94.4349 552.38 89.5039 551.22 75.6743C549.831 59.027 523.689 61.2186 512.276 63.7352C510.428 64.1446 509.8 64.3554 508.158 64.8491C507.572 65.0237 504.299 66.0171 504.124 65.8425L505.694 56.3839C506.388 55.4808 514.348 54.0419 516.002 53.8191C529.324 52.0671 551.987 50.58 559.596 64.1145C563.412 70.8999 562.76 81.5806 557.905 87.7458Z" fill="white"/>
<path d="M224.301 170.525C224.669 170.898 223.588 177.551 223.395 178.598C222.567 183.186 221.704 180.947 218.364 180.242C213.745 179.267 207.465 178.502 202.791 178.924C155.447 183.21 157.397 261.136 210.417 261.1C217.03 261.1 223.141 260.932 229.325 258.331L229.971 259.306C229.15 261.925 229.79 265.52 229.071 268.054C228.938 268.524 228.534 268.927 228.063 269.06C224.548 269.307 221.166 270.354 217.67 270.74C207.531 271.853 194.838 271.245 185.266 267.735C156.715 257.253 148.973 220.4 163.037 195.475C168.207 186.311 174.753 179.652 184.191 174.842C196.607 168.52 210.804 167.839 224.288 170.519L224.301 170.525Z" fill="white"/>
<path d="M571.305 170.543C571.625 170.916 570.375 179.14 570.127 180.314C570.031 180.772 570.025 181.139 569.475 181.29C565.623 180.808 561.721 179.261 557.851 178.93C531.558 176.708 514.547 196.317 515.773 221.647C517.192 250.955 542.017 266.128 569.844 260.233C572.229 259.728 574.566 258.614 576.945 258.355C577.851 258.993 576.148 266.11 576.498 267.657C575.653 269.686 573.986 268.879 572.446 269.234C535.628 277.808 502.53 259.884 503.393 219.618C503.786 201.236 516.105 181.38 533.019 173.818C544.632 168.622 558.938 167.791 571.305 170.537V170.543Z" fill="white"/>
<path d="M466.732 170.555L479.589 170.278C480.476 170.886 479.582 172.873 479.546 173.896C478.622 204.018 478.622 234.031 479.546 264.153C479.595 265.766 480.446 267.488 479.788 269.174C479.178 270.053 477.179 269.168 476.159 269.132C474.607 269.084 466.98 269.499 466.448 268.771L467.505 251.72C467.553 226.295 467.728 200.893 466.666 175.528C466.599 173.884 466.69 172.192 466.732 170.555Z" fill="white"/>
<path d="M77.245 212.868C65.7593 225.988 42.957 215.451 46.0791 198.063C48.6033 183.987 65.7412 178.43 76.1883 188.334C82.9094 194.704 83.3381 205.914 77.2511 212.868H77.245Z" fill="white"/>
<path d="M234.621 30.3263C239.989 35.2392 241.897 42.3316 239.228 49.2072C238.455 51.2061 235.998 55.0473 234.301 56.3177C228.093 60.9838 219.427 62.0374 212.863 57.0101C207.181 52.6511 204.367 45.2576 206.486 38.2495C210.037 26.5031 225.382 21.8672 234.621 30.3263Z" fill="white"/>
<path d="M300.618 279.169C301.373 279.391 301.186 280.228 301.047 280.782C300.057 284.696 294.893 292.119 291.922 294.967C269.923 316.07 232.217 299.308 210.514 285.508C206.698 283.082 200.81 279.307 197.567 276.351C197.078 275.905 196.414 275.55 196.553 274.761C197.404 274.749 198.261 274.713 199.119 274.81C201.269 275.044 205.671 275.49 207.489 276.098C209.928 276.917 213.588 280.144 216.064 281.595C234.156 292.197 265.032 306.846 284.283 292.173C286.337 290.608 291.095 285.406 292.14 283.16C292.683 281.986 292.46 280.18 293.776 279.175H300.618V279.169Z" fill="white"/>
<path d="M251.3 190.152C251.378 191.146 251.354 191.958 251.07 192.928C250.678 194.288 246.378 200.676 245.273 202.392C241.916 207.612 237.954 213.29 234.325 218.353C232.054 221.52 229.409 224.482 227.139 227.661C226.632 230.882 230.436 228.956 231.867 228.739C235.4 228.209 239.005 227.908 242.532 227.33C243.395 227.186 246.366 226.18 246.632 226.258C247.477 226.505 247.507 228.902 247.097 229.48C246.952 229.684 242.785 230.563 242.205 230.623C238.015 231.051 233.184 230.744 228.956 231.063C227.809 231.147 225.08 231.448 224.174 231.912C223.503 232.255 218.703 238.649 217.694 239.907C216.825 240.997 215.78 242.701 214.922 243.737C211.317 248.096 207.507 252.28 203.527 256.284L199.747 255.736C199.125 255.357 199.439 254.67 199.747 254.207C200.031 253.779 203.932 251.016 204.838 250.149C208.878 246.247 213.974 240.449 217.483 236.084C218.141 235.265 221.148 233.164 219.506 232.044C218.22 231.165 208.31 232.61 206.015 232.683C198.026 232.941 187.67 233.236 179.813 232.683C178.738 232.604 175.018 232.297 174.801 231.256L175.761 230.28L184.644 231.081C192.712 231.262 200.786 230.967 208.799 230.648C213.787 230.449 218.727 230.985 223.636 229.486C232.169 219.13 239.548 207.968 246.686 196.606C247.834 194.782 248.987 192.699 250.249 190.917C250.587 190.441 250.261 189.935 251.288 190.164L251.3 190.152Z" fill="white"/>
<path d="M314.906 203.386C315.311 203.831 312.678 210.4 312.17 211.279C310.292 214.524 300.6 216.306 297.297 218.522L295.624 218.576L294.416 213.043L301.192 210.773C302.061 210.069 303.167 209.406 304.175 208.931C306.766 207.721 309.38 206.824 311.778 205.367C312.128 205.156 314.459 202.892 314.906 203.386Z" fill="white"/>
<path d="M343.693 154.058C344.623 154.269 345.716 156.406 346.078 157.303C346.513 158.387 348.155 163.462 348.258 164.39C348.512 166.689 344.001 166.286 342.515 166.063C339.743 165.642 341.042 163.83 340.583 161.975C340.226 160.542 338.137 157.592 337.642 156.081C337.424 155.413 337.412 154.75 337.455 154.058C339.26 154.329 342.044 153.691 343.693 154.058Z" fill="white"/>
<path d="M273.353 220.292C273.571 220.274 273.776 220.19 273.999 220.256C274.332 220.352 276.361 224.302 275.473 224.85C272.079 224.549 263.752 229.925 266.391 223.025C266.946 221.568 271.771 220.436 273.353 220.298V220.292Z" fill="white"/>
</g>
<defs>
<filter id="filter0_d_5277_688" x="0" y="0" width="805.012" height="338.996" filterUnits="userSpaceOnUse" color-interpolation-filters="sRGB">
<feFlood flood-opacity="0" result="BackgroundImageFix"/>
<feColorMatrix in="SourceAlpha" type="matrix" values="0 0 0 0 0 0 0 0 0 0 0 0 0 0 0 0 0 0 127 0" result="hardAlpha"/>
<feOffset dy="4"/>
<feGaussianBlur stdDeviation="15"/>
<feComposite in2="hardAlpha" operator="out"/>
<feColorMatrix type="matrix" values="0 0 0 0 1 0 0 0 0 0.496875 0 0 0 0 0.225962 0 0 0 0.3 0"/>
<feBlend mode="normal" in2="BackgroundImageFix" result="effect1_dropShadow_5277_688"/>
<feBlend mode="normal" in="SourceGraphic" in2="effect1_dropShadow_5277_688" result="shape"/>
</filter>
</defs>
</svg>
