<svg width="174" height="174" viewBox="0 0 174 174" fill="none" xmlns="http://www.w3.org/2000/svg">
<g opacity="0.5">
<path d="M87.0117 41.4746C111.776 41.4748 131.862 61.6767 131.862 86.6094C131.862 111.542 111.776 131.743 87.0117 131.743C62.247 131.743 42.1604 111.542 42.1602 86.6094C42.1602 61.6766 62.2468 41.4746 87.0117 41.4746Z" fill="#FFE8C4"/>
<path d="M87.0117 41.4746C111.776 41.4748 131.862 61.6767 131.862 86.6094C131.862 111.542 111.776 131.743 87.0117 131.743C62.247 131.743 42.1604 111.542 42.1602 86.6094C42.1602 61.6766 62.2468 41.4746 87.0117 41.4746Z" fill="url(#paint0_linear_4815_21335)"/>
<path d="M87.0117 41.4746C111.776 41.4748 131.862 61.6767 131.862 86.6094C131.862 111.542 111.776 131.743 87.0117 131.743C62.247 131.743 42.1604 111.542 42.1602 86.6094C42.1602 61.6766 62.2468 41.4746 87.0117 41.4746Z" stroke="#5550A4" stroke-width="2"/>
</g>
<path d="M42.1069 55.2182C41.6388 55.906 41.0719 56.4169 40.406 56.7508C39.7357 57.0818 39.0354 57.2245 38.3051 57.1792C37.5733 57.1264 36.8746 56.8735 36.2087 56.4204C35.7061 56.0784 35.3068 55.6745 35.0109 55.2086C34.7106 54.7398 34.5165 54.2336 34.4284 53.6898C34.3404 53.1461 34.3619 52.5931 34.493 52.0307C34.627 51.4639 34.8726 50.9182 35.2296 50.3935C35.5296 49.9525 35.8667 49.5852 36.2408 49.2914C36.6134 48.9902 37.029 48.7634 37.4876 48.6109L38.1217 50.0681C37.8029 50.1479 37.5094 50.2901 37.2412 50.4946C36.976 50.6948 36.7429 50.9426 36.5418 51.238C36.2298 51.6966 36.0473 52.1497 35.9942 52.5974C35.9412 53.0452 36.0148 53.4726 36.2151 53.8798C36.4139 54.2796 36.7427 54.6356 37.2012 54.9476C37.8847 55.4126 38.5554 55.5788 39.2135 55.4459C39.8745 55.3087 40.4391 54.8962 40.9071 54.2083C41.1292 53.882 41.2797 53.5328 41.3586 53.1608C41.4332 52.7858 41.4373 52.4338 41.3708 52.1047L42.9479 52.1618C42.9755 52.6902 42.9187 53.2192 42.7776 53.7489C42.6365 54.2787 42.4129 54.7684 42.1069 55.2182ZM44.6737 51.4139L39.0427 45.8445L40.1172 44.7582L40.1509 44.724L46.3004 45.8103L45.7773 46.3619L44.4883 40.3387L45.5853 39.2295L51.2163 44.7989L50.0912 45.9365L45.9445 41.8015L46.2776 41.6695L47.2267 46.5915L46.4279 47.3992L41.4001 46.5896L41.5283 46.2551L45.7144 50.3617L44.6737 51.4139ZM56.189 41.4273C55.5055 41.8923 54.7883 42.1513 54.0373 42.2043C53.2877 42.2498 52.5823 42.1137 51.921 41.796C51.2568 41.4738 50.7101 40.9975 50.2811 40.3669C49.9631 39.8995 49.7491 39.4001 49.639 38.8686C49.5304 38.3297 49.5253 37.7912 49.6238 37.2533C49.7267 36.7124 49.9312 36.2024 50.2373 35.7232C50.5435 35.244 50.9545 34.8289 51.4704 34.4778C52.1539 34.0128 52.8704 33.7575 53.6199 33.712C54.3709 33.6591 55.0785 33.7937 55.7428 34.1158C56.4041 34.4335 56.9492 34.9077 57.3782 35.5382C57.6932 36.0012 57.9051 36.5022 58.0137 37.0411C58.1267 37.577 58.134 38.1139 58.0355 38.6518C57.9371 39.1897 57.7348 39.6983 57.4286 40.1775C57.1225 40.6567 56.7093 41.0733 56.189 41.4273ZM55.3114 40.1375C55.7171 39.8615 56.0165 39.5288 56.2095 39.1394C56.404 38.7426 56.4806 38.3196 56.4394 37.8703C56.3982 37.421 56.2261 36.9736 55.9231 36.5283C55.6201 36.0829 55.2672 35.7586 54.8644 35.5553C54.4586 35.3476 54.0369 35.2635 53.5994 35.3032C53.1664 35.3398 52.747 35.4961 52.3413 35.7721C51.9356 36.0481 51.6341 36.3823 51.4366 36.7747C51.2435 37.1641 51.1691 37.5857 51.2133 38.0394C51.2589 38.4857 51.4332 38.9315 51.7363 39.3769C52.0393 39.8222 52.3922 40.1466 52.795 40.3499C53.1978 40.5532 53.6172 40.6387 54.0533 40.6065C54.4908 40.5669 54.9102 40.4105 55.3114 40.1375ZM62.7506 37.2389L59.9955 31.3915L57.6435 32.4996L57.0229 31.1825L63.3263 28.2126L63.9469 29.5297L61.5877 30.6413L64.3427 36.4888L62.7506 37.2389ZM69.141 38.1137L66.0689 27.2601L67.593 26.8287L67.8959 27.8987C68.0897 27.4281 68.3886 27.0054 68.7924 26.6306C69.1963 26.2557 69.7446 25.9703 70.4374 25.7742C71.1815 25.5636 71.891 25.554 72.566 25.7454C73.2446 25.9302 73.832 26.2822 74.3282 26.8014C74.8229 27.3154 75.1799 27.9598 75.3992 28.7347C75.5576 29.2941 75.6141 29.8462 75.5688 30.3912C75.522 30.931 75.379 31.4343 75.1398 31.9011C74.9057 32.3664 74.5823 32.7711 74.1698 33.1152C73.7609 33.4526 73.2716 33.702 72.702 33.8632C72.1067 34.0317 71.5528 34.0721 71.0402 33.9844C70.5276 33.8967 70.0607 33.7157 69.6394 33.4414L70.8268 37.6366L69.141 38.1137ZM71.9923 32.4428C72.4645 32.3091 72.8536 32.0881 73.1599 31.7797C73.4698 31.4648 73.6737 31.0883 73.7715 30.6505C73.8744 30.2112 73.8525 29.7324 73.7058 29.2141C73.5591 28.6958 73.3268 28.2765 73.0089 27.9563C72.6895 27.631 72.3161 27.418 71.8885 27.3173C71.466 27.2152 71.0213 27.2302 70.5543 27.3624C70.0822 27.496 69.6905 27.7178 69.3791 28.0276C69.0728 28.336 68.869 28.7124 68.7675 29.1569C68.6646 29.5962 68.6865 30.075 68.8332 30.5933C68.9799 31.1116 69.2122 31.5308 69.5301 31.851C69.848 32.1712 70.2189 32.3849 70.6428 32.4922C71.0704 32.5929 71.5202 32.5764 71.9923 32.4428ZM81.9012 32.1545C81.0518 32.2364 80.2893 32.1358 79.6137 31.8526C78.9375 31.5642 78.3888 31.1242 77.9674 30.5325C77.5513 29.9404 77.3033 29.2303 77.2235 28.4021C77.1651 27.7969 77.2149 27.2295 77.3728 26.6999C77.5302 26.165 77.7792 25.6909 78.1197 25.2776C78.4603 24.8644 78.8728 24.5299 79.3572 24.2743C79.8468 24.0181 80.3916 23.8611 80.9915 23.8032C81.6445 23.7403 82.237 23.801 82.7692 23.9855C83.3008 24.1646 83.7538 24.4451 84.1282 24.8269C84.5079 25.2082 84.7936 25.671 84.9854 26.2151C85.182 26.7533 85.2637 27.3509 85.2306 28.0078L78.9398 28.6144C78.9747 29.0879 79.1181 29.492 79.3701 29.8266C79.6215 30.156 79.9585 30.3995 80.3809 30.557C80.8086 30.714 81.2985 30.7659 81.8506 30.7127C82.2965 30.6697 82.7201 30.5619 83.1214 30.3892C83.5275 30.2108 83.8876 29.9724 84.2018 29.6742L84.9999 30.8671C84.7651 31.0987 84.4743 31.3063 84.1277 31.4897C83.7805 31.6679 83.4141 31.813 83.0284 31.9252C82.6432 32.0427 82.2675 32.1192 81.9012 32.1545ZM78.9189 27.3144L83.3862 26.8836C83.3129 26.2906 83.0768 25.8418 82.6777 25.5374C82.284 25.2325 81.7526 25.1122 81.0837 25.1767C80.4361 25.2392 79.9136 25.461 79.5164 25.8422C79.1244 26.2229 78.9253 26.7136 78.9189 27.3144ZM89.1499 31.6737L89.5198 25.2203L86.9241 25.0715L87.0074 23.6179L93.964 24.0166L93.8807 25.4702L91.277 25.321L90.9071 31.7744L89.1499 31.6737ZM95.0901 32.1964L96.7136 24.4446L98.4362 24.8054L97.0866 31.2496L98.5665 31.5595C99.1302 31.6776 99.5786 31.6571 99.9117 31.4979C100.245 31.3388 100.457 31.0426 100.547 30.6094C100.637 30.1813 100.573 29.8246 100.355 29.5391C100.136 29.2537 99.769 29.0569 99.2522 28.9486L97.4043 28.5616L97.6749 27.2696L99.6559 27.6845C100.658 27.8944 101.399 28.284 101.88 28.8532C102.36 29.4224 102.511 30.1324 102.333 30.9833C102.218 31.5314 101.981 31.9722 101.622 32.3058C101.265 32.6341 100.814 32.8502 100.269 32.9541C99.7291 33.059 99.1252 33.0415 98.457 32.9016L95.0901 32.1964ZM107.215 35.4742L110.626 28.3267L112.215 29.0849L110.898 31.8428L114.479 33.5522L115.796 30.7943L117.384 31.5525L113.972 38.6999L112.384 37.9417L113.852 34.8662L110.271 33.1568L108.803 36.2324L107.215 35.4742ZM118.851 42.2328C118.179 41.751 117.689 41.1666 117.381 40.4796C117.081 39.7914 116.966 39.0823 117.037 38.3521C117.111 37.6175 117.37 36.9404 117.815 36.3207C118.144 35.8613 118.54 35.4886 119.001 35.2024C119.47 34.9151 119.973 34.7252 120.512 34.6326C121.056 34.5432 121.605 34.5598 122.16 34.6825C122.715 34.8051 123.247 35.0483 123.754 35.412C124.425 35.8938 124.911 36.4788 125.212 37.167C125.52 37.854 125.637 38.5647 125.563 39.2992C125.492 40.0294 125.234 40.7044 124.79 41.3241C124.463 41.7792 124.066 42.1503 123.597 42.4377C123.133 42.7281 122.631 42.9196 122.092 43.0122C121.553 43.1047 121.006 43.0896 120.451 42.967C119.896 42.8444 119.362 42.5996 118.851 42.2328ZM119.76 40.9652C120.159 41.2512 120.574 41.4179 121.006 41.4653C121.446 41.5114 121.869 41.4379 122.277 41.2446C122.685 41.0514 123.046 40.7359 123.36 40.2982C123.674 39.8606 123.857 39.4176 123.909 38.9695C123.965 38.517 123.899 38.0922 123.711 37.695C123.528 37.3009 123.237 36.9609 122.838 36.6749C122.439 36.3889 122.022 36.2207 121.585 36.1702C121.153 36.1228 120.732 36.1979 120.321 36.3955C119.918 36.5918 119.559 36.9088 119.245 37.3465C118.931 37.7842 118.748 38.2272 118.695 38.6753C118.643 39.1235 118.707 39.5467 118.887 39.9451C119.075 40.3423 119.366 40.6823 119.76 40.9652ZM123.769 45.7258L129.429 40.1856L132.07 42.884C132.697 43.5243 133.077 44.1563 133.21 44.78C133.342 45.4037 133.165 45.9543 132.677 46.4319C132.449 46.6557 132.191 46.8 131.903 46.8649C131.62 46.926 131.324 46.9171 131.015 46.8384C130.707 46.7597 130.399 46.6169 130.092 46.4099L130.35 46.1129C130.77 46.6793 130.983 47.2284 130.988 47.7603C130.994 48.2921 130.795 48.7557 130.391 49.1512C130.048 49.487 129.663 49.6884 129.236 49.7555C128.813 49.8189 128.369 49.75 127.903 49.5489C127.442 49.3441 126.981 49.0073 126.522 48.5386L123.769 45.7258ZM125.893 46.0314L127.286 47.4549C127.656 47.8322 128.002 48.0603 128.326 48.1392C128.653 48.2218 128.942 48.1401 129.194 47.8938C129.441 47.6513 129.527 47.3694 129.452 47.048C129.38 46.7229 129.157 46.3698 128.784 45.9887L127.228 44.3994L128.126 43.5208L129.553 44.9786C129.9 45.333 130.222 45.5552 130.519 45.6451C130.82 45.7313 131.094 45.6531 131.342 45.4106C131.589 45.1681 131.673 44.8956 131.594 44.593C131.518 44.2867 131.306 43.9564 130.959 43.6019L129.695 42.3099L125.893 46.0314ZM129.92 52.3404L136.525 47.9699L137.496 49.4377L132.005 53.0709L132.796 54.2651C133.114 54.7455 133.447 55.0462 133.795 55.1672C134.144 55.2882 134.503 55.2266 134.872 54.9823C135.237 54.741 135.442 54.4422 135.488 54.0858C135.533 53.7295 135.41 53.3312 135.119 52.8908L134.121 51.383L135.222 50.6546L136.295 52.2758C136.86 53.1298 137.113 53.928 137.054 54.6703C136.996 55.4127 136.604 56.0237 135.879 56.5035C135.412 56.8125 134.933 56.9595 134.444 56.9445C133.959 56.9265 133.486 56.7629 133.026 56.4537C132.568 56.1489 132.151 55.7118 131.774 55.1425L129.92 52.3404ZM134.352 59.0387L140.957 54.6683L141.929 56.136L135.324 60.5065L134.352 59.0387ZM136.438 62.6367L143.786 59.6814L144.422 61.2623L139.464 63.2564L146.025 65.248L146.598 66.6731L139.25 69.6284L138.618 68.0549L143.635 66.0369L137 64.0321L136.438 62.6367ZM146.454 62.6698C146.233 62.1205 146.153 61.5923 146.213 61.0851C146.274 60.5779 146.459 60.1299 146.768 59.7411C147.077 59.3523 147.495 59.0608 148.02 58.8667L148.569 60.2324C148.106 60.3957 147.783 60.6578 147.601 61.0186C147.425 61.3824 147.424 61.7796 147.597 62.21C147.77 62.6405 148.045 62.9238 148.422 63.0597C148.803 63.1937 149.217 63.1568 149.662 62.9489L150.214 64.322C149.704 64.5389 149.201 64.6117 148.707 64.5403C148.215 64.4739 147.768 64.2796 147.369 63.9575C146.976 63.6384 146.671 63.2091 146.454 62.6698ZM140.97 78.086C140.913 77.6954 140.893 77.3022 140.91 76.9061C140.923 76.5109 140.978 76.1335 141.076 75.7742C141.181 75.4193 141.334 75.1005 141.535 74.8178L142.841 75.4029C142.615 75.7325 142.462 76.1052 142.382 76.5211C142.304 76.9422 142.294 77.356 142.354 77.7623C142.435 78.3217 142.606 78.7872 142.865 79.159C143.13 79.5299 143.486 79.7905 143.933 79.9406C144.381 80.0907 144.924 80.1191 145.563 80.0257C146.46 79.8945 147.099 79.5665 147.481 79.0418C147.863 78.5223 147.993 77.8457 147.871 77.0119C147.81 76.595 147.678 76.21 147.476 75.857C147.278 75.5031 147.044 75.2086 146.772 74.9734L147.877 74.1246C148.231 74.4395 148.534 74.8559 148.788 75.374C149.047 75.8966 149.218 76.4376 149.3 76.997C149.42 77.8149 149.352 78.5524 149.098 79.2095C148.849 79.8658 148.443 80.4075 147.88 80.8348C147.318 81.2621 146.627 81.5355 145.809 81.6552C145.171 81.7486 144.576 81.7332 144.024 81.6091C143.478 81.4895 142.994 81.272 142.57 80.9566C142.147 80.6465 141.798 80.2475 141.522 79.7597C141.246 79.2771 141.062 78.7192 140.97 78.086ZM144.336 76.0009L145.642 75.8099L146.319 80.4406L145.013 80.6317L144.336 76.0009ZM141.872 83.9841L149.79 84.1402L149.643 91.6187L141.724 91.4626L141.759 89.7029L148.222 89.8304L148.3 85.8711L141.837 85.7437L141.872 83.9841ZM141.452 93.8645L149.206 95.4758L148.859 97.1441L143.627 96.0569L147.985 101.35L147.673 102.854L139.919 101.243L140.264 99.5824L145.559 100.683L141.146 95.337L141.452 93.8645ZM138.101 105.997C138.259 105.583 138.444 105.197 138.656 104.838C138.862 104.478 139.095 104.153 139.354 103.864C139.618 103.576 139.912 103.338 140.236 103.148L141.075 104.291C140.691 104.504 140.357 104.801 140.074 105.184C139.795 105.569 139.571 105.982 139.401 106.426C139.171 107.029 139.076 107.538 139.117 107.953C139.163 108.37 139.39 108.657 139.798 108.813C140.157 108.951 140.484 108.864 140.78 108.555C141.073 108.25 141.353 107.749 141.62 107.052L142.141 105.692L143.381 106.167L142.878 107.482C142.641 108.1 142.529 108.602 142.541 108.989C142.557 109.378 142.738 109.638 143.081 109.77C143.286 109.848 143.483 109.841 143.672 109.748C143.86 109.66 144.039 109.499 144.207 109.267C144.374 109.04 144.524 108.754 144.655 108.41C144.817 107.987 144.911 107.555 144.937 107.114C144.963 106.672 144.903 106.255 144.756 105.862L146.089 105.67C146.258 106.169 146.322 106.718 146.28 107.319C146.244 107.922 146.121 108.497 145.911 109.045C145.667 109.683 145.378 110.2 145.043 110.598C144.708 110.995 144.344 111.261 143.95 111.396C143.556 111.53 143.147 111.517 142.723 111.355C142.345 111.21 142.063 110.962 141.877 110.611C141.69 110.265 141.621 109.839 141.672 109.333C141.334 109.844 140.953 110.183 140.529 110.352C140.102 110.526 139.653 110.522 139.18 110.341C138.681 110.15 138.307 109.845 138.057 109.423C137.81 109.009 137.689 108.506 137.693 107.913C137.7 107.328 137.836 106.689 138.101 105.997ZM134.085 114.192C134.501 113.478 135.036 112.935 135.691 112.562C136.347 112.198 137.042 112.016 137.776 112.017C138.514 112.021 139.213 112.214 139.872 112.598C140.361 112.882 140.769 113.24 141.098 113.672C141.429 114.111 141.666 114.595 141.809 115.122C141.95 115.655 141.986 116.203 141.917 116.767C141.847 117.332 141.656 117.884 141.342 118.423C140.926 119.138 140.39 119.677 139.734 120.042C139.079 120.414 138.383 120.598 137.645 120.594C136.911 120.593 136.215 120.401 135.556 120.018C135.071 119.736 134.664 119.376 134.333 118.937C134 118.502 133.762 118.021 133.618 117.493C133.475 116.965 133.438 116.419 133.507 115.855C133.576 115.291 133.769 114.736 134.085 114.192ZM135.434 114.977C135.187 115.401 135.061 115.83 135.055 116.265C135.051 116.707 135.164 117.121 135.395 117.509C135.627 117.896 135.975 118.225 136.441 118.496C136.906 118.767 137.365 118.907 137.816 118.917C138.271 118.929 138.688 118.823 139.065 118.598C139.44 118.378 139.751 118.056 139.998 117.632C140.244 117.208 140.372 116.776 140.381 116.337C140.387 115.902 140.272 115.49 140.036 115.1C139.802 114.717 139.453 114.39 138.987 114.119C138.521 113.848 138.063 113.708 137.612 113.699C137.161 113.689 136.745 113.793 136.366 114.011C135.989 114.235 135.678 114.557 135.434 114.977ZM127.302 123.759L132.19 127.988L134.284 125.568L133.492 124.883C132.947 124.412 132.483 123.954 132.099 123.509C131.716 123.064 131.428 122.614 131.236 122.159C131.048 121.707 130.975 121.238 131.015 120.751C131.052 120.268 131.219 119.753 131.516 119.206L132.7 119.66C132.462 120.123 132.385 120.562 132.472 120.975C132.559 121.388 132.782 121.807 133.141 122.231C133.501 122.663 133.976 123.133 134.565 123.643L136.458 125.281L132.14 130.272L126.151 125.09L127.302 123.759ZM129.827 117.173L132.7 119.66L131.904 120.409L131.853 120.725L126.21 127.246L123.294 124.723L124.346 123.507L126.161 125.078L130.589 119.96L128.775 118.389L129.827 117.173Z" fill="#938FD4"/>
<path d="M101.129 82.4357C102.837 83.362 102.837 85.6776 101.129 86.6038L78.0798 99.1081C76.3725 100.034 74.2383 98.8765 74.2383 97.024L74.2383 72.0155C74.2383 70.163 76.3725 69.0052 78.0798 69.9315L101.129 82.4357Z" fill="#938FD4"/>
<defs>
<linearGradient id="paint0_linear_4815_21335" x1="89.0962" y1="132.743" x2="89.0962" y2="40.4746" gradientUnits="userSpaceOnUse">
<stop stop-color="#141321"/>
<stop offset="1" stop-color="#2C2349"/>
</linearGradient>
</defs>
</svg>
