<svg width="135" height="88" viewBox="0 0 135 88" fill="none" xmlns="http://www.w3.org/2000/svg">
<g filter="url(#filter0_d_4724_689)">
<path d="M41.5595 53.5171C40.8697 53.7012 39.2088 54.1446 37.8682 53.3347C37.1203 52.8831 36.7556 52.241 36.5372 51.7522C35.7665 50.0264 36.1186 47.6841 36.5474 45.9011C36.5774 45.7758 36.7652 45.6069 36.5942 45.488C36.4683 45.4 35.7491 45.2619 35.7815 45.0825L36.0442 44.7067C36.2547 44.6554 36.7016 45.0166 36.8617 44.8774C37.0981 44.2802 37.3038 43.6701 37.5581 43.0793C37.8196 42.4716 38.1177 41.8621 38.4099 41.2672C38.5436 40.9951 38.7344 40.7481 38.8201 40.4585C38.0194 38.9803 37.3104 37.4456 36.821 35.838L36.7496 35.7891C36.5696 35.8007 36.3387 35.905 36.1576 35.9761C34.4913 36.6322 31.9984 38.0113 31.5036 39.803C31.3105 40.5028 31.5624 41.2864 31.9619 41.8726C32.0278 41.9699 32.1694 42.0311 32.179 42.1692C32.1892 42.3253 32.041 42.3935 31.9619 42.499C31.8569 42.64 31.8581 42.8363 31.6254 42.7617C31.4502 42.4424 31.1539 42.1919 30.9722 41.8633C30.3598 40.7533 30.3724 39.8152 30.926 38.7204C31.1539 38.2689 31.3015 38.1092 31.6668 37.7602C32.9354 36.5477 34.5255 35.9563 36.1845 35.3829C36.3129 35.3387 36.5234 35.3561 36.5972 35.2006C36.68 35.0269 36.3423 34.3656 36.3423 34.1296C36.0274 32.3024 35.7827 29.7416 37.1383 28.2366C39.1332 26.0231 42.608 27.6959 44.5873 29.0768C45.189 29.4969 45.7246 29.9881 46.2824 30.4589C46.3772 30.4868 46.4324 30.4665 46.5169 30.4303C46.7191 30.3441 47.2121 29.7842 47.4724 29.6105C47.6104 29.5185 47.8689 29.9222 47.8353 29.9997C47.8197 30.0359 47.5348 30.2614 47.473 30.3109C47.2991 30.449 46.7497 30.7118 46.821 30.9437C46.8528 31.0474 47.4269 31.5129 47.557 31.6475C48.2036 32.3164 48.8226 33.0313 49.4116 33.7474C49.546 33.9106 49.7577 34.2951 49.9443 34.3551C51.4954 34.4833 53.0333 34.7018 54.5418 35.0555C54.7104 35.0951 55.3822 35.3264 55.4704 35.3183C55.6407 35.3019 55.6653 34.9716 55.6911 34.8323C55.9448 33.4438 56.2351 31.7704 55.922 30.3791C55.4883 28.4528 54.3505 27.6033 52.3105 27.9033C52.2218 27.9161 52.127 27.9086 52.0376 27.9004L51.9902 27.869C52.0082 27.6592 51.7185 27.4558 51.9183 27.2904C52.8558 27.1261 53.8665 27.0923 54.7266 27.5415C56.9969 28.7278 56.8361 31.8509 56.4385 33.9665C56.3473 34.4513 56.2093 34.9261 56.0972 35.4057C56.126 35.4692 56.1793 35.5094 56.2405 35.5414C56.5632 35.711 57.1534 35.8421 57.5271 36C57.9656 36.1853 58.3699 36.4486 58.8227 36.6054C58.9985 36.7213 58.8947 37.1496 58.8899 37.3354C58.7507 37.3739 58.6836 37.2166 58.6212 37.181C57.818 36.7172 56.9519 36.3909 56.099 36.0262C55.9322 35.9773 55.8764 36.0693 55.8194 36.1992C55.4883 36.9485 55.2562 37.7736 54.9107 38.538C54.6498 39.1143 54.3361 39.6702 54.0692 40.2441C53.9096 40.4253 53.6469 40.4148 53.5156 40.2044C53.2271 39.7412 53.0063 39.1994 52.7238 38.7222C51.983 37.47 51.1319 36.2301 50.2202 35.1003C50.138 34.999 49.8483 34.5567 49.7727 34.5235C47.5696 34.2986 45.3335 34.2782 43.125 34.4361C43.0182 34.4588 42.7807 34.7706 42.6967 34.8731C41.5409 36.2802 40.1475 38.351 39.3552 39.9737C39.3006 40.0856 39.1422 40.3961 39.1422 40.4993C39.1422 40.582 39.4559 41.1641 39.5213 41.2899C40.1835 42.5631 41.0604 43.8251 41.9032 44.9933C42.0891 45.2515 42.4562 45.6343 42.5924 45.8766C42.6223 45.9303 42.7399 46.5082 42.7297 46.5438C42.7141 46.5986 42.6535 46.644 42.5948 46.6493C42.0165 46.5648 41.4173 46.5688 40.8391 46.4914C40.1589 46.3999 39.4385 46.2466 38.7685 46.0946C38.5202 46.0386 37.4442 45.6925 37.2966 45.7339C37.1131 45.7846 37.203 45.9471 37.1682 46.0782C36.686 47.8874 36.3141 50.8747 37.7381 52.3727C38.621 53.3015 40.0437 53.2502 41.1966 52.8592C42.5792 52.3908 43.8382 51.6584 45.024 50.8392C45.1404 50.7588 45.3431 50.5338 45.4643 50.482C45.6712 50.3934 45.8679 50.5991 46.0773 50.6451L46.0413 50.8293C45.3281 51.4964 44.3948 52.2195 43.2096 52.8342C42.6979 53.0999 42.2319 53.3382 41.5583 53.5177L41.5595 53.5171ZM45.1584 30.1722C43.5191 28.9422 40.3239 27.0171 38.2629 28.1626C36.3723 29.2131 36.6398 32.3875 36.9493 34.1611C36.9709 34.2846 37.1017 34.9902 37.1341 35.0298C37.1526 35.0526 37.1772 35.0695 37.206 35.0776C37.3512 35.1196 38.1129 34.8667 38.3271 34.823C39.2388 34.636 40.1607 34.5387 41.0766 34.3866L42.975 34.2502C43.7308 33.311 44.5106 32.3449 45.3725 31.4943C45.5081 31.3603 45.9633 31.0654 45.9705 30.8743C45.9687 30.8271 45.9531 30.7863 45.9219 30.7502C45.8236 30.6343 45.3233 30.2975 45.1578 30.1734L45.1584 30.1722ZM46.7467 31.5024C46.6453 31.4185 46.5523 31.1994 46.3568 31.2018C46.0821 31.4407 45.763 31.6691 45.4937 31.9202C44.9238 32.4504 44.381 33.0488 43.8556 33.6181C43.7632 33.7177 43.3967 34.0067 43.3811 34.1034C43.3361 34.3831 43.8364 34.1972 43.9941 34.1902C45.6742 34.1116 47.6296 34.1524 49.2851 34.3388C49.7025 34.386 49.2203 33.8937 49.1189 33.7789C48.404 32.9701 47.5756 32.1847 46.7473 31.5018L46.7467 31.5024ZM39.1266 40.0023C39.8926 38.5969 40.7551 37.2474 41.6626 35.9248L42.6361 34.6936L42.6517 34.6068C42.5984 34.4955 42.515 34.4973 42.4022 34.5055C41.7832 34.5497 41.0718 34.8009 40.4396 34.8154C39.5291 35.0578 38.507 35.1912 37.6187 35.4925C37.5299 35.5228 37.4202 35.5577 37.356 35.6271C37.3188 35.6952 37.3734 35.8928 37.3968 35.9778C37.7027 37.1024 38.1417 38.2007 38.5976 39.2751C38.6492 39.3969 38.8315 39.9679 38.8765 40.0139C38.9437 40.0821 39.0553 40.0495 39.1278 40.0023H39.1266ZM54.4807 35.4855C53.467 35.1883 52.4041 34.9931 51.3628 34.8032C51.0947 34.7542 50.4685 34.5526 50.2394 34.6249L50.1704 34.717C50.1602 34.8416 50.3383 34.9331 50.4121 35.0275C51.4114 36.3047 52.3603 37.7829 53.1809 39.1708C53.2594 39.3037 53.6385 40.0675 53.7195 40.0873C53.7723 40.1002 53.7945 40.0809 53.8347 40.0547C53.9978 39.9475 54.2995 38.915 54.4801 38.7018C54.6114 38.2187 54.8262 37.7631 54.9833 37.2888C55.0841 36.9841 55.3384 36.3076 55.369 36.032C55.4146 35.6195 54.8771 35.6043 54.5532 35.5088C54.5215 35.4995 54.4903 35.4884 54.4813 35.4861L54.4807 35.4855ZM41.713 45.1192C40.7413 43.7703 39.8734 42.3609 39.0768 40.906L38.9353 40.885C38.3655 42.175 37.8436 43.4825 37.4939 44.8413C37.446 45.0271 37.3152 45.1151 37.6241 45.2264C38.4998 45.5422 39.6905 45.7788 40.616 45.971C41.0598 46.0631 41.9524 46.3002 42.3578 46.302C42.4178 46.302 42.4658 46.2973 42.4934 46.2379C42.5336 46.1085 42.2121 45.8318 42.1371 45.7275C41.9931 45.527 41.857 45.3202 41.7124 45.1198L41.713 45.1192Z" fill="white"/>
<path d="M61.6101 50.3352C61.5999 49.9541 61.6232 49.5701 61.6118 49.1885C61.5483 47.0985 61.3143 44.9939 61.1686 42.9051C61.1446 42.5596 61.177 42.2076 61.1242 41.8615L61.0294 41.7951L60.9089 41.8359C60.7625 42.2636 60.6503 42.7198 60.5016 43.148C59.747 45.322 58.6842 47.4766 57.9908 49.6371C57.9404 49.795 57.878 50.2029 57.8306 50.2967C57.8174 50.3223 57.7958 50.341 57.7706 50.3561L56.8907 50.3363C56.8949 49.9413 56.7018 49.5812 56.5836 49.2182C55.8866 47.0728 54.9635 45.0155 54.3031 42.855C54.2066 42.5392 54.1526 42.1698 54.0434 41.865C53.9912 41.7194 53.7867 41.8027 53.7717 41.9775C53.7657 42.0492 53.8065 42.1121 53.8035 42.168C53.6685 44.6938 53.3062 47.201 53.2534 49.7368C53.2492 49.9261 53.1911 50.1003 53.254 50.3107C53.245 50.3462 53.1797 50.3602 53.1467 50.362C52.9241 50.3719 52.6356 50.3282 52.3903 50.3352C52.262 50.3387 52.0772 50.4505 52.0502 50.2775C52.0448 50.2419 52.0856 49.9232 52.0952 49.855C52.4341 47.4143 52.7832 44.9391 52.9721 42.4792C53.0153 41.9175 53.0915 41.3639 53.0561 40.7947L54.9533 40.7889C55.1968 42.2834 55.8063 43.6823 56.3035 45.1052C56.5518 45.8166 56.613 46.1939 56.8343 46.9112C56.9662 47.3389 57.2608 48.2696 57.3976 48.6612C57.4389 48.78 57.5643 48.9257 57.6291 48.7457C57.7101 48.5196 57.7167 48.2341 57.7814 47.9993C58.1149 46.7862 58.7567 45.4303 59.2234 44.237C59.5977 43.2797 60.1675 42.1109 60.3678 41.1181C60.3924 40.9963 60.3175 40.8396 60.4302 40.7516H62.1895L62.929 50.3369H61.6095L61.6101 50.3352Z" fill="white"/>
<path d="M74.1893 30.2887C77.9298 33.0878 75.2384 40.2027 70.2162 38.8206C67.466 38.0638 66.6029 35.1475 67.3083 32.6776C68.1342 29.7842 71.6419 28.3823 74.1899 30.2882L74.1893 30.2887ZM73.4294 31.0258C71.2257 29.2895 68.6549 30.8609 68.292 33.3227C68.0598 34.8987 68.4149 36.585 69.8107 37.5452C71.8267 38.9319 74.0862 37.5551 74.5942 35.4418C74.9511 33.9572 74.7118 32.0367 73.4294 31.0264V31.0258Z" fill="white"/>
<path d="M92.0242 29.9788C94.8115 31.605 94.8781 36.0064 92.4591 37.9554C90.728 39.3497 88.3401 39.3357 86.7141 37.8004C85.118 36.2931 84.9674 33.5971 85.9811 31.7466C87.1279 29.6531 89.8523 28.7121 92.0236 29.9788H92.0242ZM91.8557 31.189C90.3771 29.7929 88.3503 30.0807 87.2095 31.6959C86.1688 33.17 86.2618 36.0413 87.7145 37.2562C88.8302 38.1896 90.1516 38.4291 91.4136 37.5988C93.4212 36.2785 93.5453 32.7831 91.8557 31.1884V31.189Z" fill="white"/>
<path d="M102.997 50.3352C102.994 50.2157 103.009 50.0945 102.988 49.9757C102.9 49.488 102.593 48.6926 102.417 48.2015C102.358 48.0395 102.099 47.2581 101.998 47.2109L97.5689 47.2203L97.4585 47.3461C97.2138 48.1677 96.8839 48.963 96.6578 49.7898C96.623 49.918 96.593 50.366 96.4598 50.3748C96.3956 50.3789 96.3051 50.3352 96.2211 50.3328C95.956 50.3258 95.6831 50.327 95.4179 50.3328C95.3172 50.3352 95.2188 50.4132 95.1618 50.3119C95.3994 49.7059 95.6261 49.0906 95.8786 48.4905C96.8629 46.1522 98.0457 43.8082 98.9167 41.4269C98.9712 41.2771 99.0216 40.9229 99.0786 40.8174C99.1458 40.6939 99.4169 40.7894 99.5369 40.7906C99.817 40.7935 100.1 40.7935 100.38 40.7906C100.464 40.7894 100.539 40.7516 100.617 40.7527C100.837 40.7568 100.772 40.9584 100.818 41.0994C101.009 41.6797 101.252 42.2577 101.478 42.8264C102.464 45.3103 103.619 47.7278 104.512 50.2448L104.458 50.3352H102.997ZM99.7444 41.6092L97.8436 46.2717L97.9186 46.3579L101.612 46.3719C101.715 46.3393 101.684 46.1493 101.658 46.0654C101.122 44.7667 100.501 43.4802 100.059 42.1465C99.9945 41.9518 100.015 41.523 99.7444 41.6092Z" fill="white"/>
<path d="M65.2887 29.6129V30.4472C65.2887 30.4583 65.2269 30.5533 65.2089 30.5638C64.4358 30.569 63.6464 30.5416 62.8715 30.4653C62.1385 30.5311 61.2634 30.3837 60.5484 30.4647C60.2551 30.4979 60.4086 30.8504 60.4122 31.0281C60.429 31.8363 60.3966 32.6473 60.4104 33.4555C60.7235 33.4532 61.0384 33.4572 61.3521 33.4567C63.3051 33.4526 66.0025 33.5108 65.8507 36.1153C65.6966 38.7641 62.1541 38.8101 60.1489 38.7344C59.9096 38.7257 59.6493 38.6651 59.3961 38.6884L59.3482 38.6575C59.269 38.5474 59.3685 38.0195 59.3721 37.861C59.4303 35.577 59.4339 33.2749 59.3691 30.992C59.356 30.5305 59.3835 30.072 59.3308 29.6129H65.2893H65.2887ZM64.3152 34.943C63.6308 34.266 61.6364 34.1314 60.7103 34.231C60.579 34.245 60.4056 34.2817 60.4086 34.4425C60.4374 35.5577 60.3312 36.6963 60.54 37.7917C60.5748 37.8254 61.0282 37.8773 61.1104 37.8785C61.9921 37.8913 63.65 37.8511 64.3086 37.2183C64.8982 36.652 64.8958 35.5175 64.3152 34.943Z" fill="white"/>
<path d="M96.4994 38.6936C96.4544 38.6936 96.3896 38.7781 96.3291 38.6307C96.4544 37.463 96.389 36.2779 96.398 35.1021C96.4052 34.1594 96.4118 33.2224 96.398 32.2727C96.3854 31.3859 96.4574 30.4898 96.3201 29.6129C96.6332 29.6099 96.9475 29.6152 97.2612 29.6146C97.3733 29.6146 97.5089 29.5301 97.6013 29.6391C97.5569 30.1169 97.5737 30.5911 97.5611 31.0701C97.5437 31.7442 97.4297 32.7074 97.5179 33.3599C97.5395 33.519 97.5905 33.5208 97.7374 33.5347C99.0234 33.6571 100.513 33.4369 101.821 33.5347C101.928 33.5452 102.002 33.4969 102.057 33.4153C102.089 32.6508 102.063 31.8742 102.04 31.1056C102.028 30.7199 102.007 30.3324 102 29.9415C101.999 29.8541 101.943 29.7544 101.964 29.6799C102.013 29.5033 102.275 29.6204 102.418 29.6152C102.569 29.6099 103.15 29.5109 103.22 29.6099C103.286 29.7474 103.203 29.8925 103.198 30.0201C103.102 32.7895 103.126 35.4797 103.196 38.2485C103.201 38.4104 103.279 38.4984 103.183 38.668C103.126 38.7058 103.045 38.693 103.018 38.693H101.999C101.936 38.5724 101.998 38.4792 102 38.3644C102.006 38.0142 101.99 37.6635 101.997 37.3133C102.015 36.4603 102.129 35.3695 102.056 34.534C102.051 34.4757 102.029 34.3784 101.982 34.3417L101.821 34.305C100.513 34.3901 99.0702 34.1996 97.7782 34.305C97.699 34.3114 97.6253 34.3132 97.5593 34.3639L97.6043 38.5946L97.5941 38.6464C97.5647 38.6517 97.5149 38.6913 97.5005 38.6913C97.167 38.6913 96.8341 38.6924 96.5006 38.6913L96.4994 38.6936Z" fill="white"/>
<path d="M67.0168 44.4678C67.1061 44.6181 67.4198 44.5144 67.547 44.5126C69.6038 44.4882 72.3761 44.7294 72.3707 47.3275C72.3641 50.3451 68.5061 50.5263 66.2298 50.3736C66.1584 50.369 65.8069 50.3258 65.7866 50.299C65.9659 47.6485 65.8609 44.9811 65.8915 42.3201L65.7662 40.8139C65.789 40.6962 66.2742 40.79 66.3864 40.7889C66.5195 40.7877 67.0726 40.6659 67.1235 40.8139L67.0174 44.4678H67.0168ZM70.672 46.1989C69.9679 45.5428 68.205 45.3237 67.2663 45.4437C67.0798 45.4676 67.0222 45.6086 67.0066 45.7735C66.9712 46.1464 67.045 46.5409 67.0504 46.8992C67.06 47.5903 66.9694 48.4963 67.048 49.1524C67.0828 49.4437 67.3305 49.4291 67.5866 49.4443C68.5661 49.5037 70.3241 49.4064 70.903 48.5068C71.3474 47.8157 71.2898 46.7739 70.6726 46.1989H70.672Z" fill="white"/>
<path d="M86.5455 49.8918C86.374 50.0596 85.9079 50.4196 85.6824 50.4744C85.3945 50.5438 85.5288 50.2629 85.5228 50.1604C85.506 49.8714 85.4448 49.5725 85.491 49.2759C85.8425 49.0026 86.1322 48.7224 86.3884 48.3617C87.5574 46.7128 88.7798 43.7226 89.2771 41.7741C89.358 41.4572 89.4012 41.1186 89.4474 40.7953L93.4422 40.7661C93.5297 40.8279 93.4416 41.0184 93.438 41.1169C93.351 43.8443 93.3528 46.5438 93.4416 49.266C93.453 49.622 93.4512 49.9809 93.462 50.3369C93.4044 50.4196 93.2616 50.3375 93.1794 50.3352C92.9809 50.3288 92.7776 50.3305 92.5784 50.3334C92.4315 50.3352 92.2773 50.4412 92.1646 50.2711C92.2917 49.361 92.2257 48.438 92.2383 47.5203C92.2575 46.1557 92.3085 44.7783 92.2815 43.4067C92.2731 42.9709 92.2989 42.168 92.2371 41.7811C92.2245 41.7013 92.1927 41.6133 92.0998 41.604C91.5647 41.6559 90.896 41.5352 90.3783 41.6023C90.3237 41.6092 90.2727 41.6098 90.2374 41.6594C89.8205 43.2809 89.2992 44.8809 88.6203 46.4156C88.1428 47.4959 87.39 49.065 86.5449 49.8923L86.5455 49.8918Z" fill="white"/>
<path d="M82.9472 32.7802C82.7589 33.0127 82.3972 33.2574 82.1327 33.4054C82.0115 33.473 81.8136 33.473 81.765 33.6635C81.7836 33.7701 82.5375 33.9374 82.6923 34.0079C84.0833 34.64 84.1133 36.7755 83.1488 37.787C82.0997 38.8865 80.5078 38.9576 79.0646 38.848C78.8115 38.8288 77.3114 38.5765 77.201 38.4442C77.114 38.3399 77.2274 38.2723 77.243 38.1675C77.2664 38.0125 77.2508 37.6786 77.291 37.5545C77.3054 37.5096 77.3384 37.4887 77.3857 37.4875C77.6946 37.5941 78.0042 37.7054 78.3233 37.7829C79.6998 38.1156 82.5166 38.3364 82.7235 36.4236C82.8423 35.3247 82.1057 34.7915 81.116 34.5293C80.2864 34.3097 79.3801 34.4099 78.5248 34.386C78.5674 34.2199 78.5512 33.5371 78.6849 33.4741C79.1582 33.4468 79.6315 33.5225 80.1065 33.4951C81.2911 33.4275 82.3984 32.9503 82.2832 31.612C82.1453 30.0009 79.5487 30.213 78.415 30.4565C78.2315 30.4962 78.1691 30.5166 78.006 30.5643C77.9478 30.5812 77.6227 30.6774 77.6053 30.6605L77.7612 29.7451C77.8302 29.6577 78.6208 29.5185 78.7851 29.4969C80.1083 29.3274 82.3594 29.1834 83.1152 30.4933C83.4943 31.1499 83.4295 32.1836 82.9472 32.7802Z" fill="white"/>
<path d="M49.8111 40.7912C49.8477 40.8273 49.7403 41.4712 49.7211 41.5725C49.639 42.0165 49.5532 41.7998 49.2215 41.7316C48.7626 41.6372 48.1388 41.5632 47.6746 41.604C42.972 42.0189 43.1658 49.5602 48.4321 49.5567C49.0889 49.5567 49.696 49.5404 50.3102 49.2887L50.3743 49.3831C50.2928 49.6366 50.3563 49.9844 50.285 50.2297C50.2718 50.2751 50.2316 50.3142 50.1848 50.327C49.8357 50.3509 49.4998 50.4523 49.1525 50.4896C48.1454 50.5974 46.8846 50.5385 45.9339 50.1988C43.098 49.1844 42.329 45.6179 43.726 43.2057C44.2394 42.3189 44.8896 41.6745 45.8272 41.209C47.0604 40.5972 48.4705 40.5313 49.8099 40.7906L49.8111 40.7912Z" fill="white"/>
<path d="M84.2782 40.7929C84.31 40.8291 84.1858 41.625 84.1612 41.7386C84.1516 41.7829 84.151 41.8184 84.0965 41.833C83.7138 41.7864 83.3263 41.6366 82.9418 41.6046C80.3302 41.3896 78.6406 43.2873 78.7623 45.7386C78.9033 48.5749 81.3691 50.0432 84.1331 49.4728C84.37 49.4239 84.6021 49.3161 84.8384 49.291C84.9284 49.3528 84.7593 50.0415 84.794 50.1912C84.7101 50.3876 84.5445 50.3095 84.3916 50.3439C80.7345 51.1736 77.4469 49.439 77.5327 45.5422C77.5717 43.7633 78.7953 41.8417 80.4754 41.1099C81.6288 40.6071 83.0498 40.5267 84.2782 40.7924V40.7929Z" fill="white"/>
<path d="M73.8912 40.7941L75.1682 40.7673C75.2564 40.8261 75.1676 41.0184 75.164 41.1175C75.0723 44.0325 75.0723 46.9371 75.164 49.8521C75.1688 50.0083 75.2534 50.1749 75.188 50.3381C75.1275 50.4231 74.9289 50.3375 74.8275 50.334C74.6734 50.3293 73.9158 50.3695 73.863 50.299L73.968 48.6489C73.9728 46.1884 73.9902 43.7301 73.8846 41.2754C73.878 41.1163 73.887 40.9526 73.8912 40.7941Z" fill="white"/>
<path d="M35.2045 44.889C34.0636 46.1587 31.7987 45.139 32.1088 43.4563C32.3595 42.094 34.0618 41.5562 35.0995 42.5147C35.7671 43.1312 35.8097 44.2161 35.2051 44.889H35.2045Z" fill="white"/>
<path d="M50.8362 27.2234C51.3694 27.6988 51.559 28.3852 51.2939 29.0506C51.2171 29.244 50.973 29.6158 50.8044 29.7387C50.1878 30.1903 49.3271 30.2922 48.6751 29.8057C48.1106 29.3839 47.8311 28.6684 48.0417 27.9901C48.3944 26.8534 49.9185 26.4047 50.8362 27.2234Z" fill="white"/>
<path d="M57.3916 51.3053C57.4665 51.3268 57.4479 51.4078 57.4341 51.4614C57.3358 51.8402 56.8229 52.5586 56.5278 52.8342C54.3427 54.8764 50.5975 53.2543 48.4417 51.9188C48.0627 51.684 47.4778 51.3187 47.1557 51.0326C47.1072 50.9895 47.0412 50.9551 47.055 50.8788C47.1395 50.8776 47.2247 50.8741 47.3099 50.8834C47.5234 50.9062 47.9607 50.9493 48.1412 51.0081C48.3836 51.0874 48.747 51.3997 48.993 51.5401C50.79 52.5662 53.8569 53.9838 55.7691 52.5638C55.973 52.4123 56.4457 51.9089 56.5494 51.6916C56.6034 51.578 56.5812 51.4032 56.712 51.3059H57.3916V51.3053Z" fill="white"/>
<path d="M52.4929 42.6907C52.5007 42.7868 52.4983 42.8655 52.4701 42.9593C52.4311 43.0909 52.004 43.7092 51.8943 43.8752C51.5608 44.3804 51.1673 44.9298 50.8068 45.4198C50.5813 45.7263 50.3186 46.013 50.093 46.3206C50.0426 46.6324 50.4205 46.4459 50.5627 46.4249C50.9136 46.3737 51.2717 46.3445 51.622 46.2886C51.7077 46.2746 52.0028 46.1773 52.0292 46.1849C52.1132 46.2088 52.1162 46.4407 52.0754 46.4966C52.061 46.5164 51.6471 46.6015 51.5896 46.6073C51.1733 46.6487 50.6934 46.619 50.2736 46.6498C50.1596 46.658 49.8885 46.6871 49.7985 46.732C49.7319 46.7652 49.2551 47.384 49.1549 47.5058C49.0685 47.6112 48.9648 47.7761 48.8796 47.8763C48.5215 48.2982 48.143 48.7031 47.7478 49.0906L47.3723 49.0376C47.3105 49.0009 47.3417 48.9344 47.3723 48.8896C47.4005 48.8482 47.7879 48.5808 47.8779 48.4969C48.2792 48.1193 48.7854 47.5582 49.1339 47.1358C49.1993 47.0565 49.498 46.8532 49.3349 46.7448C49.2071 46.6597 48.2228 46.7996 47.9949 46.8066C47.2013 46.8316 46.1726 46.8602 45.3923 46.8066C45.2855 46.799 44.916 46.7693 44.8944 46.6685L44.9898 46.5741L45.8721 46.6516C46.6735 46.6691 47.4754 46.6405 48.2714 46.6096C48.7668 46.5904 49.2575 46.6423 49.7451 46.4972C50.5927 45.495 51.3256 44.4148 52.0346 43.3153C52.1486 43.1387 52.2632 42.9371 52.3885 42.7647C52.4221 42.7186 52.3897 42.6697 52.4917 42.6918L52.4929 42.6907Z" fill="white"/>
<path d="M58.8107 43.9713C58.8509 44.0145 58.5894 44.6501 58.539 44.7352C58.3525 45.0493 57.3898 45.2217 57.0617 45.4362L56.8955 45.4414L56.7756 44.9059L57.4485 44.6863C57.5349 44.6181 57.6447 44.554 57.7449 44.508C58.0022 44.3909 58.2619 44.304 58.5 44.163C58.5348 44.1426 58.7663 43.9236 58.8107 43.9713Z" fill="white"/>
<path d="M61.67 39.1976C61.7624 39.218 61.871 39.4248 61.907 39.5117C61.9501 39.6165 62.1133 40.1077 62.1235 40.1975C62.1487 40.42 61.7006 40.381 61.5531 40.3594C61.2778 40.3187 61.4067 40.1433 61.3611 39.9638C61.3257 39.8251 61.1182 39.5396 61.069 39.3934C61.0474 39.3287 61.0462 39.2646 61.0504 39.1976C61.2298 39.2238 61.5063 39.1621 61.67 39.1976Z" fill="white"/>
<path d="M54.6834 45.6075C54.705 45.6057 54.7254 45.5976 54.7476 45.604C54.7806 45.6133 54.9821 45.9955 54.8939 46.0485C54.5568 46.0194 53.7297 46.5397 53.9918 45.872C54.047 45.731 54.5263 45.6214 54.6834 45.608V45.6075Z" fill="white"/>
</g>
<defs>
<filter id="filter0_d_4724_689" x="0.511719" y="0.804688" width="134" height="87" filterUnits="userSpaceOnUse" color-interpolation-filters="sRGB">
<feFlood flood-opacity="0" result="BackgroundImageFix"/>
<feColorMatrix in="SourceAlpha" type="matrix" values="0 0 0 0 0 0 0 0 0 0 0 0 0 0 0 0 0 0 127 0" result="hardAlpha"/>
<feOffset dy="4"/>
<feGaussianBlur stdDeviation="15"/>
<feComposite in2="hardAlpha" operator="out"/>
<feColorMatrix type="matrix" values="0 0 0 0 1 0 0 0 0 0.496875 0 0 0 0 0.225962 0 0 0 0.3 0"/>
<feBlend mode="normal" in2="BackgroundImageFix" result="effect1_dropShadow_4724_689"/>
<feBlend mode="normal" in="SourceGraphic" in2="effect1_dropShadow_4724_689" result="shape"/>
</filter>
</defs>
</svg>
