<svg width="53" height="53" viewBox="0 0 53 53" fill="none" xmlns="http://www.w3.org/2000/svg">
<g clip-path="url(#clip0_4552_1338)">
<g clip-path="url(#clip1_4552_1338)">
<mask id="mask0_4552_1338" style="mask-type:luminance" maskUnits="userSpaceOnUse" x="2" y="0" width="50" height="51">
<path d="M32.5149 0.992619L2.17578 18.2422L20.6773 50.7833L51.0164 33.5338L32.5149 0.992619Z" fill="white"/>
</mask>
<g mask="url(#mask0_4552_1338)">
<path d="M35.8495 42.1575C31.3658 44.7068 25.6452 43.128 23.0949 38.6425C20.5446 34.157 22.1162 28.4321 26.5973 25.8843C31.0783 23.3366 36.8016 24.9139 39.3519 29.3995C41.9022 33.885 40.3305 39.6098 35.8495 42.1575ZM26.8218 26.2792C22.5563 28.7044 21.0633 34.1511 23.4894 38.4182C25.9154 42.6852 31.3622 44.1864 35.6251 41.7627C39.8878 39.3391 41.3834 33.8908 38.9574 29.6238C36.5313 25.3567 31.0845 23.8556 26.8218 26.2792Z" fill="white"/>
<path d="M26.5106 42.0857C23.6994 43.684 20.1328 43.7821 17.1454 42.0287C14.9892 40.7641 13.4532 38.7357 12.8216 36.3152C12.1901 33.8946 12.5371 31.3774 13.7992 29.2212C15.0614 27.0651 17.0873 25.5301 19.5061 24.9002C21.9249 24.2704 24.4411 24.6197 26.5972 25.8844C31.0468 28.4959 32.5497 34.2423 29.9407 38.6934C29.0818 40.157 27.8886 41.3022 26.508 42.0872L26.5106 42.0857ZM17.4535 26.217C16.1124 26.9795 14.9902 28.0843 14.1895 29.4487C12.9895 31.4999 12.6577 33.897 13.2572 36.1999C13.8593 38.5014 15.3197 40.4334 17.3709 41.6358C21.6049 44.119 27.068 42.6988 29.5489 38.4633C32.0299 34.2277 30.6031 28.7622 26.3677 26.2762C24.3165 25.0738 21.9203 24.7398 19.6191 25.3376C18.852 25.5368 18.1241 25.8357 17.4535 26.217Z" fill="white"/>
<path d="M21.8624 33.9723C20.4529 34.7737 18.8549 35.1946 17.1874 35.1813C14.6891 35.1632 12.3459 34.1756 10.5914 32.3934C8.83585 30.6154 7.8784 28.2582 7.89437 25.7585C7.92585 20.5993 12.1489 16.4288 17.3054 16.4647C22.4621 16.5006 26.6342 20.7294 26.6027 25.8886C26.5867 28.3882 25.6016 30.7317 23.8218 32.4856C23.2286 33.0702 22.5698 33.5701 21.8651 33.9708L21.8624 33.9723ZM12.8595 18.0764C10.185 19.597 8.36921 22.4685 8.34848 25.7616C8.33275 28.1392 9.24609 30.3821 10.9159 32.0766C12.5856 33.771 14.8152 34.7118 17.1916 34.7296C19.568 34.7474 21.809 33.8355 23.5012 32.1663C25.1933 30.4972 26.1317 28.2673 26.146 25.887C26.1758 20.9761 22.2087 16.9546 17.3002 16.9205C15.6857 16.9084 14.1691 17.3318 12.8568 18.0779L12.8595 18.0764Z" fill="white"/>
<path d="M26.601 25.8926C22.1173 28.4418 16.3967 26.8631 13.8464 22.3775C11.2961 17.892 12.8636 12.166 17.3473 9.61674C21.8309 7.06754 27.5516 8.64631 30.1019 13.1318C32.6521 17.6173 31.0805 23.3422 26.5995 25.8899L26.601 25.8926ZM17.5718 10.0116C13.3063 12.4368 11.8133 17.8836 14.2393 22.1506C16.6654 26.4177 22.1122 27.9188 26.3751 25.4951C30.6378 23.0715 32.1334 17.6232 29.7074 13.3562C27.2813 9.0891 21.8345 7.58797 17.5718 10.0116Z" fill="white"/>
<path d="M35.9624 25.9494C33.1513 27.5477 29.5819 27.6474 26.5945 25.8939C24.4384 24.6293 22.9025 22.601 22.2708 20.1805C21.6393 17.7599 21.9863 15.2427 23.2485 13.0865C24.5106 10.9303 26.5365 9.39529 28.9554 8.76547C31.3741 8.13569 33.8902 8.48506 36.0465 9.74967C38.2026 11.0143 39.7387 13.0426 40.3702 15.4631C41.0018 17.8838 40.6547 20.4009 39.3926 22.5571C38.5336 24.0207 37.3389 25.1633 35.9609 25.9468L35.9624 25.9494ZM26.9069 10.0834C25.5657 10.846 24.4435 11.9507 23.6428 13.3151C22.4428 15.3663 22.111 17.7634 22.7106 20.0663C23.3127 22.3678 24.7729 24.2998 26.8242 25.5021C31.0581 27.9854 36.5198 26.5626 39.0023 22.3296C40.2023 20.2785 40.5341 17.8814 39.932 15.5799C39.3299 13.2785 37.8696 11.3465 35.8183 10.1441C33.7671 8.9417 31.371 8.60767 29.0698 9.20546C28.3027 9.40474 27.5748 9.70363 26.9042 10.0849L26.9069 10.0834Z" fill="white"/>
<path d="M40.5559 34.0982C39.1779 34.8817 37.5825 35.3255 35.8865 35.311C33.3882 35.2928 31.0434 34.3026 29.2905 32.5231C27.5335 30.7424 26.576 28.3852 26.5919 25.8856C26.6079 23.3859 27.593 21.0424 29.3727 19.2886C31.151 17.5321 33.5062 16.5762 36.0045 16.5943C38.503 16.6124 40.8461 17.6001 42.6006 19.3822C44.3577 21.1628 45.3151 23.5202 45.2991 26.0198C45.2781 29.4837 43.3697 32.4984 40.5559 34.0982ZM35.8891 34.8566C40.7951 34.8923 44.8136 30.9251 44.8435 26.0141C44.8593 23.6365 43.9459 21.3935 42.2761 19.6991C40.6064 18.0046 38.3767 17.0638 35.9978 17.0476C33.6214 17.0297 31.3803 17.9416 29.6882 19.6108C27.996 21.28 27.0577 23.5098 27.0434 25.8901C27.0276 28.2677 27.941 30.5107 29.6108 32.2051C31.2805 33.8996 33.5102 34.8404 35.8865 34.8581L35.8891 34.8566Z" fill="white"/>
<path d="M31.2372 34.0154C28.426 35.6137 24.8593 35.7118 21.8719 33.9584C19.7157 32.6938 18.1798 30.6655 17.5482 28.2449C16.9167 25.8243 17.2636 23.3071 18.5258 21.1509C19.7879 18.9948 21.8139 17.4597 24.2326 16.8299C26.6515 16.2001 29.1676 16.5494 31.3239 17.8141C33.48 19.0787 35.016 21.1071 35.6476 23.5276C36.2792 25.9482 35.9321 28.4654 34.67 30.6215C33.8109 32.0852 32.6178 33.2304 31.2398 34.0139L31.2372 34.0154ZM22.1816 18.1493C20.8404 18.9119 19.7182 20.0167 18.9176 21.381C17.7176 23.4323 17.3858 25.8293 17.9852 28.1322C18.5874 30.4338 20.0477 32.3657 22.0989 33.5681C26.3329 36.0514 31.796 34.6311 34.2771 30.3956C35.4771 28.3444 35.8088 25.9474 35.2094 23.6444C34.6073 21.3429 33.1469 19.411 31.0957 18.2086C29.0445 17.0062 26.6484 16.6721 24.3471 17.2699C23.58 17.4692 22.8522 17.7681 22.1816 18.1493Z" fill="white"/>
</g>
</g>
</g>
<defs>
<clipPath id="clip0_4552_1338">
<rect width="38.39" height="38.39" fill="white" transform="translate(0.660156 19.1055) rotate(-29.6208)"/>
</clipPath>
<clipPath id="clip1_4552_1338">
<rect width="34.9" height="38.39" fill="white" transform="translate(2.17578 18.2422) rotate(-29.6208)"/>
</clipPath>
</defs>
</svg>
