<svg width="239" height="18" viewBox="0 0 239 18" fill="none" xmlns="http://www.w3.org/2000/svg">
<path d="M11.816 1.4V14H10.052V2.966H2.744V14H0.962V1.4H11.816ZM24.0792 9.284C24.0792 9.416 24.0672 9.59 24.0432 9.806H16.3032C16.4112 10.646 16.7772 11.324 17.4012 11.84C18.0372 12.344 18.8232 12.596 19.7592 12.596C20.8992 12.596 21.8172 12.212 22.5132 11.444L23.4672 12.56C23.0352 13.064 22.4952 13.448 21.8472 13.712C21.2112 13.976 20.4972 14.108 19.7052 14.108C18.6972 14.108 17.8032 13.904 17.0232 13.496C16.2432 13.076 15.6372 12.494 15.2052 11.75C14.7852 11.006 14.5752 10.166 14.5752 9.23C14.5752 8.306 14.7792 7.472 15.1872 6.728C15.6072 5.984 16.1772 5.408 16.8972 5C17.6292 4.58 18.4512 4.37 19.3632 4.37C20.2752 4.37 21.0852 4.58 21.7932 5C22.5132 5.408 23.0712 5.984 23.4672 6.728C23.8752 7.472 24.0792 8.324 24.0792 9.284ZM19.3632 5.828C18.5352 5.828 17.8392 6.08 17.2752 6.584C16.7232 7.088 16.3992 7.748 16.3032 8.564H22.4232C22.3272 7.76 21.9972 7.106 21.4332 6.602C20.8812 6.086 20.1912 5.828 19.3632 5.828ZM31.8179 4.37C32.7419 4.37 33.5699 4.574 34.3019 4.982C35.0339 5.39 35.6039 5.96 36.0119 6.692C36.4319 7.424 36.6419 8.27 36.6419 9.23C36.6419 10.19 36.4319 11.042 36.0119 11.786C35.6039 12.518 35.0339 13.088 34.3019 13.496C33.5699 13.904 32.7419 14.108 31.8179 14.108C31.1339 14.108 30.5039 13.976 29.9279 13.712C29.3639 13.448 28.8839 13.064 28.4879 12.56V17.492H26.7599V4.46H28.4159V5.972C28.7999 5.444 29.2859 5.048 29.8739 4.784C30.4619 4.508 31.1099 4.37 31.8179 4.37ZM31.6739 12.596C32.2859 12.596 32.8319 12.458 33.3119 12.182C33.8039 11.894 34.1879 11.498 34.4639 10.994C34.7519 10.478 34.8959 9.89 34.8959 9.23C34.8959 8.57 34.7519 7.988 34.4639 7.484C34.1879 6.968 33.8039 6.572 33.3119 6.296C32.8319 6.02 32.2859 5.882 31.6739 5.882C31.0739 5.882 30.5279 6.026 30.0359 6.314C29.5559 6.59 29.1719 6.98 28.8839 7.484C28.6079 7.988 28.4699 8.57 28.4699 9.23C28.4699 9.89 28.6079 10.478 28.8839 10.994C29.1599 11.498 29.5439 11.894 30.0359 12.182C30.5279 12.458 31.0739 12.596 31.6739 12.596ZM47.7745 9.284C47.7745 9.416 47.7625 9.59 47.7385 9.806H39.9985C40.1065 10.646 40.4725 11.324 41.0965 11.84C41.7325 12.344 42.5185 12.596 43.4545 12.596C44.5945 12.596 45.5125 12.212 46.2085 11.444L47.1625 12.56C46.7305 13.064 46.1905 13.448 45.5425 13.712C44.9065 13.976 44.1925 14.108 43.4005 14.108C42.3925 14.108 41.4985 13.904 40.7185 13.496C39.9385 13.076 39.3325 12.494 38.9005 11.75C38.4805 11.006 38.2705 10.166 38.2705 9.23C38.2705 8.306 38.4745 7.472 38.8825 6.728C39.3025 5.984 39.8725 5.408 40.5925 5C41.3245 4.58 42.1465 4.37 43.0585 4.37C43.9705 4.37 44.7805 4.58 45.4885 5C46.2085 5.408 46.7665 5.984 47.1625 6.728C47.5705 7.472 47.7745 8.324 47.7745 9.284ZM43.0585 5.828C42.2305 5.828 41.5345 6.08 40.9705 6.584C40.4185 7.088 40.0945 7.748 39.9985 8.564H46.1185C46.0225 7.76 45.6925 7.106 45.1285 6.602C44.5765 6.086 43.8865 5.828 43.0585 5.828ZM50.4553 4.46H52.1833V11.408L58.0332 4.46H59.5993V14H57.8712V7.052L52.0393 14H50.4553V4.46ZM54.9193 3.218C54.0313 3.218 53.3413 3.008 52.8493 2.588C52.3573 2.156 52.1053 1.538 52.0933 0.733999H53.2633C53.2753 1.178 53.4253 1.538 53.7133 1.814C54.0133 2.078 54.4093 2.21 54.9013 2.21C55.3933 2.21 55.7893 2.078 56.0893 1.814C56.3893 1.538 56.5453 1.178 56.5573 0.733999H57.7633C57.7513 1.538 57.4933 2.156 56.9893 2.588C56.4853 3.008 55.7953 3.218 54.9193 3.218ZM70.0633 5.972H66.5713V14H64.8433V5.972H61.3513V4.46H70.0633V5.972ZM71.8303 4.46H73.5583V11.408L79.4082 4.46H80.9743V14H79.2462V7.052L73.4143 14H71.8303V4.46ZM89.1623 4.46H90.8903V8.51H96.3263V4.46H98.0543V14H96.3263V10.004H90.8903V14H89.1623V4.46ZM104.816 4.37C106.136 4.37 107.144 4.694 107.84 5.342C108.548 5.99 108.902 6.956 108.902 8.24V14H107.264V12.74C106.976 13.184 106.562 13.526 106.022 13.766C105.494 13.994 104.864 14.108 104.132 14.108C103.064 14.108 102.206 13.85 101.558 13.334C100.922 12.818 100.604 12.14 100.604 11.3C100.604 10.46 100.91 9.788 101.522 9.284C102.134 8.768 103.106 8.51 104.438 8.51H107.174V8.168C107.174 7.424 106.958 6.854 106.526 6.458C106.094 6.062 105.458 5.864 104.618 5.864C104.054 5.864 103.502 5.96 102.962 6.152C102.422 6.332 101.966 6.578 101.594 6.89L100.874 5.594C101.366 5.198 101.954 4.898 102.638 4.694C103.322 4.478 104.048 4.37 104.816 4.37ZM104.42 12.776C105.08 12.776 105.65 12.632 106.13 12.344C106.61 12.044 106.958 11.624 107.174 11.084V9.752H104.51C103.046 9.752 102.314 10.244 102.314 11.228C102.314 11.708 102.5 12.086 102.872 12.362C103.244 12.638 103.76 12.776 104.42 12.776ZM121.006 14.108C120.034 14.108 119.164 13.898 118.396 13.478C117.64 13.058 117.046 12.482 116.614 11.75C116.182 11.006 115.966 10.166 115.966 9.23C115.966 8.294 116.182 7.46 116.614 6.728C117.046 5.984 117.64 5.408 118.396 5C119.164 4.58 120.034 4.37 121.006 4.37C121.87 4.37 122.638 4.544 123.31 4.892C123.994 5.24 124.522 5.744 124.894 6.404L123.58 7.25C123.28 6.794 122.908 6.452 122.464 6.224C122.02 5.996 121.528 5.882 120.988 5.882C120.364 5.882 119.8 6.02 119.296 6.296C118.804 6.572 118.414 6.968 118.126 7.484C117.85 7.988 117.712 8.57 117.712 9.23C117.712 9.902 117.85 10.496 118.126 11.012C118.414 11.516 118.804 11.906 119.296 12.182C119.8 12.458 120.364 12.596 120.988 12.596C121.528 12.596 122.02 12.482 122.464 12.254C122.908 12.026 123.28 11.684 123.58 11.228L124.894 12.056C124.522 12.716 123.994 13.226 123.31 13.586C122.638 13.934 121.87 14.108 121.006 14.108ZM130.533 4.37C131.853 4.37 132.861 4.694 133.557 5.342C134.265 5.99 134.619 6.956 134.619 8.24V14H132.981V12.74C132.693 13.184 132.279 13.526 131.739 13.766C131.211 13.994 130.581 14.108 129.849 14.108C128.781 14.108 127.923 13.85 127.275 13.334C126.639 12.818 126.321 12.14 126.321 11.3C126.321 10.46 126.627 9.788 127.239 9.284C127.851 8.768 128.823 8.51 130.155 8.51H132.891V8.168C132.891 7.424 132.675 6.854 132.243 6.458C131.811 6.062 131.175 5.864 130.335 5.864C129.771 5.864 129.219 5.96 128.679 6.152C128.139 6.332 127.683 6.578 127.311 6.89L126.591 5.594C127.083 5.198 127.671 4.898 128.355 4.694C129.039 4.478 129.765 4.37 130.533 4.37ZM130.137 12.776C130.797 12.776 131.367 12.632 131.847 12.344C132.327 12.044 132.675 11.624 132.891 11.084V9.752H130.227C128.763 9.752 128.031 10.244 128.031 11.228C128.031 11.708 128.217 12.086 128.589 12.362C128.961 12.638 129.477 12.776 130.137 12.776ZM137.731 4.46H139.459V11.408L145.309 4.46H146.875V14H145.147V7.052L139.315 14H137.731V4.46ZM142.195 3.218C141.307 3.218 140.617 3.008 140.125 2.588C139.633 2.156 139.381 1.538 139.369 0.733999H140.539C140.551 1.178 140.701 1.538 140.989 1.814C141.289 2.078 141.685 2.21 142.177 2.21C142.669 2.21 143.065 2.078 143.365 1.814C143.665 1.538 143.821 1.178 143.833 0.733999H145.039C145.027 1.538 144.769 2.156 144.265 2.588C143.761 3.008 143.071 3.218 142.195 3.218ZM157.339 5.972H153.847V14H152.119V5.972H148.627V4.46H157.339V5.972ZM238.644 9.068L236.142 12.794H234.576L236.52 9.734H230.778V8.42H236.52L234.576 5.378H236.142L238.644 9.068Z" fill="white" fill-opacity="0.7"/>
<path d="M169.862 14.144C168.602 14.144 167.462 13.868 166.442 13.316C165.434 12.752 164.642 11.984 164.066 11.012C163.49 10.028 163.202 8.924 163.202 7.7C163.202 6.476 163.49 5.378 164.066 4.406C164.642 3.422 165.44 2.654 166.46 2.102C167.48 1.538 168.62 1.256 169.88 1.256C170.864 1.256 171.764 1.424 172.58 1.76C173.396 2.084 174.092 2.57 174.668 3.218L173.498 4.352C172.55 3.356 171.368 2.858 169.952 2.858C169.016 2.858 168.17 3.068 167.414 3.488C166.658 3.908 166.064 4.49 165.632 5.234C165.212 5.966 165.002 6.788 165.002 7.7C165.002 8.612 165.212 9.44 165.632 10.184C166.064 10.916 166.658 11.492 167.414 11.912C168.17 12.332 169.016 12.542 169.952 12.542C171.356 12.542 172.538 12.038 173.498 11.03L174.668 12.164C174.092 12.812 173.39 13.304 172.562 13.64C171.746 13.976 170.846 14.144 169.862 14.144ZM188.002 1.4V14H186.238V2.966H178.93V14H177.148V1.4H188.002ZM196.503 4.784C197.391 4.784 198.183 4.982 198.879 5.378C199.575 5.774 200.115 6.326 200.499 7.034C200.895 7.73 201.093 8.528 201.093 9.428C201.093 10.352 200.883 11.174 200.463 11.894C200.055 12.602 199.473 13.154 198.717 13.55C197.973 13.946 197.121 14.144 196.161 14.144C194.541 14.144 193.287 13.592 192.399 12.488C191.523 11.372 191.085 9.806 191.085 7.79C191.085 5.834 191.487 4.304 192.291 3.2C193.095 2.084 194.325 1.346 195.981 0.985999L200.337 0.0139998L200.589 1.598L196.575 2.462C195.327 2.738 194.397 3.206 193.785 3.866C193.173 4.526 192.825 5.474 192.741 6.71C193.149 6.098 193.677 5.624 194.325 5.288C194.973 4.952 195.699 4.784 196.503 4.784ZM196.197 12.704C196.809 12.704 197.349 12.566 197.817 12.29C198.297 12.014 198.669 11.636 198.933 11.156C199.197 10.664 199.329 10.106 199.329 9.482C199.329 8.534 199.041 7.772 198.465 7.196C197.889 6.62 197.133 6.332 196.197 6.332C195.261 6.332 194.499 6.62 193.911 7.196C193.335 7.772 193.047 8.534 193.047 9.482C193.047 10.106 193.179 10.664 193.443 11.156C193.719 11.636 194.097 12.014 194.577 12.29C195.057 12.566 195.597 12.704 196.197 12.704ZM212.093 2.966H205.613L205.631 14H203.849V1.4H212.111L212.093 2.966ZM224.569 1.4L218.971 11.786C218.527 12.614 218.005 13.232 217.405 13.64C216.805 14.048 216.151 14.252 215.443 14.252C214.891 14.252 214.327 14.126 213.751 13.874L214.219 12.434C214.663 12.59 215.059 12.668 215.407 12.668C216.199 12.668 216.853 12.248 217.369 11.408L217.657 10.958L212.581 1.4H214.507L218.593 9.392L222.787 1.4H224.569Z" fill="#BB4748"/>
<path d="M162.266 15.8H224.738V16.7H162.266V15.8Z" fill="#BB4748"/>
</svg>
