<svg width="210" height="27" viewBox="0 0 210 27" fill="none" xmlns="http://www.w3.org/2000/svg">
<path d="M8.2835 20.144C7.3235 20.144 6.4355 19.988 5.6195 19.676C4.8155 19.352 4.1135 18.902 3.5135 18.326C2.9255 17.738 2.4635 17.054 2.1275 16.274C1.7915 15.494 1.6235 14.636 1.6235 13.7C1.6235 12.764 1.7915 11.906 2.1275 11.126C2.4635 10.346 2.9315 9.668 3.5315 9.092C4.1315 8.504 4.8335 8.054 5.6375 7.742C6.4535 7.418 7.3415 7.256 8.3015 7.256C9.2735 7.256 10.1675 7.424 10.9835 7.76C11.8115 8.084 12.5135 8.57 13.0895 9.218L11.9195 10.352C11.4395 9.848 10.8995 9.476 10.2995 9.236C9.6995 8.984 9.0575 8.858 8.3735 8.858C7.6655 8.858 7.0055 8.978 6.3935 9.218C5.7935 9.458 5.2715 9.794 4.8275 10.226C4.3835 10.658 4.0355 11.174 3.7835 11.774C3.5435 12.362 3.4235 13.004 3.4235 13.7C3.4235 14.396 3.5435 15.044 3.7835 15.644C4.0355 16.232 4.3835 16.742 4.8275 17.174C5.2715 17.606 5.7935 17.942 6.3935 18.182C7.0055 18.422 7.6655 18.542 8.3735 18.542C9.0575 18.542 9.6995 18.422 10.2995 18.182C10.8995 17.93 11.4395 17.546 11.9195 17.03L13.0895 18.164C12.5135 18.812 11.8115 19.304 10.9835 19.64C10.1675 19.976 9.2675 20.144 8.2835 20.144ZM15.2814 20V10.46H17.0634L21.1674 17.516H20.4474L24.6594 10.46H26.2794V20H24.7134V12.404L25.0014 12.566L21.1494 18.92H20.3934L16.5234 12.44L16.8654 12.368V20H15.2814ZM33.7288 20.108C32.7688 20.108 31.9168 19.898 31.1728 19.478C30.4288 19.058 29.8408 18.482 29.4088 17.75C28.9768 17.006 28.7608 16.166 28.7608 15.23C28.7608 14.282 28.9768 13.442 29.4088 12.71C29.8408 11.978 30.4288 11.408 31.1728 11C31.9168 10.58 32.7688 10.37 33.7288 10.37C34.6768 10.37 35.5228 10.58 36.2668 11C37.0228 11.408 37.6108 11.978 38.0308 12.71C38.4628 13.43 38.6788 14.27 38.6788 15.23C38.6788 16.178 38.4628 17.018 38.0308 17.75C37.6108 18.482 37.0228 19.058 36.2668 19.478C35.5228 19.898 34.6768 20.108 33.7288 20.108ZM33.7288 18.596C34.3408 18.596 34.8868 18.458 35.3668 18.182C35.8588 17.906 36.2428 17.516 36.5188 17.012C36.7948 16.496 36.9328 15.902 36.9328 15.23C36.9328 14.546 36.7948 13.958 36.5188 13.466C36.2428 12.962 35.8588 12.572 35.3668 12.296C34.8868 12.02 34.3408 11.882 33.7288 11.882C33.1168 11.882 32.5708 12.02 32.0908 12.296C31.6108 12.572 31.2268 12.962 30.9388 13.466C30.6508 13.958 30.5068 14.546 30.5068 15.23C30.5068 15.902 30.6508 16.496 30.9388 17.012C31.2268 17.516 31.6108 17.906 32.0908 18.182C32.5708 18.458 33.1168 18.596 33.7288 18.596ZM42.7124 20V11.522L43.1444 11.972H39.2204V10.46H47.9324V11.972H44.0264L44.4404 11.522V20H42.7124ZM54.7574 20.108C53.9654 20.108 53.2394 19.928 52.5794 19.568C51.9314 19.196 51.4094 18.65 51.0134 17.93C50.6294 17.21 50.4374 16.31 50.4374 15.23C50.4374 14.15 50.6234 13.25 50.9954 12.53C51.3794 11.81 51.8954 11.27 52.5434 10.91C53.2034 10.55 53.9414 10.37 54.7574 10.37C55.6934 10.37 56.5214 10.574 57.2414 10.982C57.9614 11.39 58.5314 11.96 58.9514 12.692C59.3714 13.412 59.5814 14.258 59.5814 15.23C59.5814 16.202 59.3714 17.054 58.9514 17.786C58.5314 18.518 57.9614 19.088 57.2414 19.496C56.5214 19.904 55.6934 20.108 54.7574 20.108ZM49.6994 23.492V10.46H51.3554V13.034L51.2474 15.248L51.4274 17.462V23.492H49.6994ZM54.6134 18.596C55.2254 18.596 55.7714 18.458 56.2514 18.182C56.7434 17.906 57.1274 17.516 57.4034 17.012C57.6914 16.496 57.8354 15.902 57.8354 15.23C57.8354 14.546 57.6914 13.958 57.4034 13.466C57.1274 12.962 56.7434 12.572 56.2514 12.296C55.7714 12.02 55.2254 11.882 54.6134 11.882C54.0134 11.882 53.4674 12.02 52.9754 12.296C52.4954 12.572 52.1114 12.962 51.8234 13.466C51.5474 13.958 51.4094 14.546 51.4094 15.23C51.4094 15.902 51.5474 16.496 51.8234 17.012C52.1114 17.516 52.4954 17.906 52.9754 18.182C53.4674 18.458 54.0134 18.596 54.6134 18.596ZM66.34 20.108C65.32 20.108 64.42 19.898 63.64 19.478C62.872 19.058 62.272 18.482 61.84 17.75C61.42 17.018 61.21 16.178 61.21 15.23C61.21 14.282 61.414 13.442 61.822 12.71C62.242 11.978 62.812 11.408 63.532 11C64.264 10.58 65.086 10.37 65.998 10.37C66.922 10.37 67.738 10.574 68.446 10.982C69.154 11.39 69.706 11.966 70.102 12.71C70.51 13.442 70.714 14.3 70.714 15.284C70.714 15.356 70.708 15.44 70.696 15.536C70.696 15.632 70.69 15.722 70.678 15.806H62.56V14.564H69.778L69.076 14.996C69.088 14.384 68.962 13.838 68.698 13.358C68.434 12.878 68.068 12.506 67.6 12.242C67.144 11.966 66.61 11.828 65.998 11.828C65.398 11.828 64.864 11.966 64.396 12.242C63.928 12.506 63.562 12.884 63.298 13.376C63.034 13.856 62.902 14.408 62.902 15.032V15.32C62.902 15.956 63.046 16.526 63.334 17.03C63.634 17.522 64.048 17.906 64.576 18.182C65.104 18.458 65.71 18.596 66.394 18.596C66.958 18.596 67.468 18.5 67.924 18.308C68.392 18.116 68.8 17.828 69.148 17.444L70.102 18.56C69.67 19.064 69.13 19.448 68.482 19.712C67.846 19.976 67.132 20.108 66.34 20.108ZM74.8804 20V11.522L75.3124 11.972H71.3884V10.46H80.1004V11.972H76.1944L76.6084 11.522V20H74.8804ZM86.2774 13.7C87.4894 13.712 88.4134 13.988 89.0494 14.528C89.6854 15.068 90.0034 15.83 90.0034 16.814C90.0034 17.846 89.6554 18.644 88.9594 19.208C88.2634 19.76 87.2794 20.03 86.0074 20.018L81.8674 20V10.46H83.5954V13.682L86.2774 13.7ZM85.8634 18.704C86.6434 18.716 87.2314 18.56 87.6274 18.236C88.0354 17.912 88.2394 17.432 88.2394 16.796C88.2394 16.172 88.0414 15.716 87.6454 15.428C87.2494 15.14 86.6554 14.99 85.8634 14.978L83.5954 14.942V18.686L85.8634 18.704ZM97.0549 20V10.46H98.7829V14.51H104.219V10.46H105.947V20H104.219V16.004H98.7829V20H97.0549ZM115.157 20V17.984L115.067 17.606V14.168C115.067 13.436 114.851 12.872 114.419 12.476C113.999 12.068 113.363 11.864 112.511 11.864C111.947 11.864 111.395 11.96 110.855 12.152C110.315 12.332 109.859 12.578 109.487 12.89L108.767 11.594C109.259 11.198 109.847 10.898 110.531 10.694C111.227 10.478 111.953 10.37 112.709 10.37C114.017 10.37 115.025 10.688 115.733 11.324C116.441 11.96 116.795 12.932 116.795 14.24V20H115.157ZM112.025 20.108C111.317 20.108 110.693 19.988 110.153 19.748C109.625 19.508 109.217 19.178 108.929 18.758C108.641 18.326 108.497 17.84 108.497 17.3C108.497 16.784 108.617 16.316 108.857 15.896C109.109 15.476 109.511 15.14 110.063 14.888C110.627 14.636 111.383 14.51 112.331 14.51H115.355V15.752H112.403C111.539 15.752 110.957 15.896 110.657 16.184C110.357 16.472 110.207 16.82 110.207 17.228C110.207 17.696 110.393 18.074 110.765 18.362C111.137 18.638 111.653 18.776 112.313 18.776C112.961 18.776 113.525 18.632 114.005 18.344C114.497 18.056 114.851 17.636 115.067 17.084L115.409 18.272C115.181 18.836 114.779 19.286 114.203 19.622C113.627 19.946 112.901 20.108 112.025 20.108ZM205.31 11.378L207.812 15.068L205.31 18.794H203.744L206.102 15.068L203.744 11.378H205.31ZM206.462 14.42V15.734H199.946V14.42H206.462Z" fill="white" fill-opacity="0.7"/>
<path d="M125.028 20V7.4H130.446C131.814 7.4 132.888 7.676 133.668 8.228C134.448 8.78 134.838 9.584 134.838 10.64C134.838 11.672 134.466 12.464 133.722 13.016C132.978 13.556 132 13.826 130.788 13.826L131.112 13.286C132.516 13.286 133.59 13.568 134.334 14.132C135.09 14.684 135.468 15.494 135.468 16.562C135.468 17.642 135.072 18.488 134.28 19.1C133.5 19.7 132.336 20 130.788 20H125.028ZM126.81 18.578H130.752C131.712 18.578 132.432 18.404 132.912 18.056C133.404 17.696 133.65 17.15 133.65 16.418C133.65 15.686 133.404 15.152 132.912 14.816C132.432 14.48 131.712 14.312 130.752 14.312H126.81V18.578ZM126.81 12.944H130.32C131.196 12.944 131.862 12.77 132.318 12.422C132.786 12.074 133.02 11.564 133.02 10.892C133.02 10.208 132.786 9.692 132.318 9.344C131.862 8.996 131.196 8.822 130.32 8.822H126.81V12.944ZM147.512 7.4H149.312V20H147.512V7.4ZM140.276 20H138.476V7.4H140.276V20ZM147.674 14.384H140.096V12.818H147.674V14.384ZM158.803 20V17.984L158.713 17.606V14.168C158.713 13.436 158.497 12.872 158.065 12.476C157.645 12.068 157.009 11.864 156.157 11.864C155.593 11.864 155.041 11.96 154.501 12.152C153.961 12.332 153.505 12.578 153.133 12.89L152.413 11.594C152.905 11.198 153.493 10.898 154.177 10.694C154.873 10.478 155.599 10.37 156.355 10.37C157.663 10.37 158.671 10.688 159.379 11.324C160.087 11.96 160.441 12.932 160.441 14.24V20H158.803ZM155.671 20.108C154.963 20.108 154.339 19.988 153.799 19.748C153.271 19.508 152.863 19.178 152.575 18.758C152.287 18.326 152.143 17.84 152.143 17.3C152.143 16.784 152.263 16.316 152.503 15.896C152.755 15.476 153.157 15.14 153.709 14.888C154.273 14.636 155.029 14.51 155.977 14.51H159.001V15.752H156.049C155.185 15.752 154.603 15.896 154.303 16.184C154.003 16.472 153.853 16.82 153.853 17.228C153.853 17.696 154.039 18.074 154.411 18.362C154.783 18.638 155.299 18.776 155.959 18.776C156.607 18.776 157.171 18.632 157.651 18.344C158.143 18.056 158.497 17.636 158.713 17.084L159.055 18.272C158.827 18.836 158.425 19.286 157.849 19.622C157.273 19.946 156.547 20.108 155.671 20.108ZM164.039 23.6C163.583 23.6 163.139 23.522 162.707 23.366C162.275 23.222 161.903 23.006 161.591 22.718L162.329 21.422C162.569 21.65 162.833 21.824 163.121 21.944C163.409 22.064 163.715 22.124 164.039 22.124C164.459 22.124 164.807 22.016 165.083 21.8C165.359 21.584 165.617 21.2 165.857 20.648L166.451 19.334L166.631 19.118L170.375 10.46H172.067L167.441 20.954C167.165 21.626 166.853 22.154 166.505 22.538C166.169 22.922 165.797 23.192 165.389 23.348C164.981 23.516 164.531 23.6 164.039 23.6ZM166.307 20.306L161.951 10.46H163.751L167.459 18.956L166.307 20.306ZM180.748 20L177.058 15.356L178.48 14.492L182.782 20H180.748ZM173.836 20V10.46H175.564V20H173.836ZM175.042 15.968V14.492H178.192V15.968H175.042ZM178.624 15.428L177.022 15.212L180.676 10.46H182.53L178.624 15.428ZM188.526 20.108C187.506 20.108 186.606 19.898 185.826 19.478C185.058 19.058 184.458 18.482 184.026 17.75C183.606 17.018 183.396 16.178 183.396 15.23C183.396 14.282 183.6 13.442 184.008 12.71C184.428 11.978 184.998 11.408 185.718 11C186.45 10.58 187.272 10.37 188.184 10.37C189.108 10.37 189.924 10.574 190.632 10.982C191.34 11.39 191.892 11.966 192.288 12.71C192.696 13.442 192.9 14.3 192.9 15.284C192.9 15.356 192.894 15.44 192.882 15.536C192.882 15.632 192.876 15.722 192.864 15.806H184.746V14.564H191.964L191.262 14.996C191.274 14.384 191.148 13.838 190.884 13.358C190.62 12.878 190.254 12.506 189.786 12.242C189.33 11.966 188.796 11.828 188.184 11.828C187.584 11.828 187.05 11.966 186.582 12.242C186.114 12.506 185.748 12.884 185.484 13.376C185.22 13.856 185.088 14.408 185.088 15.032V15.32C185.088 15.956 185.232 16.526 185.52 17.03C185.82 17.522 186.234 17.906 186.762 18.182C187.29 18.458 187.896 18.596 188.58 18.596C189.144 18.596 189.654 18.5 190.11 18.308C190.578 18.116 190.986 17.828 191.334 17.444L192.288 18.56C191.856 19.064 191.316 19.448 190.668 19.712C190.032 19.976 189.318 20.108 188.526 20.108Z" fill="#3770FE"/>
<path d="M0.6875 22.25H193.906V23.15H0.6875V22.25Z" fill="#3770FE"/>
</svg>
