<svg width="46" height="54" viewBox="0 0 46 54" fill="none" xmlns="http://www.w3.org/2000/svg">
<path d="M22.8119 19.8292L11.4059 26.4912V13.1673L0 6.50537V32.0121C0 32.7114 0.364408 33.3371 0.947458 33.6684L10.4585 39.2261C11.0415 39.5574 11.7703 39.5574 12.3534 39.2261L22.8119 33.1163L34.2178 26.4544L22.8119 19.7924V19.8292Z" fill="#AC3639"/>
<path d="M21.3907 7.35205L11.4059 13.1674L0 6.50551L10.9322 0.138024C11.2237 -0.0460078 11.5881 -0.0460078 11.8797 0.138024L21.3907 5.69577C22.0102 6.06383 22.0102 6.98399 21.3907 7.35205Z" fill="#383A41"/>
<path d="M44.714 19.2771L35.203 13.7194C34.6199 13.3881 33.8911 13.3881 33.3081 13.7194L22.8496 19.8292L34.2555 26.4912V39.815L24.2708 45.6304C23.6513 45.9985 23.6513 46.9187 24.2708 47.2867L34.2555 53.1021L45.6615 46.4402V20.9334C45.6615 20.2341 45.2971 19.6084 44.714 19.2771Z" fill="#383A41"/>
<path d="M34.2541 39.7783V53.1022L24.2693 47.2868C23.6498 46.9187 23.6498 45.9986 24.2693 45.6305L34.2541 39.8151V39.7783Z" fill="#AC3639"/>
</svg>
